<svg xmlns="http://www.w3.org/2000/svg" xmlns:xlink="http://www.w3.org/1999/xlink" width="81.984" height="57.493" viewBox="0 0 81.984 57.493">
  <defs>
    <clipPath id="clip-path">
      <rect id="Retângulo_100" data-name="Retângulo 100" width="81.984" height="57.493" fill="none" stroke="#5ca2fb" stroke-width="3"/>
    </clipPath>
  </defs>
  <g id="Grupo_2228" data-name="Grupo 2228" transform="translate(0 0)">
    <g id="Grupo_2227" data-name="Grupo 2227" transform="translate(0 0)" clip-path="url(#clip-path)">
      <path id="Caminho_9462" data-name="Caminho 9462" d="M53.113.745S46.9,6.306,46.254,6.406c-1.881.291-10.317-3.67-12.022-4.094S15.53,7.287,14.268,9.335s3.758,6.885,8.593,6.269,12.015-3.184,14.106-1.093c3.392,3.392,13.288,13.771,17.965,17.9,3.922,3.461,15.419-14.43,15.419-14.43" transform="translate(10.184 0.539)" fill="none" stroke="#5ca2fb" stroke-linejoin="round" stroke-width="3"/>
      <line id="Linha_24" data-name="Linha 24" x1="5.585" y1="5.669" transform="translate(36.9 45.886)" fill="none" stroke="#5ca2fb" stroke-linejoin="round" stroke-width="3"/>
      <line id="Linha_25" data-name="Linha 25" x1="9.784" y1="10.561" transform="translate(41.965 37.931)" fill="none" stroke="#5ca2fb" stroke-linejoin="round" stroke-width="3"/>
      <line id="Linha_26" data-name="Linha 26" x1="11.616" y1="12.035" transform="translate(48.537 31.558)" fill="none" stroke="#5ca2fb" stroke-linejoin="round" stroke-width="3"/>
      <path id="Caminho_9463" data-name="Caminho 9463" d="M20.841,40.747a3.447,3.447,0,0,0,4.875,0l3.065-3.063c1.3-1.3.969-3.432-.553-4.951s-3.646-1.853-4.951-.552c1.3-1.3.97-3.432-.55-4.951s-3.649-1.851-4.951-.55c1.3-1.3.97-3.432-.55-4.951s-3.649-1.853-4.951-.55c1.3-1.3.97-3.432-.55-4.952s-3.649-1.851-4.951-.55L3.71,18.741a3.449,3.449,0,0,0,0,4.877Z" transform="translate(1.954 10.762)" fill="none" stroke="#5ca2fb" stroke-linejoin="round" stroke-width="3"/>
      <path id="Caminho_9464" data-name="Caminho 9464" d="M16.863,36.273l1.074,1.088,2.636,2.634c4.02,4.02,7.772,1.062,9.708-2.274a7.051,7.051,0,0,0,9.264-3.061c4.659,2.3,8.738-2.462,8.405-4.9A6.611,6.611,0,0,0,52.91,19.116" transform="translate(12.205 13.835)" fill="none" stroke="#5ca2fb" stroke-linejoin="round" stroke-width="3"/>
      <path id="Caminho_9465" data-name="Caminho 9465" d="M.72,11.745,4.4,15.561A11.95,11.95,0,0,0,6.646,19.5" transform="translate(0.521 8.5)" fill="none" stroke="#5ca2fb" stroke-linejoin="round" stroke-width="3"/>
      <line id="Linha_27" data-name="Linha 27" x1="6.202" y1="6.206" transform="translate(18.486 3.402)" fill="none" stroke="#5ca2fb" stroke-linejoin="round" stroke-width="3"/>
      <line id="Linha_28" data-name="Linha 28" x1="5.414" y2="5.588" transform="translate(8.815 31.941)" fill="none" stroke="#5ca2fb" stroke-linejoin="round" stroke-width="3"/>
      <line id="Linha_29" data-name="Linha 29" x1="5.414" y2="5.588" transform="translate(8.815 31.941)" fill="none" stroke="#5ca2fb" stroke-linejoin="round" stroke-width="3"/>
      <line id="Linha_30" data-name="Linha 30" x1="5.414" y2="5.588" transform="translate(14.316 37.442)" fill="none" stroke="#5ca2fb" stroke-linejoin="round" stroke-width="3"/>
      <line id="Linha_31" data-name="Linha 31" x1="5.414" y2="5.588" transform="translate(19.818 42.943)" fill="none" stroke="#5ca2fb" stroke-linejoin="round" stroke-width="3"/>
    </g>
  </g>
</svg>
