<svg id="Grupo_2241" data-name="Grupo 2241" xmlns="http://www.w3.org/2000/svg" xmlns:xlink="http://www.w3.org/1999/xlink" width="85.115" height="85.986" viewBox="0 0 85.115 85.986">
  <defs>
    <clipPath id="clip-path">
      <rect id="Retângulo_113" data-name="Retângulo 113" width="85.115" height="85.986" fill="#00ffc2"/>
    </clipPath>
  </defs>
  <g id="Grupo_2240" data-name="Grupo 2240" clip-path="url(#clip-path)">
    <path id="Caminho_9478" data-name="Caminho 9478" d="M123.2,273.486a2,2,0,0,1-1.4-.568l-3.076-2.995h-25.4c-.618,0-1.769,0-11.459-6.7a2.01,2.01,0,0,1-.331-.287l-7.046-7.616a2.008,2.008,0,0,1-.366-.559l-4.013-9.2a2,2,0,0,1,.814-2.525c8.52-5.057,13.287,1.609,15.722,5.434l5.628,2.154a2,2,0,0,1-1.433,3.743l-6.25-2.392a2,2,0,0,1-.98-.8c-3.02-4.8-5.295-6.986-9.07-5.477l3.12,7.15,6.665,7.2a98.175,98.175,0,0,0,9.248,5.866h25.966a2,2,0,0,1,1.4.568l3.659,3.563a2,2,0,0,1-1.4,3.44m-29.5-7.523h0" transform="translate(-54.37 -187.5)" fill="#00ffc2"/>
    <path id="Caminho_9479" data-name="Caminho 9479" d="M181.328,264.619H165.3c-4.824,0-7.348-3.249-7.348-6.458s2.524-6.458,7.348-6.458h10.536a12.626,12.626,0,0,0,1.519-1.063c1.53-1.172,3.264-2.5,5.254-2.5h8.907c3.018,0,6.461,2.209,8.492,4.1l.051.049c2.62,2.62,7.164,6.921,7.209,6.964a2,2,0,1,1-2.755,2.911c-.046-.043-4.6-4.354-7.262-7.015-1.615-1.5-4.094-3-5.735-3H182.6c-.632,0-2,1.048-2.817,1.674-1.324,1.014-2.467,1.889-3.8,1.889H165.3c-2.307,0-3.34,1.23-3.34,2.449s1.033,2.449,3.34,2.449h16.033a2,2,0,0,1,0,4.008" transform="translate(-122.775 -192.885)" fill="#00ffc2"/>
    <path id="Caminho_9480" data-name="Caminho 9480" d="M41.287,96.077a6.883,6.883,0,0,1-2.768-.557c-.629-.28-5.188-1.836-9.211-3.209-2.424-.827-4.931-1.683-7.019-2.408a18.532,18.532,0,0,1-9.247-7.059C9.987,78.4,6.39,72.506,5.193,70.524L1.451,69.448A2,2,0,1,1,2.558,65.6l4.5,1.293a2,2,0,0,1,1.167.9c.045.075,4.485,7.5,8.118,12.782A14.553,14.553,0,0,0,23.6,86.115c2.078.721,4.581,1.575,7,2.4,5.427,1.852,8.791,3,9.546,3.341a3.023,3.023,0,0,0,2.328-.034,8.9,8.9,0,0,0-2.647-5.369,12.074,12.074,0,0,0-2.71-1.19c-2.446-.89-5.491-2-7.415-4.383-1.417-1.757-1.229-4.819-1.177-5.416a2,2,0,0,1,1.011-1.571l6.035-3.407a1.99,1.99,0,0,1,.408-.174l1.745-.525a2,2,0,0,1,1.249.031l7.029,2.5a2,2,0,0,1,.847.581l5.066,5.886a2,2,0,0,1,.394,1.9c0,.012-.423,1.372-.921,3.669a2,2,0,1,1-3.917-.849c.271-1.249.52-2.24.7-2.925l-4.017-4.666-5.909-2.1-.9.271-4.84,2.733a3.722,3.722,0,0,0,.315,1.547c1.222,1.516,3.581,2.374,5.663,3.131a11.912,11.912,0,0,1,4.1,2.05,12.6,12.6,0,0,1,3.893,8.477,3.807,3.807,0,0,1-1.865,3.183,6.348,6.348,0,0,1-3.332.87" transform="translate(0 -50.928)" fill="#00ffc2"/>
    <path id="Caminho_9481" data-name="Caminho 9481" d="M120.763,42.94a2.005,2.005,0,0,1-1.9-2.65l4.445-13.064L115.447,14.4a9.017,9.017,0,0,0-4.949-3.488C99.706,7.925,84.753,3.982,84.6,3.942A2,2,0,0,1,85.624.066c.15.04,15.128,3.989,25.943,6.983a13.032,13.032,0,0,1,7.2,5.106c.022.032.043.064.064.1l8.387,13.679a2,2,0,0,1,.189,1.693L122.66,41.581a2.005,2.005,0,0,1-1.9,1.359" transform="translate(-64.602 0)" fill="#00ffc2"/>
    <path id="Caminho_9482" data-name="Caminho 9482" d="M160.8,161.526a12.7,12.7,0,0,1-12.523-14.77,2,2,0,1,1,3.955.652,8.785,8.785,0,0,0-.116,1.425,8.679,8.679,0,1,0,4.538-7.633,2,2,0,1,1-1.917-3.52,12.694,12.694,0,1,1,6.064,23.846" transform="translate(-115.13 -105.825)" fill="#00ffc2"/>
  </g>
</svg>
