<svg width="40" height="40" viewBox="0 0 40 40" fill="none" xmlns="http://www.w3.org/2000/svg">
<path d="M26.255 32.315C27.93 33.99 30.6417 33.99 32.3167 32.315C33.9917 30.64 33.9917 27.9283 32.3167 26.2533C30.6417 24.5783 27.93 24.5783 26.255 26.2533C24.5817 27.9283 24.5817 30.6433 26.255 32.315Z" stroke="#1172EB" stroke-width="2" stroke-linecap="round" stroke-linejoin="round"/>
<path opacity="0.5" d="M35.0002 35.0004L32.3169 32.3154" stroke="#1172EB" stroke-width="2" stroke-linecap="round" stroke-linejoin="round"/>
<path d="M35 20V13.2333C35 11.3933 33.5083 9.9 31.6667 9.9H20.8817C20.33 9.9 19.8133 9.62667 19.5033 9.17L17.1617 5.72833C16.8517 5.27333 16.3367 5 15.785 5H8.33333C6.49167 5 5 6.49167 5 8.33333V28.3333C5 30.175 6.49167 31.6667 8.33333 31.6667H18.3333" stroke="#1172EB" stroke-width="2" stroke-linecap="round" stroke-linejoin="round"/>
</svg>
