<svg width="40" height="40" viewBox="0 0 40 40" fill="none" xmlns="http://www.w3.org/2000/svg">
<path fill-rule="evenodd" clip-rule="evenodd" d="M31.6668 28.333H25.8918C25.3352 28.333 24.8135 28.6113 24.5052 29.0747L23.8285 30.0897C23.5202 30.553 22.9985 30.8313 22.4418 30.8313H14.2252C13.6685 30.8313 13.1468 30.553 12.8385 30.0897L12.1618 29.0747C11.8518 28.6113 11.3318 28.333 10.7735 28.333H5.00016C4.08016 28.333 3.3335 29.0797 3.3335 29.9997V31.6663C3.3335 33.508 4.82516 34.9997 6.66683 34.9997H30.0002C31.8418 34.9997 33.3335 33.508 33.3335 31.6663V29.9997C33.3335 29.0797 32.5868 28.333 31.6668 28.333Z" stroke="#1172EB" stroke-width="2" stroke-linecap="round" stroke-linejoin="round"/>
<path d="M18.3333 8.33301H7.96333C6.32667 8.33301 5 9.50468 5 10.9514V28.333" stroke="#1172EB" stroke-width="2" stroke-linecap="round" stroke-linejoin="round"/>
<path d="M31.6667 28.3336V21.667" stroke="#1172EB" stroke-width="2" stroke-linecap="round" stroke-linejoin="round"/>
<path opacity="0.5" d="M32.9165 14.4834L36.6665 18.3334" stroke="#1172EB" stroke-width="2" stroke-linecap="round" stroke-linejoin="round"/>
<path d="M32.9215 6.62702C35.0908 8.79639 35.0908 12.3136 32.9215 14.483C30.7521 16.6523 27.2349 16.6523 25.0655 14.483C22.8961 12.3136 22.8961 8.79637 25.0655 6.62702C27.2349 4.45766 30.7521 4.45766 32.9215 6.62702Z" stroke="#1172EB" stroke-width="2" stroke-linecap="round" stroke-linejoin="round"/>
</svg>
