<svg width="60" height="62" viewBox="0 0 60 62" fill="none" xmlns="http://www.w3.org/2000/svg">
<path d="M58.125 48.214V55.7967C58.125 57.8906 56.4461 59.588 54.375 59.588H46.875" stroke="#32B77E" stroke-width="1.5" stroke-linecap="round" stroke-linejoin="round"/>
<path d="M46.875 2.71796H54.375C56.4461 2.71796 58.125 4.4154 58.125 6.5093V14.092" stroke="#32B77E" stroke-width="1.5" stroke-linecap="round" stroke-linejoin="round"/>
<path d="M1.875 14.092V6.5093C1.875 4.4154 3.55393 2.71796 5.625 2.71796H13.125" stroke="#32B77E" stroke-width="1.5" stroke-linecap="round" stroke-linejoin="round"/>
<path d="M13.125 59.588H5.625C3.55393 59.588 1.875 57.8906 1.875 55.7967V48.214" stroke="#32B77E" stroke-width="1.5" stroke-linecap="round" stroke-linejoin="round"/>
<path d="M21.1123 17.3298C26.0639 22.5139 33.6717 24.0597 40.2198 21.2121" stroke="#32B77E" stroke-width="1.5" stroke-linecap="round" stroke-linejoin="round"/>
<path fill-rule="evenodd" clip-rule="evenodd" d="M30 33.0487C35.6954 33.0487 40.3125 28.3807 40.3125 22.6225C40.3125 16.8643 35.6954 12.1963 30 12.1963C24.3046 12.1963 19.6875 16.8643 19.6875 22.6225C19.6875 28.3807 24.3046 33.0487 30 33.0487Z" stroke="#32B77E" stroke-width="1.5" stroke-linecap="round" stroke-linejoin="round"/>
<path d="M46.875 50.1097C44.9155 42.3036 37.9657 36.8378 30 36.8378C22.0343 36.8378 15.0845 42.3036 13.125 50.1097" stroke="#32B77E" stroke-width="1.5" stroke-linecap="round" stroke-linejoin="round"/>
</svg>
