<svg width="48" height="49" viewBox="0 0 48 49" fill="none" xmlns="http://www.w3.org/2000/svg">
<path fill-rule="evenodd" clip-rule="evenodd" d="M39.3333 31.7788C43.5675 31.7788 47 35.2491 47 39.53C47 43.8109 43.5675 47.2812 39.3333 47.2812C35.0992 47.2812 31.6667 43.8109 31.6667 39.53V8.53146C31.6667 4.2506 35.0992 0.780273 39.3333 0.780273C43.5675 0.780273 47 4.2506 47 8.53146C47 12.8123 43.5675 16.2826 39.3333 16.2826H8.66667C4.43248 16.2826 1 12.8123 1 8.53146C1 4.2506 4.43248 0.780273 8.66667 0.780273C12.9009 0.780273 16.3333 4.2506 16.3333 8.53146V39.5362C16.3333 43.8171 12.9009 47.2874 8.66667 47.2874C4.43248 47.2874 1 43.8171 1 39.5362C1 35.2553 4.43248 31.785 8.66667 31.785L39.3333 31.7788Z" stroke="#47B881" stroke-width="1.5" stroke-linecap="round" stroke-linejoin="round"/>
</svg>
