<svg width="58" height="60" viewBox="0 0 58 60" fill="none" xmlns="http://www.w3.org/2000/svg">
<path d="M21.75 55.3681L23.5625 44.813" stroke="#32B77E" stroke-width="1.5" stroke-linecap="round" stroke-linejoin="round"/>
<path d="M16.3125 55.3682H27.1875" stroke="#32B77E" stroke-width="1.5" stroke-linecap="round" stroke-linejoin="round"/>
<path d="M23.5625 44.813H9.0625C5.05844 44.813 1.8125 41.6626 1.8125 37.7763V9.62938C1.8125 5.7431 5.05844 2.59265 9.0625 2.59265H48.9375C52.9416 2.59265 56.1875 5.7431 56.1875 9.62938V34.2579" stroke="#32B77E" stroke-width="1.5" stroke-linecap="round" stroke-linejoin="round"/>
<path d="M40.1408 55.3681L30.984 48.1109C29.776 47.1734 29.2416 45.6386 29.6162 44.1821V44.1821C29.9066 43.0513 30.7104 42.1097 31.8011 41.6226C32.8919 41.1354 34.1516 41.1554 35.2253 41.677L38.0625 43.0538V30.7396C38.0625 28.7964 39.6854 27.2212 41.6875 27.2212V27.2212C43.6895 27.2212 45.3125 28.7964 45.3125 30.7396V37.7763L50.1289 38.555C53.6248 39.1203 56.1872 42.0558 56.1875 45.4956V55.3681" stroke="#32B77E" stroke-width="1.5" stroke-linecap="round" stroke-linejoin="round"/>
<path d="M1.8125 37.7762H23.5625" stroke="#32B77E" stroke-width="1.5" stroke-linecap="round" stroke-linejoin="round"/>
</svg>
