<svg width="59" height="60" viewBox="0 0 59 60" fill="none" xmlns="http://www.w3.org/2000/svg">
<path d="M20.2715 48.4661L30.0311 38.5989C30.3769 38.2491 30.846 38.0525 31.3352 38.0525C31.8244 38.0525 32.2936 38.2491 32.6394 38.5989L37.4061 43.4182C37.7519 43.768 38.221 43.9646 38.7102 43.9646C39.1994 43.9646 39.6686 43.768 40.0144 43.4182L49.7715 33.5535" stroke="#4BBF8E" stroke-width="1.5" stroke-linecap="round" stroke-linejoin="round"/>
<path fill-rule="evenodd" clip-rule="evenodd" d="M1.83398 3.36414C1.83398 2.53571 2.50556 1.86414 3.33398 1.86414H55.6465C56.4749 1.86414 57.1465 2.53571 57.1465 3.36414V56.2864C57.1465 57.1148 56.4749 57.7864 55.6465 57.7864H3.33398C2.50556 57.7864 1.83398 57.1148 1.83398 56.2864V3.36414Z" stroke="#4BBF8E" stroke-width="1.5" stroke-linecap="round" stroke-linejoin="round"/>
<path fill-rule="evenodd" clip-rule="evenodd" d="M20.2715 31.6893C26.3811 31.6893 31.334 26.6819 31.334 20.5049C31.334 14.3279 26.3811 9.32043 20.2715 9.32043C14.1618 9.32043 9.20898 14.3279 9.20898 20.5049C9.20898 26.6819 14.1618 31.6893 20.2715 31.6893Z" stroke="#4BBF8E" stroke-width="1.5" stroke-linecap="round" stroke-linejoin="round"/>
<path d="M20.2715 9.32043V20.5049L28.0939 28.4135" stroke="#4BBF8E" stroke-width="1.5" stroke-linecap="round" stroke-linejoin="round"/>
<path d="M40.5527 13.0486H47.9277" stroke="#4BBF8E" stroke-width="1.5" stroke-linecap="round" stroke-linejoin="round"/>
<path d="M40.5527 20.5049H47.9277" stroke="#4BBF8E" stroke-width="1.5" stroke-linecap="round" stroke-linejoin="round"/>
</svg>
