<svg width="58" height="60" viewBox="0 0 58 60" fill="none" xmlns="http://www.w3.org/2000/svg">
<path fill-rule="evenodd" clip-rule="evenodd" d="M10.875 44.8902H9.0625C5.05844 44.8902 1.8125 41.6085 1.8125 37.5602V30.2303C1.8125 26.1821 5.05844 22.9004 9.0625 22.9004H10.875C11.876 22.9004 12.6875 23.7208 12.6875 24.7329V43.0577C12.6875 44.0697 11.876 44.8902 10.875 44.8902Z" stroke="#4BBF8E" stroke-width="1.5" stroke-linecap="round" stroke-linejoin="round"/>
<path fill-rule="evenodd" clip-rule="evenodd" d="M48.9375 44.8902H47.125C46.124 44.8902 45.3125 44.0697 45.3125 43.0577V24.7329C45.3125 23.7208 46.124 22.9004 47.125 22.9004H48.9375C52.9416 22.9004 56.1875 26.1821 56.1875 30.2303V37.5602C56.1875 41.6085 52.9416 44.8902 48.9375 44.8902Z" stroke="#4BBF8E" stroke-width="1.5" stroke-linecap="round" stroke-linejoin="round"/>
<path d="M9.0625 22.9004C9.0625 11.7678 17.9888 2.7431 29 2.7431V2.7431C34.2878 2.7431 39.3589 4.86681 43.0979 8.64704C46.8369 12.4273 48.9375 17.5544 48.9375 22.9004" stroke="#4BBF8E" stroke-width="1.5" stroke-linecap="round" stroke-linejoin="round"/>
<path d="M36.25 54.0525H41.6875C45.6916 54.0525 48.9375 50.7708 48.9375 46.7226V46.7226V44.8901" stroke="#4BBF8E" stroke-width="1.5" stroke-linecap="round" stroke-linejoin="round"/>
<path fill-rule="evenodd" clip-rule="evenodd" d="M32.625 57.7175H29C26.998 57.7175 25.375 56.0766 25.375 54.0525V54.0525C25.375 52.0284 26.998 50.3876 29 50.3876H32.625C34.627 50.3876 36.25 52.0284 36.25 54.0525V54.0525C36.25 56.0766 34.627 57.7175 32.625 57.7175Z" stroke="#4BBF8E" stroke-width="1.5" stroke-linecap="round" stroke-linejoin="round"/>
<path d="M21.75 38.6401C25.8584 42.4252 32.1416 42.4252 36.25 38.6401" stroke="#4BBF8E" stroke-width="1.5" stroke-linecap="round" stroke-linejoin="round"/>
<path d="M21.75 25.307V28.5126" stroke="#4BBF8E" stroke-width="1.5" stroke-linecap="round" stroke-linejoin="round"/>
<path d="M36.25 25.307V28.5126" stroke="#4BBF8E" stroke-width="1.5" stroke-linecap="round" stroke-linejoin="round"/>
</svg>
