<svg width="388" height="38" viewBox="0 0 388 38" fill="none" xmlns="http://www.w3.org/2000/svg">
<g clip-path="url(#clip0_86_275)">
<path d="M247.783 17.07C246.997 8.53351 240.753 3.53685 233.1 3.53685C225.388 3.53685 219.198 8.58544 218.41 17.07H247.783ZM214.155 18.9451C214.155 7.857 222.339 -0.00292969 233.094 -0.00292969C244.112 -0.00292969 251.982 7.80507 251.982 19.2567C251.982 19.8337 251.876 20.5059 251.194 20.5059H218.353C219.035 29.1995 225.331 34.4054 233.618 34.4054C239.287 34.4054 243.9 31.8537 246.577 27.6374C246.645 27.4899 246.757 27.3663 246.897 27.2829C247.037 27.1995 247.2 27.1601 247.363 27.17H250.406C250.878 27.17 251.088 27.4297 250.931 27.8465C248.413 33.0019 242.486 38 233.618 38C222.338 38 214.153 30.0347 214.153 18.948" fill="white"/>
<path d="M273.587 34.3549C281.874 34.3549 288.643 28.3687 288.643 18.948C288.643 9.47399 281.875 3.64359 273.587 3.64359C265.3 3.64359 258.582 9.47399 258.582 18.9451C258.582 28.3658 265.297 34.352 273.587 34.352V34.3549ZM254.437 18.9451C254.437 7.857 262.779 -0.00292969 273.587 -0.00292969C284.396 -0.00292969 292.735 7.85989 292.735 18.9451C292.735 30.0304 284.395 38 273.587 38C262.78 38 254.437 30.0347 254.437 18.9451Z" fill="white"/>
<path d="M328.348 26.1314V1.82172C328.348 1.14521 328.715 0.780273 329.397 0.780273H331.233C331.915 0.780273 332.283 1.14521 332.283 1.82172V25.7665C332.283 31.3358 334.592 33.6264 340.415 33.6264H350.75C351.432 33.6264 351.8 33.9913 351.8 34.6678V36.1766C351.8 36.8546 351.432 37.2181 350.75 37.2181H339.418C332.231 37.2181 328.348 33.2629 328.348 26.1314Z" fill="white"/>
<path d="M383.802 17.07C383.015 8.53351 376.771 3.53685 369.119 3.53685C361.405 3.53685 355.216 8.58544 354.428 17.07H383.802ZM350.173 18.9451C350.173 7.857 358.358 -0.00292969 369.113 -0.00292969C380.13 -0.00292969 387.999 7.80507 387.999 19.2567C387.999 19.8337 387.894 20.5059 387.212 20.5059H354.37C355.052 29.1995 361.348 34.4054 369.635 34.4054C375.304 34.4054 379.917 31.8537 382.592 27.6374C382.661 27.4899 382.773 27.3664 382.913 27.283C383.054 27.1996 383.217 27.1602 383.38 27.17H386.423C386.895 27.17 387.105 27.4297 386.948 27.8465C384.43 32.999 378.501 37.9971 369.635 37.9971C358.355 37.9971 350.17 30.0318 350.17 18.9451" fill="white"/>
<path d="M182.322 35.7713V10.0394C182.322 4.10658 185.571 0.985107 191.499 0.985107H197.169C207.068 0.985107 211.192 5.53893 211.192 13.1609C211.192 20.7323 207.068 25.1823 197.169 25.1823H186.187V35.7713C186.187 36.4363 185.827 36.794 185.157 36.794H183.352C182.684 36.794 182.322 36.4363 182.322 35.7713ZM196.547 21.755C203.147 21.755 207.117 20.2202 207.117 13.2113C207.117 6.20246 203.147 4.41238 196.547 4.41238H191.341C188.041 4.41238 186.184 6.10149 186.184 9.47683V21.755H196.547Z" fill="white"/>
<path d="M295.663 35.7713V10.0394C295.663 4.10658 298.911 0.985107 304.839 0.985107H310.509C320.408 0.985107 324.532 5.53893 324.532 13.1609C324.532 20.7323 320.408 25.1823 310.509 25.1823H299.527V35.7713C299.527 36.4363 299.167 36.794 298.496 36.794H296.692C296.024 36.794 295.663 36.4363 295.663 35.7713ZM309.892 21.755C316.491 21.755 320.461 20.2202 320.461 13.2113C320.461 6.20246 316.491 4.41238 309.892 4.41238H304.685C301.385 4.41238 299.529 6.10149 299.529 9.47683V21.755H309.892Z" fill="white"/>
<path d="M50.1968 4.55372V1.21011C50.1964 0.895512 50.0702 0.593929 49.8458 0.371609C49.6215 0.149289 49.3174 0.0244138 49.0003 0.0244141H44.2204C44.0635 0.0244141 43.9081 0.0550829 43.7631 0.11467C43.6181 0.174257 43.4864 0.261594 43.3754 0.371696C43.2644 0.481798 43.1764 0.612509 43.1164 0.756364C43.0563 0.90022 43.0254 1.0544 43.0254 1.21011V19.4961C46.0405 14.1489 45.8195 8.07763 50.1968 4.55372Z" fill="white"/>
<path d="M37.0505 0H32.272C31.9551 0 31.6512 0.124921 31.427 0.347282C31.2029 0.569643 31.077 0.871231 31.077 1.1857V18.974C31.0752 20.5404 30.761 22.0909 30.1525 23.5362C29.544 24.9816 28.6534 26.2932 27.5318 27.3954C26.4102 28.4977 25.0798 29.3689 23.6174 29.9588C22.155 30.5486 20.5894 30.8456 19.0108 30.8324C12.4311 30.769 7.17722 25.3511 7.17722 18.8226V1.1857C7.17722 0.871231 7.05131 0.569643 6.82721 0.347282C6.60311 0.124921 6.29916 0 5.98223 0H1.19499C0.87806 0 0.574108 0.124921 0.350004 0.347282C0.1259 0.569643 0 0.871231 0 1.1857V18.7908C0 29.2789 8.49723 37.9192 19.0675 37.9481C29.6378 37.9769 38.2455 29.4549 38.2455 18.974V1.1857C38.2452 0.871348 38.1191 0.569982 37.8951 0.347703C37.6711 0.125425 37.3674 0.000381724 37.0505 0Z" fill="white"/>
<path d="M62.1482 0H62.0944C51.5241 0.0288491 43.0254 8.66915 43.0254 19.1572V36.7552C43.0254 37.0696 43.1513 37.3712 43.3754 37.5936C43.5995 37.8159 43.9035 37.9409 44.2204 37.9409H49.0018C49.3187 37.9409 49.6227 37.8159 49.8468 37.5936C50.0709 37.3712 50.1968 37.0696 50.1968 36.7552V18.974C50.1987 17.4077 50.5129 15.8572 51.1213 14.4118C51.7298 12.9665 52.6205 11.6549 53.7421 10.5526C54.8637 9.45036 56.194 8.57918 57.6564 7.9893C59.1188 7.39942 60.6844 7.10249 62.263 7.11562C68.8427 7.17909 74.0966 12.5969 74.0966 19.1255V36.7624C74.0966 37.0768 74.2225 37.3784 74.4466 37.6008C74.6707 37.8232 74.9747 37.9481 75.2916 37.9481H80.073C80.39 37.9481 80.6939 37.8232 80.918 37.6008C81.1421 37.3784 81.268 37.0768 81.268 36.7624V18.974C81.2709 8.51192 72.6865 0.00144245 62.1482 0Z" fill="white"/>
<path d="M158.358 0C147.814 0 139.235 8.51048 139.235 18.974C139.235 29.4376 147.813 37.9481 158.358 37.9481C168.904 37.9481 177.481 29.4376 177.481 18.974C177.481 8.51048 168.902 0 158.358 0ZM158.358 30.8324C155.994 30.8324 153.684 30.137 151.718 28.8339C149.753 27.5309 148.221 25.6789 147.317 23.5121C146.412 21.3452 146.175 18.9609 146.636 16.6606C147.098 14.3603 148.236 12.2473 149.907 10.5889C151.579 8.93044 153.708 7.80104 156.027 7.34348C158.345 6.88592 160.748 7.12076 162.932 8.01829C165.116 8.91583 166.982 10.4357 168.295 12.3859C169.609 14.336 170.309 16.6287 170.309 18.974C170.306 22.118 169.046 25.1323 166.805 27.3554C164.565 29.5785 161.527 30.829 158.358 30.8324Z" fill="white"/>
<path d="M92.0272 0H87.2458C86.5858 0 86.0508 0.530855 86.0508 1.1857V36.7624C86.0508 37.4172 86.5858 37.9481 87.2458 37.9481H92.0272C92.6872 37.9481 93.2222 37.4172 93.2222 36.7624V1.1857C93.2222 0.530855 92.6872 0 92.0272 0Z" fill="white"/>
<path d="M133.634 24.3169H127.943C127.722 24.3159 127.505 24.3723 127.313 24.4803C127.122 24.5884 126.962 24.7444 126.849 24.9328C125.529 27.1819 123.5 28.9373 121.075 29.9284C118.649 30.9194 115.963 31.0908 113.429 30.4163C110.896 29.7417 108.656 28.2587 107.057 26.196C105.457 24.1332 104.586 21.6055 104.579 19.0029C104.571 16.4003 105.426 13.8674 107.013 11.7952C108.6 9.723 110.831 8.22659 113.36 7.53694C115.889 6.84729 118.577 7.00272 121.008 7.97925C123.44 8.95578 125.479 10.6991 126.813 12.9402C126.936 13.1444 127.11 13.3134 127.318 13.4308C127.526 13.5481 127.761 13.6097 128.001 13.6095H133.607C133.753 13.6094 133.898 13.5741 134.028 13.5064C134.158 13.4388 134.27 13.3409 134.354 13.2211C134.437 13.1014 134.491 12.9633 134.509 12.8187C134.527 12.6741 134.51 12.5272 134.458 12.3907C133.06 8.64755 130.508 5.43693 127.165 3.21493C123.823 0.992926 119.86 -0.127446 115.839 0.0129785C105.808 0.36638 97.7088 8.46431 97.4239 18.4172C97.1172 29.1246 105.806 37.9336 116.531 37.9336C120.442 37.9294 124.258 36.7366 127.466 34.5157C130.673 32.2948 133.118 29.1523 134.472 25.5112C134.522 25.3772 134.539 25.2332 134.52 25.0913C134.502 24.9495 134.45 24.8141 134.368 24.6968C134.285 24.5794 134.176 24.4836 134.048 24.4174C133.92 24.3513 133.778 24.3168 133.634 24.3169Z" fill="white"/>
</g>
<defs>
<clipPath id="clip0_86_275">
<rect width="388" height="38" fill="white"/>
</clipPath>
</defs>
</svg>
