<?xml version="1.0" encoding="UTF-8"?><svg id="a" xmlns="http://www.w3.org/2000/svg" viewBox="0 0 2883.71 506"><defs><style>.b{fill:#3eb17d;}.c{fill:#343434;}</style></defs><g><path class="c" d="M1818.44,240.02c-5.41-59.19-48.36-93.83-101.04-93.83s-95.63,35-101.04,93.83h202.09Zm-231.32,12.99c0-76.86,56.29-131.36,130.28-131.36s129.92,54.13,129.92,133.52c0,3.97-.73,8.66-5.41,8.66h-225.91c4.69,60.26,48,96.36,105.02,96.36,38.98,0,70.73-17.69,89.14-46.92,1.08-2.16,2.88-3.24,5.41-3.24h20.93c3.25,0,4.69,1.8,3.61,4.69-17.33,35.73-58.1,70.37-119.09,70.37-77.59,0-133.89-55.22-133.89-132.08"/><path class="c" d="M1995.94,359.83c57.01,0,103.57-41.5,103.57-106.82s-46.55-106.1-103.57-106.1-103.22,40.42-103.22,106.1,46.19,106.82,103.22,106.82m-131.72-106.82c0-76.86,57.38-131.36,131.72-131.36s131.72,54.49,131.72,131.36-57.37,132.08-131.72,132.08-131.72-55.22-131.72-132.08"/><path class="c" d="M2372.62,302.82V134.29c0-4.69,2.52-7.22,7.22-7.22h12.63c4.69,0,7.22,2.52,7.22,7.22v166c0,38.61,15.87,54.49,55.94,54.49h71.09c4.69,0,7.22,2.52,7.22,7.22v10.46c0,4.69-2.53,7.22-7.22,7.22h-77.95c-49.44,0-76.15-27.42-76.15-76.87"/><path class="c" d="M2754.07,240.02c-5.41-59.19-48.36-93.83-101.04-93.83s-95.63,35-101.04,93.83h202.09Zm-231.32,12.99c0-76.86,56.29-131.36,130.28-131.36s129.92,54.13,129.92,133.52c0,3.97-.73,8.66-5.41,8.66h-225.91c4.69,60.26,47.99,96.36,105.01,96.36,38.98,0,70.73-17.69,89.14-46.92,1.08-2.16,2.88-3.24,5.41-3.24h20.93c3.25,0,4.69,1.8,3.61,4.69-17.32,35.73-58.1,70.37-119.09,70.37-77.59,0-133.89-55.22-133.89-132.08"/><path class="c" d="M1368.15,369.65V191.26c0-41.14,22.34-62.77,63.13-62.77h39.01c68.09,0,96.46,31.56,96.46,84.41s-28.37,83.34-96.46,83.34h-75.54v73.41c0,4.61-2.48,7.09-7.09,7.09h-12.41c-4.61,0-7.09-2.48-7.09-7.09Zm97.88-97.17c45.39,0,72.7-10.64,72.7-59.22s-27.31-61-72.7-61h-35.82c-22.7,0-35.46,11.7-35.46,35.11v85.11h71.28Z"/><path class="c" d="M2147.79,369.65V191.26c0-41.14,22.34-62.77,63.13-62.77h39.01c68.09,0,96.46,31.56,96.46,84.41s-28.37,83.34-96.46,83.34h-75.54v73.41c0,4.61-2.48,7.09-7.09,7.09h-12.41c-4.61,0-7.09-2.48-7.09-7.09Zm97.88-97.17c45.39,0,72.7-10.64,72.7-59.22s-27.31-61-72.7-61h-35.82c-22.7,0-35.46,11.7-35.46,35.11v85.11h71.28Z"/></g><g><path class="b" d="M459.3,153.23v-23.19c0-4.54-3.68-8.22-8.22-8.22h-32.89c-4.54,0-8.22,3.68-8.22,8.22v126.77c20.74-37.08,19.22-79.16,49.33-103.59Z"/><path class="c" d="M368.87,121.66h-32.89c-4.54,0-8.22,3.68-8.22,8.22v123.32c0,45.6-37.32,82.65-83.02,82.21-45.26-.44-81.4-37.99-81.4-83.25v-122.27c0-4.54-3.68-8.22-8.22-8.22h-32.89c-4.54,0-8.22,3.68-8.22,8.22v122.04c0,72.71,58.45,132.61,131.17,132.81,72.7,.2,131.91-58.88,131.91-131.54v-123.32c0-4.54-3.68-8.22-8.22-8.22Z"/><path class="c" d="M541.51,121.66s0,0,0,0h-.38c-72.71,.2-131.17,60.1-131.17,132.81v122.05c0,4.54,3.68,8.22,8.22,8.22h32.89c4.54,0,8.22-3.68,8.22-8.22v-123.32c0-45.6,37.32-82.65,83.02-82.21,45.26,.44,81.4,38,81.4,83.26v122.27c0,4.54,3.68,8.22,8.22,8.22h32.89c4.54,0,8.22-3.68,8.22-8.22v-123.32c0-72.53-59.01-131.53-131.53-131.54Z"/><path class="c" d="M1203.31,121.66c-72.53,0-131.54,59.01-131.54,131.54s59.01,131.54,131.54,131.54,131.54-59.01,131.54-131.54-59.01-131.54-131.54-131.54Zm0,213.75c-45.33,0-82.21-36.88-82.21-82.21s36.88-82.21,82.21-82.21,82.21,36.88,82.21,82.21-36.88,82.21-82.21,82.21Z"/><path class="c" d="M714.16,121.66h32.89c4.54,0,8.22,3.68,8.22,8.22v246.64c0,4.54-3.68,8.22-8.22,8.22h-32.88c-4.54,0-8.22-3.68-8.22-8.22V129.88c0-4.54,3.68-8.22,8.22-8.22Z"/><path class="c" d="M1033.24,290.24h-39.15c-3.09,0-5.96,1.61-7.52,4.27-14.3,24.44-40.85,40.89-71.17,40.82-43.85-.1-80.22-35.11-81.92-78.92-1.82-46.79,35.72-85.44,82.12-85.44,30.07,0,56.4,16.24,70.73,40.4,1.71,2.88,4.82,4.64,8.17,4.64h38.56c4.36,0,7.38-4.36,5.86-8.45-19.1-51.5-69.57-87.89-128.09-85.81-68.98,2.45-124.71,58.59-126.67,127.59-2.11,74.24,57.66,135.3,131.43,135.3,56.56,0,104.88-35.9,123.4-86.11,1.48-4.02-1.47-8.29-5.75-8.29Z"/></g><g><path class="b" d="M459.3,153.23v-23.19c0-4.54-3.68-8.22-8.22-8.22h-32.89c-4.54,0-8.22,3.68-8.22,8.22v126.77c20.74-37.08,19.22-79.16,49.33-103.59Z"/><path class="c" d="M368.87,121.66h-32.89c-4.54,0-8.22,3.68-8.22,8.22v123.32c0,45.6-37.32,82.65-83.02,82.21-45.26-.44-81.4-37.99-81.4-83.25v-122.27c0-4.54-3.68-8.22-8.22-8.22h-32.89c-4.54,0-8.22,3.68-8.22,8.22v122.04c0,72.71,58.45,132.61,131.17,132.81,72.7,.2,131.91-58.88,131.91-131.54v-123.32c0-4.54-3.68-8.22-8.22-8.22Z"/><path class="c" d="M541.51,121.66s0,0,0,0h-.38c-72.71,.2-131.17,60.1-131.17,132.81v122.05c0,4.54,3.68,8.22,8.22,8.22h32.89c4.54,0,8.22-3.68,8.22-8.22v-123.32c0-45.6,37.32-82.65,83.02-82.21,45.26,.44,81.4,38,81.4,83.26v122.27c0,4.54,3.68,8.22,8.22,8.22h32.89c4.54,0,8.22-3.68,8.22-8.22v-123.32c0-72.53-59.01-131.53-131.53-131.54Z"/><path class="c" d="M1203.31,121.66c-72.53,0-131.54,59.01-131.54,131.54s59.01,131.54,131.54,131.54,131.54-59.01,131.54-131.54-59.01-131.54-131.54-131.54Zm0,213.75c-45.33,0-82.21-36.88-82.21-82.21s36.88-82.21,82.21-82.21,82.21,36.88,82.21,82.21-36.88,82.21-82.21,82.21Z"/><path class="c" d="M714.16,121.66h32.89c4.54,0,8.22,3.68,8.22,8.22v246.64c0,4.54-3.68,8.22-8.22,8.22h-32.88c-4.54,0-8.22-3.68-8.22-8.22V129.88c0-4.54,3.68-8.22,8.22-8.22Z"/><path class="c" d="M1033.24,290.24h-39.15c-3.09,0-5.96,1.61-7.52,4.27-14.3,24.44-40.85,40.89-71.17,40.82-43.85-.1-80.22-35.11-81.92-78.92-1.82-46.79,35.72-85.44,82.12-85.44,30.07,0,56.4,16.24,70.73,40.4,1.71,2.88,4.82,4.64,8.17,4.64h38.56c4.36,0,7.38-4.36,5.86-8.45-19.1-51.5-69.57-87.89-128.09-85.81-68.98,2.45-124.71,58.59-126.67,127.59-2.11,74.24,57.66,135.3,131.43,135.3,56.56,0,104.88-35.9,123.4-86.11,1.48-4.02-1.47-8.29-5.75-8.29Z"/></g></svg>