<svg width="16" height="9" viewBox="0 0 16 9" fill="none" xmlns="http://www.w3.org/2000/svg">
<path opacity="0.65" d="M1.2459 2.43066C0.896175 2.43066 0.601093 2.31022 0.360656 2.06934C0.120219 1.82847 0 1.53285 0 1.18248C0 0.854015 0.120219 0.580292 0.360656 0.361314C0.601093 0.120438 0.896175 0 1.2459 0H14.7541C15.1038 0 15.3989 0.120438 15.6393 0.361314C15.8798 0.60219 16 0.897811 16 1.24818C16 1.57664 15.8798 1.86131 15.6393 2.10219C15.3989 2.32117 15.1038 2.43066 14.7541 2.43066H1.2459ZM1.2459 9C0.896175 9 0.601093 8.87956 0.360656 8.63869C0.120219 8.39781 0 8.10219 0 7.75182C0 7.42336 0.120219 7.14964 0.360656 6.93066C0.601093 6.68978 0.896175 6.56934 1.2459 6.56934H14.7541C15.1038 6.56934 15.3989 6.68978 15.6393 6.93066C15.8798 7.17153 16 7.46715 16 7.81752C16 8.14599 15.8798 8.43066 15.6393 8.67153C15.3989 8.89051 15.1038 9 14.7541 9H1.2459Z" fill="#00A5FF"/>
</svg>
