<svg width="42" height="42" viewBox="0 0 42 42" fill="none" xmlns="http://www.w3.org/2000/svg">
<path d="M35.7656 29.8594V33.7969C35.7656 34.8842 34.8842 35.7656 33.7969 35.7656H29.8594" stroke="#DF77B6" stroke-width="1.5" stroke-linecap="round" stroke-linejoin="round"/>
<path d="M29.8594 6.23438H33.7969C34.8842 6.23438 35.7656 7.11581 35.7656 8.20312V12.1406" stroke="#DF77B6" stroke-width="1.5" stroke-linecap="round" stroke-linejoin="round"/>
<path d="M6.23438 12.1406V8.20312C6.23438 7.11581 7.11581 6.23438 8.20312 6.23438H12.1406" stroke="#DF77B6" stroke-width="1.5" stroke-linecap="round" stroke-linejoin="round"/>
<path d="M12.1406 35.7656H8.20312C7.11581 35.7656 6.23438 34.8842 6.23438 33.7969V29.8594" stroke="#DF77B6" stroke-width="1.5" stroke-linecap="round" stroke-linejoin="round"/>
<path d="M17.0625 31.8281H14.5438C12.3692 31.8281 10.6063 30.0652 10.6063 27.8906L10.6168 18.5942C10.6147 15.839 11.7077 13.196 13.6552 11.2471C15.6026 9.29814 18.2448 8.20312 21 8.20312V8.20312C23.754 8.20312 26.3952 9.29724 28.3425 11.2448C30.2897 13.1923 31.3835 15.8336 31.3832 18.5876L31.3937 27.8841C31.3937 30.0587 29.6308 31.8216 27.4562 31.8216H24.9375" stroke="#CF0080" stroke-width="1.5" stroke-linecap="round" stroke-linejoin="round"/>
<path fill-rule="evenodd" clip-rule="evenodd" d="M20.9829 28.2544C24.3371 28.2544 27.0565 25.5357 27.0572 22.1815V18.8792C22.6026 18.0418 21 13.4888 21 13.4888C21 13.4888 19.3659 18.0418 14.9061 18.8792V22.1815C14.9057 23.7927 15.5455 25.338 16.6847 26.4774C17.8239 27.6169 19.3691 28.257 20.9803 28.257L20.9829 28.2544Z" stroke="#CF0080" stroke-width="1.5" stroke-linecap="round" stroke-linejoin="round"/>
<path d="M20.0156 24.3169H21.9844" stroke="#CF0080" stroke-width="1.5" stroke-linecap="round" stroke-linejoin="round"/>
</svg>
