<svg width="32" height="32" viewBox="0 0 32 32" fill="none" xmlns="http://www.w3.org/2000/svg">
<path fill-rule="evenodd" clip-rule="evenodd" d="M23.237 8.20438C22.9537 7.82908 22.5091 7.60822 22.037 7.60822H10.037C9.56486 7.60822 9.12028 7.82908 8.837 8.20438L5.5 12.6269C5.08309 13.1796 5.10295 13.9444 5.548 14.475L14.886 25.7027C15.171 26.0409 15.5921 26.2362 16.036 26.2362C16.4799 26.2362 16.901 26.0409 17.186 25.7027L26.524 14.475C26.969 13.9444 26.9889 13.1796 26.572 12.6269L23.237 8.20438Z" stroke="#CF0080" stroke-width="1.5" stroke-linecap="round" stroke-linejoin="round"/>
<path d="M9.349 7.77414L16.037 26.2383" stroke="#CF0080" stroke-width="1.5" stroke-linecap="round" stroke-linejoin="round"/>
<path d="M22.724 7.77414L16.037 26.2383" stroke="#CF0080" stroke-width="1.5" stroke-linecap="round" stroke-linejoin="round"/>
<path d="M5.198 13.5698H26.871" stroke="#CF0080" stroke-width="1.5" stroke-linecap="round" stroke-linejoin="round"/>
<path d="M11.537 13.5698L16.037 7.60822L20.537 13.5698" stroke="#CF0080" stroke-width="1.5" stroke-linecap="round" stroke-linejoin="round"/>
</svg>
