<svg width="32" height="32" viewBox="0 0 32 32" fill="none" xmlns="http://www.w3.org/2000/svg">
<path fill-rule="evenodd" clip-rule="evenodd" d="M15.5298 4.10174C15.6193 3.9242 15.8012 3.81219 16 3.81219C16.1988 3.81219 16.3807 3.9242 16.4702 4.10174L17.5632 6.30524C17.6399 6.45856 17.7868 6.56459 17.9565 6.58908L20.4092 6.94333C20.6046 6.97077 20.7677 7.10623 20.8306 7.29324C20.8923 7.47967 20.8413 7.68496 20.6995 7.82083L18.925 9.54766C18.8033 9.66504 18.7474 9.83487 18.7755 10.0016L19.1958 12.4358C19.2282 12.6302 19.1466 12.8259 18.9857 12.9396C18.8237 13.0552 18.6105 13.0699 18.4342 12.9775L16.2448 11.8357C16.0917 11.7544 15.9083 11.7544 15.7552 11.8357L13.5712 12.9775C13.3949 13.0699 13.1817 13.0552 13.0197 12.9396C12.8589 12.8259 12.7772 12.6302 12.8096 12.4358L13.2299 10.0016C13.258 9.83487 13.2021 9.66504 13.0804 9.54766L11.3005 7.82083C11.1587 7.68496 11.1077 7.47967 11.1694 7.29324C11.2323 7.10623 11.3954 6.97077 11.5908 6.94333L14.0435 6.58908C14.2132 6.56459 14.3601 6.45856 14.4367 6.30524L15.5298 4.10174Z" stroke="#CF0080" stroke-width="1.5" stroke-linecap="round" stroke-linejoin="round"/>
<path d="M9.84882 13.9417L8.9139 13.4542C8.76014 13.374 8.57692 13.374 8.42315 13.4542L6.24024 14.5917C6.06369 14.6838 5.85049 14.6696 5.68774 14.5548C5.52686 14.4407 5.4456 14.2445 5.47865 14.05L5.8979 11.6168C5.92666 11.4503 5.87108 11.2803 5.74949 11.1629L3.96849 9.43933C3.82757 9.30295 3.77707 9.09799 3.83849 8.91175C3.90138 8.72473 4.06451 8.58928 4.2599 8.56184L6.71149 8.20758C6.88155 8.18343 7.02893 8.07735 7.10582 7.92375L8.19999 5.72025C8.28916 5.54246 8.47125 5.43044 8.67015 5.431" stroke="#CF0080" stroke-width="1.5" stroke-linecap="round" stroke-linejoin="round"/>
<path d="M22.1512 13.9417L23.0861 13.4531C23.2398 13.3729 23.4231 13.3729 23.5768 13.4531L25.7597 14.5917C25.9363 14.6838 26.1495 14.6696 26.3122 14.5548C26.4731 14.4407 26.5544 14.2445 26.5213 14.05L26.1021 11.6168C26.0733 11.4503 26.1289 11.2803 26.2505 11.1629L28.0315 9.435C28.1724 9.29862 28.2229 9.09366 28.1615 8.90742C28.0986 8.7204 27.9355 8.58495 27.7401 8.5575L25.2885 8.20325C25.1184 8.1791 24.971 8.07302 24.8942 7.91942L23.8 5.72025C23.7108 5.54246 23.5287 5.43044 23.3298 5.431" stroke="#CF0080" stroke-width="1.5" stroke-linecap="round" stroke-linejoin="round"/>
<path d="M21.4459 28.1799C20.0722 26.6097 18.0874 25.709 16.0011 25.709C13.9148 25.709 11.93 26.6097 10.5562 28.1799" stroke="#CF0080" stroke-width="1.5" stroke-linecap="round" stroke-linejoin="round"/>
<path fill-rule="evenodd" clip-rule="evenodd" d="M16 24.0827C18.468 24.0827 20.4688 22.082 20.4688 19.614C20.4688 17.146 18.468 15.1452 16 15.1452C13.532 15.1452 11.5312 17.146 11.5312 19.614C11.5312 22.082 13.532 24.0827 16 24.0827Z" stroke="#CF0080" stroke-width="1.5" stroke-linecap="round" stroke-linejoin="round"/>
</svg>
