<svg width="26" height="26" viewBox="0 0 26 26" fill="none" xmlns="http://www.w3.org/2000/svg">
<path d="M8.5 17.8811C11.0498 20.2053 14.9502 20.2053 17.5 17.8811" stroke="#00A5FF" stroke-width="2" stroke-linecap="round" stroke-linejoin="round"/>
<path d="M7.75 7.62402V9.87402" stroke="#00A5FF" stroke-width="2" stroke-linecap="round" stroke-linejoin="round"/>
<path d="M18.25 7.62402V9.87402" stroke="#00A5FF" stroke-width="2" stroke-linecap="round" stroke-linejoin="round"/>
<path d="M13 7.62402V12.874C13 13.7025 12.3284 14.374 11.5 14.374H10.75" stroke="#00A5FF" stroke-width="2" stroke-linecap="round" stroke-linejoin="round"/>
<path d="M24.25 19.624V22.624C24.25 23.4525 23.5784 24.124 22.75 24.124H19.75" stroke="#00A5FF" stroke-width="2" stroke-linecap="round" stroke-linejoin="round"/>
<path d="M19.75 1.62402H22.75C23.5784 1.62402 24.25 2.2956 24.25 3.12402V6.12402" stroke="#00A5FF" stroke-width="2" stroke-linecap="round" stroke-linejoin="round"/>
<path d="M1.75 6.12402V3.12402C1.75 2.2956 2.42157 1.62402 3.25 1.62402H6.25" stroke="#00A5FF" stroke-width="2" stroke-linecap="round" stroke-linejoin="round"/>
<path d="M6.25 24.124H3.25C2.42157 24.124 1.75 23.4525 1.75 22.624V19.624" stroke="#00A5FF" stroke-width="2" stroke-linecap="round" stroke-linejoin="round"/>
</svg>
