<svg width="42" height="42" viewBox="0 0 42 42" fill="none" xmlns="http://www.w3.org/2000/svg">
<path d="M11.0517 19.4331L11.0524 19.4317M11.0517 19.4331C10.4138 19.0481 10.5276 18.4199 10.5515 18.019C7.96568 18.9821 8.40895 19.103 7.02225 18.9209C6.45676 18.8848 6.0149 18.4352 5.99593 17.8744C6.0725 17.4095 5.43746 18.1399 4.7413 17.3887C4.33948 16.7716 2.66196 15.6104 3.11155 14.7153L3.63911 13.2546C3.76907 12.8961 4.08378 12.6278 4.46171 12.5542C6.6661 12.1261 6.5537 12.1629 6.55791 12.1198C6.77077 10.042 6.84523 9.36447 6.85436 9.20116C6.65837 8.28944 6.06899 6.80927 7.46271 6.5466C8.11672 6.50143 9.35941 6.02402 9.84412 6.69809L10.6829 7.65081C10.6948 7.66402 10.7145 7.6668 10.7299 7.65846C11.9206 6.99412 11.9017 7.02678 11.8862 6.97883L11.5357 5.91353C11.3278 5.28186 11.7366 4.61474 12.399 4.50564L15.1633 4.04977C15.6993 3.96152 16.2135 4.26728 16.3856 4.77804L17.1668 7.09558C17.1843 7.14839 17.1429 7.13588 18.6975 6.77592C18.8366 6.18316 19.4344 5.67031 20.1017 5.87045C20.1404 5.86141 21.6914 6.3416 21.7188 6.28392L22.1214 5.7259C22.6293 5.02196 23.7279 5.16094 24.0405 5.96912C24.5534 7.29641 24.802 7.99063 24.8997 8.16574C25.9604 8.68693 29.482 10.4096 30.28 10.821C33.1812 10.682 33.3365 10.5868 33.7664 10.9482C35.7495 12.6174 36.5777 13.3408 36.8088 13.4944C37.6623 13.4555 38.5952 13.4485 38.6802 14.4527C38.9254 17.2851 39.2043 16.5443 38.6184 17.4985L34.4808 21.5547C32.9796 28.467 33.5423 25.4483 30.8441 29.756C30.6551 30.0243 30.3572 30.1931 30.0271 30.2181C27.7679 30.3898 26.8062 30.4468 26.5653 30.4906C25.5635 31.355 25.036 31.79 24.9074 31.9318C24.6018 33.5961 24.7212 34.011 24.3131 34.4203L21.0964 37.644C20.6721 38.0693 19.976 38.0748 19.5447 37.6551C16.3449 34.4787 15.7372 34.9137 19.6781 32.0235C19.6339 31.4551 18.9131 29.7039 18.7291 29.1285L18.4453 28.2856C18.4404 28.271 18.4263 28.2606 18.4109 28.2599C17.6613 28.2995 16.7902 28.1536 16.6996 27.2592C16.2739 22.9702 16.3147 23.1863 16.2613 23.1863C14.8359 23.2968 14.8893 21.7722 14.5086 20.8222C11.5989 19.8355 12.1363 20.1141 11.0517 19.4331Z" stroke="#CF0080" stroke-width="2" stroke-linecap="round" stroke-linejoin="round"/>
<path opacity="0.5" d="M20 12H20.01" stroke="#CF0080" stroke-width="2" stroke-linecap="round" stroke-linejoin="round"/>
<path opacity="0.5" d="M27 16H27.01" stroke="#CF0080" stroke-width="2" stroke-linecap="round" stroke-linejoin="round"/>
<path opacity="0.5" d="M34 17H34.01" stroke="#CF0080" stroke-width="2" stroke-linecap="round" stroke-linejoin="round"/>
<path opacity="0.5" d="M22 23H22.01" stroke="#CF0080" stroke-width="2" stroke-linecap="round" stroke-linejoin="round"/>
<path opacity="0.5" d="M28 25H28.01" stroke="#CF0080" stroke-width="2" stroke-linecap="round" stroke-linejoin="round"/>
<path opacity="0.5" d="M12 14H12.01" stroke="#CF0080" stroke-width="2" stroke-linecap="round" stroke-linejoin="round"/>
<path opacity="0.5" d="M18 17H18.01" stroke="#CF0080" stroke-width="2" stroke-linecap="round" stroke-linejoin="round"/>
</svg>
