<svg width="42" height="42" viewBox="0 0 42 42" fill="none" xmlns="http://www.w3.org/2000/svg">
<path opacity="0.6" d="M34.3388 14.3304H27.6693C26.7485 14.3304 26.002 13.5839 26.002 12.6631V5.99365" stroke="#CF0080" stroke-width="2" stroke-linecap="round" stroke-linejoin="round"/>
<path d="M10.9956 14.3304V9.32838C10.9956 7.48666 12.4886 5.99365 14.3303 5.99365H26.2886C27.173 5.99365 28.0211 6.3453 28.6463 6.97073L33.3616 11.686C33.987 12.3113 34.3387 13.1593 34.3387 14.0437V32.6714C34.3387 34.5131 32.8457 36.0061 31.0039 36.0061H14.3303C12.4886 36.0061 10.9956 34.5131 10.9956 32.6714V31.0041" stroke="#CF0080" stroke-width="2" stroke-linecap="round" stroke-linejoin="round"/>
<path d="M14.1323 19.856V23.114L16.6934 24.6747" stroke="#CF0080" stroke-width="2" stroke-linecap="round" stroke-linejoin="round"/>
<path d="M19.6673 14.3306H8.99365C7.3368 14.3306 5.99365 15.6737 5.99365 17.3306V28.0042C5.99365 29.661 7.3368 31.0042 8.99365 31.0042H19.6673C21.3241 31.0042 22.6673 29.661 22.6673 28.0042V17.3306C22.6673 15.6737 21.3241 14.3306 19.6673 14.3306Z" stroke="#CF0080" stroke-width="2" stroke-linecap="round" stroke-linejoin="round"/>
</svg>
