<svg width="42" height="42" viewBox="0 0 42 42" fill="none" xmlns="http://www.w3.org/2000/svg">
<path d="M5 34.7598H35" stroke="#CF0080" stroke-width="2" stroke-linecap="round" stroke-linejoin="round"/>
<path fill-rule="evenodd" clip-rule="evenodd" d="M12 27.0801H8C7.44772 27.0801 7 27.5099 7 28.0401V34.7601H13V28.0401C13 27.5099 12.5523 27.0801 12 27.0801Z" stroke="#CF0080" stroke-width="2" stroke-linecap="round" stroke-linejoin="round"/>
<path fill-rule="evenodd" clip-rule="evenodd" d="M22 17.48H18C17.4477 17.48 17 17.9098 17 18.44V34.76H23V18.44C23 17.9098 22.5523 17.48 22 17.48Z" stroke="#CF0080" stroke-width="2" stroke-linecap="round" stroke-linejoin="round"/>
<path fill-rule="evenodd" clip-rule="evenodd" d="M32 21.3198H28C27.4477 21.3198 27 21.7496 27 22.2798V34.7598H33V22.2798C33 21.7496 32.5523 21.3198 32 21.3198Z" stroke="#CF0080" stroke-width="2" stroke-linecap="round" stroke-linejoin="round"/>
<path d="M35 11.72V5.95996H29" stroke="#E37CBD" stroke-width="2" stroke-linecap="round" stroke-linejoin="round"/>
<path d="M35 5.95996L28.2667 12.424C27.4865 13.1731 26.3409 13.4504 25.284 13.1459L17.672 11.1926C16.6371 10.9274 15.5335 11.2118 14.776 11.9388L7 19.4038" stroke="#E37CBD" stroke-width="2" stroke-linecap="round" stroke-linejoin="round"/>
</svg>
