<svg width="32" height="32" viewBox="0 0 32 32" fill="none" xmlns="http://www.w3.org/2000/svg">
<path fill-rule="evenodd" clip-rule="evenodd" d="M21.8212 7.51117V13.7404H27.1367C27.4524 13.7332 27.7459 13.9025 27.8976 14.1794C28.0494 14.4563 28.0343 14.7947 27.8584 15.057L21.1009 24.9584C20.8879 25.27 20.4982 25.4085 20.1363 25.3015C19.7744 25.1944 19.5228 24.8662 19.5136 24.4889V18.2556H14.2007C13.885 18.2629 13.5916 18.0936 13.4398 17.8167C13.288 17.5398 13.3031 17.2013 13.479 16.9391L20.2339 7.04164C20.4469 6.73011 20.8365 6.59153 21.1984 6.69858C21.5603 6.80563 21.8119 7.13388 21.8212 7.51117V7.51117Z" stroke="#CF0080" stroke-width="2" stroke-linecap="round" stroke-linejoin="round"/>
<path opacity="0.5" d="M11.9983 24.0034H4.99537" stroke="#CF0080" stroke-width="2" stroke-linecap="round" stroke-linejoin="round"/>
<path opacity="0.5" d="M8.49693 16.6669H2.66116" stroke="#CF0080" stroke-width="2" stroke-linecap="round" stroke-linejoin="round"/>
<path opacity="0.5" d="M11.9983 9.33053H4.99537" stroke="#CF0080" stroke-width="2" stroke-linecap="round" stroke-linejoin="round"/>
</svg>
