<svg width="42" height="42" viewBox="0 0 42 42" fill="none" xmlns="http://www.w3.org/2000/svg">
<path d="M36.0063 36.0063L32.9316 32.9316" stroke="#CF0080" stroke-width="2" stroke-linecap="round" stroke-linejoin="round"/>
<path d="M27.9862 21C31.8446 21 34.9725 24.1278 34.9725 27.9862C34.9152 31.8207 31.8207 34.9152 27.9862 34.9725C24.1278 34.9725 21 31.8446 21 27.9862C21 24.1278 24.1278 21 27.9862 21Z" stroke="#CF0080" stroke-width="2" stroke-linecap="round" stroke-linejoin="round"/>
<path opacity="0.5" d="M5.99365 27.6694V31.0042C5.99365 32.8459 7.48666 34.3389 9.32837 34.3389H15.9978" stroke="#CF0080" stroke-width="2" stroke-linecap="round" stroke-linejoin="round"/>
<path opacity="0.5" d="M36.0064 17.6652V9.32838C36.0064 7.48666 34.5134 5.99365 32.6716 5.99365H22.6675" stroke="#CF0080" stroke-width="2" stroke-linecap="round" stroke-linejoin="round"/>
<path d="M30.362 26.7642L27.3925 29.7321L25.6084 27.953" stroke="#CF0080" stroke-width="2" stroke-linecap="round" stroke-linejoin="round"/>
<path fill-rule="evenodd" clip-rule="evenodd" d="M17.6652 20.1662H6.82733C6.3669 20.1662 5.99365 19.793 5.99365 19.3325V18.6556C5.99915 16.7296 7.55911 15.1696 9.48511 15.1641H15.0074C16.9334 15.1696 18.4934 16.7296 18.4989 18.6556V19.3325C18.4989 19.793 18.1256 20.1662 17.6652 20.1662Z" stroke="#CF0080" stroke-width="2" stroke-linecap="round" stroke-linejoin="round"/>
<path fill-rule="evenodd" clip-rule="evenodd" d="M12.2463 10.9956C10.4063 10.9956 8.91407 9.5053 8.91162 7.66533C8.90918 5.82535 10.3975 4.33109 12.2375 4.32618C14.0774 4.32129 15.5737 5.8076 15.5811 7.64756C15.5846 8.53429 15.2348 9.38592 14.6091 10.0142C13.9833 10.6425 13.1331 10.9956 12.2463 10.9956Z" stroke="#CF0080" stroke-width="2" stroke-linecap="round" stroke-linejoin="round"/>
</svg>
