<svg width="32" height="32" viewBox="0 0 32 32" fill="none" xmlns="http://www.w3.org/2000/svg">
<path opacity="0.5" d="M17.2534 14.7466L7.82669 24.1733" stroke="#CF0080" stroke-width="2" stroke-linecap="round" stroke-linejoin="round"/>
<path d="M8.844 17.332L4.22666 16.2413C3.71866 16.1213 3.54 15.4907 3.908 15.1213L7.58 11.4493C7.82666 11.2027 8.16133 11.0613 8.512 11.0587L12.652 11.0227" stroke="#CF0080" stroke-width="2" stroke-linecap="round" stroke-linejoin="round"/>
<path fill-rule="evenodd" clip-rule="evenodd" d="M26.5053 11.9667L27.5826 6.78268C27.876 5.37201 26.628 4.12401 25.2173 4.41735L20.0333 5.49468C18.5066 5.81201 17.1066 6.56801 16.0053 7.67068L11.752 11.9227C10.1293 13.5453 9.07329 15.6493 8.73995 17.92L8.72529 18.0173C8.51462 19.4667 8.99995 20.9293 10.0346 21.9653V21.9653C11.0693 23 12.5333 23.4853 13.9826 23.2733L14.08 23.2587C16.3506 22.9267 18.4546 21.8693 20.0773 20.2467L24.3293 15.9947C25.432 14.8933 26.188 13.4933 26.5053 11.9667V11.9667Z" stroke="#CF0080" stroke-width="2" stroke-linecap="round" stroke-linejoin="round"/>
<path d="M17.8666 6.28534C20.948 8.38667 23.6133 11.052 25.7146 14.1333" stroke="#CF0080" stroke-width="2" stroke-linecap="round" stroke-linejoin="round"/>
<path d="M14.6666 23.156L15.7573 27.7733C15.8773 28.2813 16.5079 28.46 16.8773 28.092L20.5493 24.42C20.7959 24.1733 20.9373 23.8386 20.9399 23.488L20.9759 19.348" stroke="#CF0080" stroke-width="2" stroke-linecap="round" stroke-linejoin="round"/>
</svg>
