<svg width="32" height="32" viewBox="0 0 32 32" fill="none" xmlns="http://www.w3.org/2000/svg">
<path opacity="0.5" d="M10.4833 15.3459L12.8245 18.6722C13.0049 18.941 13.3039 19.1062 13.6275 19.1158C13.9511 19.1255 14.2594 18.9785 14.4556 18.7209L21.9501 9.23511" stroke="#CF0080" stroke-width="2" stroke-linecap="round" stroke-linejoin="round"/>
<path fill-rule="evenodd" clip-rule="evenodd" d="M6.89995 5.49994C6.10834 5.49994 5.46661 6.14167 5.46661 6.93328V15.5333C5.46661 20.1324 12.3791 25.2504 14.7289 26.7707C15.1975 27.0764 15.8025 27.0764 16.2711 26.7707C18.6208 25.2504 25.5334 20.1324 25.5334 15.5333V6.93328C25.5334 6.55313 25.3824 6.18856 25.1135 5.91975C24.8447 5.65095 24.4802 5.49994 24.1 5.49994H6.89995Z" stroke="#CF0080" stroke-width="2" stroke-linecap="round" stroke-linejoin="round"/>
</svg>
