<svg width="32" height="32" viewBox="0 0 32 32" fill="none" xmlns="http://www.w3.org/2000/svg">
<path fill-rule="evenodd" clip-rule="evenodd" d="M21.25 27.1013C24.5637 27.1013 27.25 24.4322 27.25 21.1396C27.25 17.8471 24.5637 15.178 21.25 15.178C17.9363 15.178 15.25 17.8471 15.25 21.1396C15.25 24.4322 17.9363 27.1013 21.25 27.1013Z" stroke="#CF0080" stroke-width="1.5" stroke-linecap="round" stroke-linejoin="round"/>
<path d="M21.25 18.1588V21.8848H23.286" stroke="#DF77B6" stroke-width="1.5" stroke-linecap="round" stroke-linejoin="round"/>
<path d="M23.5 9.96162V5.85605C23.4945 5.23978 22.9893 4.74354 22.369 4.7452H5.875C5.25783 4.74299 4.75495 5.23688 4.75 5.85009V19.2826C4.75549 19.899 5.26058 20.3956 5.881 20.3944H12.25" stroke="#CF0080" stroke-width="1.5" stroke-linecap="round" stroke-linejoin="round"/>
<path d="M4.75 8.47121H23.5" stroke="#CF0080" stroke-width="1.5" stroke-linecap="round" stroke-linejoin="round"/>
<path d="M15.036 14.4328L17.286 12.9424" stroke="#DF77B6" stroke-width="1.5" stroke-linecap="round" stroke-linejoin="round"/>
<path d="M27.036 14.4328L24.786 12.9424" stroke="#DF77B6" stroke-width="1.5" stroke-linecap="round" stroke-linejoin="round"/>
</svg>
