<svg width="174" height="120" viewBox="0 0 174 120" fill="none" xmlns="http://www.w3.org/2000/svg">
<rect opacity="0.7" width="112.503" height="68.9093" rx="8" transform="matrix(-0.866044 0.499967 0.866044 0.499967 113.603 29.2993)" fill="url(#paint0_linear)"/>
<rect width="111.324" height="70.5956" rx="5.42466" transform="matrix(-0.866025 0.5 0.866025 0.5 111.787 8.87778)" fill="white"/>
<rect opacity="0.1" width="91.4123" height="28.9623" rx="5.42466" transform="matrix(-0.866025 0.5 0.866025 0.5 131.383 30.146)" fill="#00A5FF"/>
<rect opacity="0.1" width="29.8674" height="29.8674" rx="5.42466" transform="matrix(-0.866025 0.5 0.866025 0.5 41.4448 38.9519)" fill="url(#paint1_linear)"/>
<rect opacity="0.1" width="44.3486" height="3.62029" rx="1.81014" transform="matrix(-0.866025 0.5 0.866025 0.5 114.139 19.2854)" fill="url(#paint2_linear)"/>
<rect opacity="0.5" width="44.3486" height="3.62029" rx="1.81014" transform="matrix(-0.866025 0.5 0.866025 0.5 113.203 18.0815)" fill="#00A5FF"/>
<rect opacity="0.5" width="30.7725" height="3.62029" rx="1.81014" transform="matrix(-0.866025 0.5 0.866025 0.5 131.383 39.1975)" fill="#00A5FF"/>
<rect opacity="0.5" width="19.9116" height="3.62029" rx="1.81014" transform="matrix(-0.866025 0.5 0.866025 0.5 136.869 42.3651)" fill="#00A5FF"/>
<mask id="mask0" mask-type="alpha" maskUnits="userSpaceOnUse" x="17" y="34" width="46" height="26">
<rect width="29.0227" height="29.0227" rx="5.42466" transform="matrix(-0.866025 0.5 0.866025 0.5 40.2212 32.4405)" fill="#EBECED"/>
</mask>
<g mask="url(#mask0)">
<g filter="url(#filter0_d)">
<rect width="29.0227" height="29.0227" rx="5.42" transform="matrix(-0.866025 0.5 0.866025 0.5 40.2212 32.4405)" fill="white"/>
</g>
<path d="M49.5445 50.1576C49.6882 50.0746 49.8483 50.0018 50.0216 49.9405L59.8365 46.4687C60.8548 46.1085 62.168 46.1982 63.0124 46.6858L70.3653 50.931L46.3136 64.8172L38.9226 60.55C38.0671 60.0561 37.92 59.2856 38.5686 58.696L45.0524 52.8018C45.1539 52.7095 45.2726 52.624 45.4064 52.5468L49.5445 50.1576Z" fill="#CF0080"/>
<line opacity="0.2" y1="-0.100859" x2="6.2094" y2="-0.100859" transform="matrix(0.866025 0.5 0.866025 -0.5 60.6836 50.5153)" stroke="white" stroke-width="0.201719"/>
<line opacity="0.2" y1="-0.100859" x2="6.2094" y2="-0.100859" transform="matrix(0.866025 0.5 0.866025 -0.5 45.4473 59.3124)" stroke="white" stroke-width="0.201719"/>
<path d="M46.8364 48.8733L49.5772 50.122C49.8184 50.2318 49.9394 50.4079 49.8552 50.5785C49.5685 51.159 48.6185 52.4815 45.7917 52.9478C45.4656 53.0017 45.1214 52.9212 44.9244 52.7618L42.9164 51.1365L46.8364 48.8733Z" fill="#E4EFFD"/>
<path d="M31.467 48.3834C31.1771 48.2371 30.883 48.0847 30.5866 47.926C30.3776 47.8289 30.174 47.725 29.98 47.613C29.8711 47.5502 29.7666 47.4849 29.6664 47.4195C29.6631 47.4177 29.6599 47.4158 29.6567 47.4139L29.6577 47.4133C27.071 45.7199 27.1931 43.1259 30.0136 41.4974C32.9481 39.8032 37.69 39.7944 40.6061 41.478C40.8529 41.6205 41.0782 41.7717 41.283 41.9284C41.4619 42.0491 41.671 42.1909 41.9028 42.3508C42.2116 42.2671 43.6922 41.9225 43.9793 42.9251C43.9793 42.9251 43.9777 43.1912 44.2912 43.3163C44.6047 43.4414 45.2682 43.6419 45.1763 43.9999C45.125 44.1975 44.7978 44.2383 44.5136 44.2356C45.0968 44.6791 45.6854 45.1456 46.2321 45.609C46.2321 45.609 47.4232 49.3052 45.5599 50.4718C45.5599 50.4718 44.2573 51.5897 37.0445 50.7766C37.0445 50.7766 36.1267 50.464 34.7456 49.8889C34.7459 50.0492 34.6698 50.23 34.3372 50.259C33.7173 50.3121 33.3699 49.929 33.1532 49.748C32.9365 49.567 32.4757 49.568 32.4757 49.568C30.7821 49.4059 31.3038 48.5909 31.467 48.3834Z" fill="#E4EFFD"/>
<path d="M30.6776 47.6502C30.6776 47.6502 37.5518 50.7635 39.1252 49.4552L39.033 49.402C38.5805 49.1408 38.5815 48.7155 39.0377 48.4521L42.0197 46.7304C42.4748 46.4677 43.2114 46.4658 43.665 46.7277L43.813 46.8131C43.8151 46.8144 43.8173 46.8156 43.8194 46.8168C44.731 46.2336 45.381 44.8554 40.6071 41.9174L41.0424 41.7429L46.2387 45.2637C46.4991 45.4401 46.6855 45.6489 46.7624 45.8763C47.0821 46.8222 47.7622 49.4695 45.8659 50.6721C45.8659 50.6721 43.2255 51.9822 37.1517 51.0355C36.8055 50.9815 36.4861 50.8802 36.2128 50.7461L30.3217 47.8557L30.6776 47.6502ZM40.8335 49.7591C41.3021 50.0296 42.072 50.0283 42.5433 49.7562L42.5681 49.7419C42.7288 49.6491 42.7489 49.5038 42.6182 49.3985L42.0977 48.9797C41.966 48.8737 41.9882 48.7284 42.1478 48.6363L42.3894 48.4968C42.5555 48.4009 42.8179 48.3918 43.0003 48.4747L43.6677 48.7765C43.8501 48.8594 44.1136 48.8497 44.2786 48.7544C44.7499 48.4823 44.7521 48.0378 44.2835 47.7672L43.652 47.4026C43.1834 47.1321 42.4134 47.1333 41.9421 47.4054L40.3665 48.3151C39.8057 48.6389 39.803 49.1667 40.3606 49.4886L40.8313 49.7603L40.8335 49.7591Z" fill="white"/>
<path d="M30.6776 47.6502C30.6776 47.6502 37.5518 50.7635 39.1252 49.4552L39.033 49.402C38.5805 49.1408 38.5815 48.7155 39.0377 48.4521L42.0197 46.7304C42.4748 46.4677 43.2114 46.4658 43.665 46.7277L43.813 46.8131C43.8151 46.8144 43.8173 46.8156 43.8194 46.8168C44.731 46.2336 45.381 44.8554 40.6071 41.9174L41.0424 41.7429L46.2387 45.2637C46.4991 45.4401 46.6855 45.6489 46.7624 45.8763C47.0821 46.8222 47.7622 49.4695 45.8659 50.6721C45.8659 50.6721 43.2255 51.9822 37.1517 51.0355C36.8055 50.9815 36.4861 50.8802 36.2128 50.7461L30.3217 47.8557L30.6776 47.6502ZM40.8335 49.7591C41.3021 50.0296 42.072 50.0283 42.5433 49.7562L42.5681 49.7419C42.7288 49.6491 42.7489 49.5038 42.6182 49.3985L42.0977 48.9797C41.966 48.8737 41.9882 48.7284 42.1478 48.6363L42.3894 48.4968C42.5555 48.4009 42.8179 48.3918 43.0003 48.4747L43.6677 48.7765C43.8501 48.8594 44.1136 48.8497 44.2786 48.7544C44.7499 48.4823 44.7521 48.0378 44.2835 47.7672L43.652 47.4026C43.1834 47.1321 42.4134 47.1333 41.9421 47.4054L40.3665 48.3151C39.8057 48.6389 39.803 49.1667 40.3606 49.4886L40.8313 49.7603L40.8335 49.7591Z" fill="#1172EB" fill-opacity="0.3"/>
<path d="M41.1196 41.7874C41.1196 41.7874 40.0921 41.0472 38.1698 40.0918C36.2465 39.1371 34.9709 39.6073 34.9709 39.6073C34.9709 39.6073 35.0623 39.3961 35.67 39.3783C36.2776 39.3605 35.3569 39.1938 34.5261 39.5187C33.6954 39.8435 31.7033 39.0956 30.1064 40.3841C30.1064 40.3841 31.0057 39.8983 31.6421 39.9307C31.6421 39.9307 30.6279 40.1833 30.7424 40.283C30.7424 40.283 31.7564 40.0976 31.6964 40.2647C31.6964 40.2647 29.5252 40.4856 28.5104 41.0715C28.5104 41.0715 27.0337 41.3248 26.4525 41.8597C26.4525 41.8597 26.015 42.4788 26.8808 43.0784C26.8808 43.0784 26.4456 43.2293 26.0997 43.1629C25.7527 43.097 26.2124 43.6302 26.4445 43.6633C26.6767 43.6965 26.6883 44.1552 26.2326 44.1188C26.2326 44.1188 26.6714 44.5315 27.0489 44.3136C27.0489 44.3136 25.8202 44.8558 26.4145 45.5787C27.0099 46.301 30.8152 48.0983 30.8152 48.0983L31.0915 47.883C31.0915 47.883 28.4567 46.4327 28.6601 46.1815C28.8635 45.9304 28.5442 44.8494 30.3282 44.6192C32.1123 44.389 30.8415 44.1235 30.7832 43.9566C30.7271 43.7897 31.8963 44.1472 32.3245 43.9C32.7526 43.6528 32.8363 43.2652 32.5811 42.6833C32.327 42.1007 33.508 42.9171 33.3635 43.0005C33.219 43.0839 33.9683 43.5502 34.3223 42.2141C34.6764 40.8768 38.1774 40.7214 38.1774 40.7214C38.1774 40.7214 40.407 41.7234 40.7057 41.9781L41.1196 41.7874Z" fill="white"/>
<path d="M41.1196 41.7874C41.1196 41.7874 40.0921 41.0472 38.1698 40.0918C36.2465 39.1371 34.9709 39.6073 34.9709 39.6073C34.9709 39.6073 35.0623 39.3961 35.67 39.3783C36.2776 39.3605 35.3569 39.1938 34.5261 39.5187C33.6954 39.8435 31.7033 39.0956 30.1064 40.3841C30.1064 40.3841 31.0057 39.8983 31.6421 39.9307C31.6421 39.9307 30.6279 40.1833 30.7424 40.283C30.7424 40.283 31.7564 40.0976 31.6964 40.2647C31.6964 40.2647 29.5252 40.4856 28.5104 41.0715C28.5104 41.0715 27.0337 41.3248 26.4525 41.8597C26.4525 41.8597 26.015 42.4788 26.8808 43.0784C26.8808 43.0784 26.4456 43.2293 26.0997 43.1629C25.7527 43.097 26.2124 43.6302 26.4445 43.6633C26.6767 43.6965 26.6883 44.1552 26.2326 44.1188C26.2326 44.1188 26.6714 44.5315 27.0489 44.3136C27.0489 44.3136 25.8202 44.8558 26.4145 45.5787C27.0099 46.301 30.8152 48.0983 30.8152 48.0983L31.0915 47.883C31.0915 47.883 28.4567 46.4327 28.6601 46.1815C28.8635 45.9304 28.5442 44.8494 30.3282 44.6192C32.1123 44.389 30.8415 44.1235 30.7832 43.9566C30.7271 43.7897 31.8963 44.1472 32.3245 43.9C32.7526 43.6528 32.8363 43.2652 32.5811 42.6833C32.327 42.1007 33.508 42.9171 33.3635 43.0005C33.219 43.0839 33.9683 43.5502 34.3223 42.2141C34.6764 40.8768 38.1774 40.7214 38.1774 40.7214C38.1774 40.7214 40.407 41.7234 40.7057 41.9781L41.1196 41.7874Z" fill="#1172EB" fill-opacity="0.3"/>
</g>
<g opacity="0.5">
<path d="M75.3667 77.3452C71.4924 75.1084 71.3952 71.61 74.2011 68.8892C74.9669 68.1466 76.7677 68.0233 77.8388 68.6417C78.5898 69.0753 78.739 69.741 78.2015 70.2606C76.3247 72.0752 76.5119 74.2073 78.6567 75.4457C80.6185 76.5783 83.8213 76.781 86.8162 75.9619C87.0574 75.8958 87.2218 75.7715 87.267 75.6206C87.3745 75.2624 86.7384 74.9869 86.1915 75.1381C83.7789 75.8054 81.2518 75.6776 79.7534 74.8125C78.7296 74.2214 78.2876 73.3174 78.5408 72.3323C78.7845 71.3843 79.6176 70.4587 80.8867 69.726C83.7909 68.0493 87.7678 67.958 89.6968 69.0717C91.6257 70.1854 91.1811 72.063 89.6489 73.3936C89.4118 73.5995 88.9304 73.6554 88.5738 73.5185C88.217 73.3816 88.1202 73.1037 88.3573 72.8978C89.4486 71.9502 89.9779 70.5004 88.6001 69.7049C87.1395 68.8617 84.0476 69.1674 81.9833 70.3592C79.9191 71.551 79.3896 73.3361 80.8501 74.1794C81.8767 74.7721 83.7103 74.8314 85.5214 74.3306C87.1963 73.8673 89.1187 74.6953 88.7953 75.7735C88.6647 76.2086 88.1731 76.5816 87.4801 76.7711C83.8852 77.7543 79.9914 77.4826 77.56 76.0789C74.7017 74.4286 74.7804 71.8218 76.8699 69.8015C77.0426 69.6346 76.9901 69.418 76.7421 69.2749C76.3884 69.0706 75.7836 69.105 75.5338 69.3473C72.935 71.8672 73.3173 74.8957 76.4634 76.712C80.394 78.9814 87.2981 78.6879 91.8536 76.0578C93.6602 75.0147 94.9227 73.6933 95.4085 72.337C95.4953 72.0949 95.9056 71.9392 96.325 71.9892C96.7437 72.0392 97.0142 72.2758 96.9274 72.5184C96.3809 74.0439 94.9685 75.5257 92.9503 76.691C87.7901 79.6702 79.902 79.9637 75.3667 77.3452Z" fill="#00A5FF"/>
<path d="M96.4416 71.2337C96.0135 71.2426 95.654 71.0495 95.6385 70.8024C95.5492 69.3771 94.6327 68.1218 92.988 67.1722C89.4054 65.1038 83.2591 65.1416 78.691 67.26C78.3572 67.4149 77.8696 67.3842 77.6008 67.1914C77.3326 66.9986 77.3859 66.7168 77.7198 66.5619C82.9061 64.1568 89.9414 64.1469 94.0846 66.539C95.9839 67.6356 97.0862 69.1382 97.1885 70.7701C97.2039 71.0172 96.8695 71.2247 96.4416 71.2337Z" fill="#00A5FF"/>
<path d="M93.3327 70.6048C92.9121 70.6513 92.5058 70.4921 92.4252 70.2492C92.1918 69.5453 91.6283 68.9192 90.7958 68.4385C88.4267 67.0707 84.1654 67.1163 80.8836 68.5445C80.5417 68.6934 80.0558 68.6541 79.7976 68.4565C79.5398 68.2591 79.608 67.9783 79.95 67.8295C83.6673 66.2117 88.801 66.0205 91.8925 67.8054C92.9455 68.4133 93.6565 69.2002 93.9485 70.0809C94.029 70.3237 93.7533 70.5583 93.3327 70.6048Z" fill="#00A5FF"/>
<path d="M90.765 74.7884C90.4228 74.6394 90.3547 74.3588 90.6125 74.1614C91.5568 73.4381 92.2058 72.5935 92.44 71.7833C92.5105 71.5394 92.9101 71.3747 93.3326 71.4153C93.7577 71.4563 94.0399 71.6883 93.9698 71.9307C93.6953 72.8805 92.9428 73.8641 91.851 74.7004C91.5932 74.8978 91.107 74.9373 90.765 74.7884Z" fill="#00A5FF"/>
<path d="M81.9455 73.5463C81.4154 73.2402 81.4289 72.5552 81.9784 71.8804C82.1606 71.6567 82.6226 71.5605 83.0102 71.6658C83.3977 71.771 83.5642 72.0377 83.382 72.2614C83.1705 72.5211 83.1121 72.7408 83.109 72.8705C83.5258 72.8638 84.4349 72.7421 85.2721 72.2588C86.1004 71.7806 86.2978 71.2647 86.3028 71.031C86.0792 71.0321 85.6949 71.0652 85.2401 71.1887C84.8526 71.2939 84.3907 71.1977 84.2084 70.974C84.0262 70.7502 84.1927 70.4835 84.5802 70.3783C85.7489 70.0611 86.9354 70.0532 87.4655 70.3593C88.2106 70.7895 87.8875 72.0152 86.3688 72.892C84.8298 73.7806 82.6906 73.9765 81.9455 73.5463Z" fill="#00A5FF"/>
</g>
<defs>
<filter id="filter0_d" x="-98.1636" y="-73.972" width="276.77" height="257.848" filterUnits="userSpaceOnUse" color-interpolation-filters="sRGB">
<feFlood flood-opacity="0" result="BackgroundImageFix"/>
<feColorMatrix in="SourceAlpha" type="matrix" values="0 0 0 0 0 0 0 0 0 0 0 0 0 0 0 0 0 0 127 0"/>
<feMorphology radius="4" operator="erode" in="SourceAlpha" result="effect1_dropShadow"/>
<feOffset dy="8"/>
<feGaussianBlur stdDeviation="60"/>
<feColorMatrix type="matrix" values="0 0 0 0 0.129412 0 0 0 0 0.258824 0 0 0 0 0.607843 0 0 0 0.08 0"/>
<feBlend mode="normal" in2="BackgroundImageFix" result="effect1_dropShadow"/>
<feBlend mode="normal" in="SourceGraphic" in2="effect1_dropShadow" result="shape"/>
</filter>
<linearGradient id="paint0_linear" x1="103.569" y1="60.412" x2="37.1954" y2="155.973" gradientUnits="userSpaceOnUse">
<stop stop-color="#DCDCDC"/>
<stop offset="1" stop-color="#DCDCDC" stop-opacity="0"/>
</linearGradient>
<linearGradient id="paint1_linear" x1="14.9337" y1="0" x2="14.9337" y2="29.8674" gradientUnits="userSpaceOnUse">
<stop stop-color="#818181" stop-opacity="0"/>
<stop offset="1" stop-color="#2980FF"/>
</linearGradient>
<linearGradient id="paint2_linear" x1="26.4482" y1="-5.84245" x2="20.9048" y2="9.74379" gradientUnits="userSpaceOnUse">
<stop stop-color="#818181" stop-opacity="0"/>
<stop offset="1" stop-color="#2980FF"/>
</linearGradient>
</defs>
</svg>
