<svg width="170" height="120" viewBox="0 0 170 120" fill="none" xmlns="http://www.w3.org/2000/svg">
<rect opacity="0.7" width="84.1655" height="95.4066" rx="8" transform="matrix(-0.866008 0.50003 0.866008 0.50003 73.2954 30.2088)" fill="url(#paint0_linear)"/>
<rect width="81.5807" height="95.6468" rx="5.8713" transform="matrix(-0.866025 0.5 0.866025 0.5 71.6221 8.55334)" fill="white"/>
<mask id="mask0" mask-type="alpha" maskUnits="userSpaceOnUse" x="3" y="10" width="149" height="86">
<rect width="81.5807" height="95.6468" rx="5.8713" transform="matrix(-0.866025 0.5 0.866025 0.5 71.6221 8.55334)" fill="white"/>
</mask>
<g mask="url(#mask0)">
<rect width="3.12584" height="2.16576" rx="0.714291" transform="matrix(-1.02213 0.389551 0.674722 0.590127 78.8403 61.5844)" fill="#787893"/>
<path d="M104.626 60.2079C104.881 60.061 105.164 59.932 105.471 59.8235L136.573 48.8217C138.376 48.184 140.701 48.3429 142.196 49.2061L165.431 62.6208L94.9002 103.342L71.5254 89.8464C70.0108 88.972 69.7504 87.6077 70.8987 86.5638L91.3792 67.9457C91.5588 67.7824 91.769 67.631 92.0059 67.4942L104.626 60.2079Z" fill="#CF0080"/>
<line opacity="0.2" y1="-0.178573" x2="18.2089" y2="-0.178573" transform="matrix(0.866025 0.5 0.866025 -0.5 137.04 61.4016)" stroke="white" stroke-width="0.357146"/>
<line opacity="0.2" y1="-0.178573" x2="18.2089" y2="-0.178573" transform="matrix(0.866025 0.5 0.866025 -0.5 92.3594 87.1956)" stroke="white" stroke-width="0.357146"/>
<path d="M96.4339 56.5856L104.924 60.4536C105.351 60.6482 105.566 60.9565 105.436 61.2614C104.795 62.7657 102.121 67.2737 92.742 68.6314C92.1595 68.7158 91.5519 68.5754 91.2031 68.2931L84.9385 63.2224L96.4339 56.5856Z" fill="#E4EFFD"/>
<path d="M51.3623 55.1473C50.5123 54.7184 49.6496 54.2714 48.7807 53.8061C48.1677 53.5213 47.5705 53.2166 47.0017 52.8882C46.6825 52.7039 46.3759 52.5123 46.082 52.3208C46.0725 52.3153 46.063 52.3098 46.0535 52.3044L46.0567 52.3025C38.4711 47.3368 38.8292 39.7297 47.1003 34.9544C55.7056 29.9861 69.611 29.9602 78.1625 34.8975C78.8862 35.3153 79.5468 35.7586 80.1475 36.2182C80.6721 36.5721 81.2853 36.9881 81.9649 37.4569C82.8704 37.2114 87.2122 36.2008 88.0543 39.1411C88.0543 39.1411 88.0495 39.9212 88.9688 40.2881C89.8881 40.655 91.8338 41.2431 91.5643 42.2927C91.4139 42.8722 90.4544 42.9919 89.621 42.9841C91.3313 44.2846 93.0575 45.6526 94.6605 47.0114C94.6605 47.0114 98.1535 57.8505 92.6893 61.2716C92.6893 61.2716 88.8696 64.5498 67.718 62.1653C67.718 62.1653 65.0267 61.2487 60.9766 59.5621C60.9775 60.0323 60.7544 60.5625 59.7791 60.6476C57.9611 60.8031 56.9425 59.6798 56.307 59.149C55.6715 58.6183 54.3204 58.6211 54.3204 58.6211C49.3539 58.1459 50.8836 55.7557 51.3623 55.1473Z" fill="#E4EFFD"/>
<path d="M49.0467 52.9993C49.0467 52.9993 69.2051 62.129 73.8189 58.2925L73.5485 58.1363C72.2216 57.3702 72.2247 56.1231 73.5624 55.3507L82.307 50.3021C83.6416 49.5315 85.8017 49.5261 87.1318 50.294L87.5657 50.5445C87.572 50.5482 87.5783 50.5518 87.5846 50.5554C90.2578 48.845 92.1638 44.8037 78.1646 36.188L79.4411 35.6761L95.1392 46.3125C95.6002 46.6249 95.9272 46.989 96.0726 47.3907C96.9132 49.7145 99.4491 58.1424 93.5858 61.8607C93.5858 61.8607 85.6682 65.7894 67.4281 62.8304C66.8168 62.7312 66.2437 62.5516 65.7599 62.3142L48.003 53.6018L49.0467 52.9993ZM78.8284 59.1835C80.2025 59.9768 82.4604 59.9731 83.8425 59.1751L83.9152 59.1331C84.3864 58.8611 84.4453 58.4349 84.0621 58.1261L82.5357 56.8979C82.1494 56.5872 82.2146 56.161 82.6827 55.8908L83.3911 55.4818C83.8781 55.2006 84.6477 55.1738 85.1826 55.4169L87.1396 56.3021C87.6744 56.5452 88.4472 56.5166 88.9311 56.2372C90.3131 55.4393 90.3196 54.1357 88.9455 53.3424L87.0935 52.2731C85.7194 51.4798 83.4615 51.4835 82.0795 52.2815L77.4589 54.9491C75.8144 55.8986 75.8067 57.4462 77.4417 58.3902L78.8221 59.1871L78.8284 59.1835Z" fill="white"/>
<path d="M49.0467 52.9993C49.0467 52.9993 69.2051 62.129 73.8189 58.2925L73.5485 58.1363C72.2216 57.3702 72.2247 56.1231 73.5624 55.3507L82.307 50.3021C83.6416 49.5315 85.8017 49.5261 87.1318 50.294L87.5657 50.5445C87.572 50.5482 87.5783 50.5518 87.5846 50.5554C90.2578 48.845 92.1638 44.8037 78.1646 36.188L79.4411 35.6761L95.1392 46.3125C95.6002 46.6249 95.9272 46.989 96.0726 47.3907C96.9132 49.7145 99.4491 58.1424 93.5858 61.8607C93.5858 61.8607 85.6682 65.7894 67.4281 62.8304C66.8168 62.7312 66.2437 62.5516 65.7599 62.3142L48.003 53.6018L49.0467 52.9993ZM78.8284 59.1835C80.2025 59.9768 82.4604 59.9731 83.8425 59.1751L83.9152 59.1331C84.3864 58.8611 84.4453 58.4349 84.0621 58.1261L82.5357 56.8979C82.1494 56.5872 82.2146 56.161 82.6827 55.8908L83.3911 55.4818C83.8781 55.2006 84.6477 55.1738 85.1826 55.4169L87.1396 56.3021C87.6744 56.5452 88.4472 56.5166 88.9311 56.2372C90.3131 55.4393 90.3196 54.1357 88.9455 53.3424L87.0935 52.2731C85.7194 51.4798 83.4615 51.4835 82.0795 52.2815L77.4589 54.9491C75.8144 55.8986 75.8067 57.4462 77.4417 58.3902L78.8221 59.1871L78.8284 59.1835Z" fill="#1172EB" fill-opacity="0.3"/>
<path d="M79.6675 35.8069C79.6675 35.8069 76.6542 33.6362 71.0173 30.8345C65.3772 28.0347 61.6366 29.4137 61.6366 29.4137C61.6366 29.4137 61.9046 28.7942 63.6865 28.7421C65.4685 28.69 62.7684 28.2011 60.3323 29.1537C57.8963 30.1063 52.0544 27.9131 47.3716 31.6914C47.3716 31.6914 50.0087 30.2669 51.8751 30.3621C51.8751 30.3621 48.9008 31.1026 49.2368 31.3952C49.2368 31.3952 52.21 30.8513 52.0341 31.3414C52.0341 31.3414 45.6672 31.9892 42.6912 33.7074C42.6912 33.7074 38.361 34.4502 36.6566 36.0188C36.6566 36.0188 35.3735 37.8343 37.9127 39.5924C37.9127 39.5924 36.6365 40.0352 35.6221 39.8402C34.6045 39.6471 35.9526 41.2106 36.6333 41.3078C37.3139 41.405 37.3482 42.7504 36.0117 42.6434C36.0117 42.6434 37.2985 43.8538 38.4054 43.2147C38.4054 43.2147 34.8026 44.8047 36.5453 46.9246C38.2911 49.0428 49.45 54.3131 49.45 54.3131L50.2605 53.6818C50.2605 53.6818 42.5337 49.4289 43.1303 48.6924C43.7268 47.9559 42.7903 44.7859 48.0221 44.1108C53.2539 43.4357 49.5273 42.6572 49.3563 42.1678C49.1916 41.6783 52.6205 42.7267 53.876 42.0018C55.1316 41.2769 55.3769 40.1404 54.6286 38.4339C53.8835 36.7256 57.3466 39.1194 56.9228 39.3641C56.499 39.6088 58.6965 40.976 59.7346 37.0581C60.7728 33.1365 71.0396 32.6806 71.0396 32.6806C71.0396 32.6806 77.5777 35.6192 78.4538 36.366L79.6675 35.8069Z" fill="white"/>
<path d="M79.6675 35.8069C79.6675 35.8069 76.6542 33.6362 71.0173 30.8345C65.3772 28.0347 61.6366 29.4137 61.6366 29.4137C61.6366 29.4137 61.9046 28.7942 63.6865 28.7421C65.4685 28.69 62.7684 28.2011 60.3323 29.1537C57.8963 30.1063 52.0544 27.9131 47.3716 31.6914C47.3716 31.6914 50.0087 30.2669 51.8751 30.3621C51.8751 30.3621 48.9008 31.1026 49.2368 31.3952C49.2368 31.3952 52.21 30.8513 52.0341 31.3414C52.0341 31.3414 45.6672 31.9892 42.6912 33.7074C42.6912 33.7074 38.361 34.4502 36.6566 36.0188C36.6566 36.0188 35.3735 37.8343 37.9127 39.5924C37.9127 39.5924 36.6365 40.0352 35.6221 39.8402C34.6045 39.6471 35.9526 41.2106 36.6333 41.3078C37.3139 41.405 37.3482 42.7504 36.0117 42.6434C36.0117 42.6434 37.2985 43.8538 38.4054 43.2147C38.4054 43.2147 34.8026 44.8047 36.5453 46.9246C38.2911 49.0428 49.45 54.3131 49.45 54.3131L50.2605 53.6818C50.2605 53.6818 42.5337 49.4289 43.1303 48.6924C43.7268 47.9559 42.7903 44.7859 48.0221 44.1108C53.2539 43.4357 49.5273 42.6572 49.3563 42.1678C49.1916 41.6783 52.6205 42.7267 53.876 42.0018C55.1316 41.2769 55.3769 40.1404 54.6286 38.4339C53.8835 36.7256 57.3466 39.1194 56.9228 39.3641C56.499 39.6088 58.6965 40.976 59.7346 37.0581C60.7728 33.1365 71.0396 32.6806 71.0396 32.6806C71.0396 32.6806 77.5777 35.6192 78.4538 36.366L79.6675 35.8069Z" fill="#1172EB" fill-opacity="0.3"/>
</g>
<g opacity="0.15" filter="url(#filter0_f)">
<rect width="22.3412" height="23.4714" rx="7.8284" transform="matrix(-0.866025 0.5 0.866025 0.5 113.104 22.66)" fill="#11C3FF"/>
</g>
<rect width="22.3412" height="23.4714" rx="7.8284" transform="matrix(-0.866025 0.5 0.866025 0.5 112.797 15.219)" fill="url(#paint1_linear)"/>
<path d="M115.173 22.1696L115.173 28.6933L110.037 28.6933" stroke="white" stroke-width="2.93565" stroke-linecap="round" stroke-linejoin="round"/>
<defs>
<filter id="filter0_f" x="90.8782" y="18.1031" width="45.4318" height="32.0202" filterUnits="userSpaceOnUse" color-interpolation-filters="sRGB">
<feFlood flood-opacity="0" result="BackgroundImageFix"/>
<feBlend mode="normal" in="SourceGraphic" in2="BackgroundImageFix" result="shape"/>
<feGaussianBlur stdDeviation="3.42493" result="effect1_foregroundBlur"/>
</filter>
<linearGradient id="paint0_linear" x1="77.4821" y1="83.6419" x2="-17.5733" y2="157.591" gradientUnits="userSpaceOnUse">
<stop stop-color="#DCDCDC"/>
<stop offset="1" stop-color="#DCDCDC" stop-opacity="0"/>
</linearGradient>
<linearGradient id="paint1_linear" x1="21.5365" y1="-3.79233" x2="8.42793" y2="27.7042" gradientUnits="userSpaceOnUse">
<stop stop-color="#22C532"/>
<stop offset="1" stop-color="#11C3FF"/>
</linearGradient>
</defs>
</svg>
