<svg width="208" height="120" viewBox="0 0 208 120" fill="none" xmlns="http://www.w3.org/2000/svg">
<rect opacity="0.7" width="93.3538" height="104.51" rx="8" transform="matrix(0.866025 0.5 -0.866025 0.5 116.403 20.7641)" fill="url(#paint0_linear)"/>
<rect width="101.571" height="90.8792" rx="6.4918" transform="matrix(-0.866025 0.5 0.866025 0.5 115.314 8.50876)" fill="white"/>
<rect opacity="0.1" width="31.9063" height="31.9063" rx="6.4918" transform="matrix(-0.866025 0.5 0.866025 0.5 61.4268 33.1843)" fill="url(#paint1_linear)"/>
<rect width="31.9063" height="31.9063" rx="6.4918" transform="matrix(-0.866025 0.5 0.866025 0.5 60.0933 23.3732)" fill="#CF0080"/>
<g opacity="0.9">
<path opacity="0.5" d="M55.4569 31.9798L57.9507 30.54C58.3917 30.2854 58.9897 30.1424 59.6133 30.1424C60.2369 30.1424 60.8349 30.2854 61.2759 30.54L63.7697 31.9798M48.8066 40.6188L46.3127 39.179C45.8718 38.9244 45.6241 38.5791 45.6241 38.2191C45.6241 37.859 45.8718 37.5138 46.3127 37.2592L48.8066 35.8194M63.7697 44.4583L61.2759 45.8982C60.8349 46.1527 60.2369 46.2958 59.6133 46.2958C58.9897 46.2958 58.3917 46.1527 57.9507 45.8982L55.4569 44.4583M70.42 35.8194L72.9138 37.2592C73.3548 37.5138 73.6025 37.859 73.6025 38.2191C73.6025 38.5791 73.3548 38.9244 72.9138 39.179L70.42 40.6188" stroke="white" stroke-width="1.20469" stroke-linecap="round" stroke-linejoin="round"/>
<path d="M59.8263 43.066L58.8287 42.4901C58.2996 42.1846 58.0023 41.7703 58.0023 41.3382C58.0023 40.9062 58.2996 40.4919 58.8287 40.1864L62.8189 37.8826C63.348 37.5771 64.0657 37.4055 64.814 37.4055C65.5623 37.4055 66.2799 37.5771 66.809 37.8826L67.8066 38.4586" stroke="white" stroke-width="1.20469" stroke-linecap="round" stroke-linejoin="round"/>
<path d="M58.8281 37.8832C57.7262 38.5193 55.9398 38.5193 54.8379 37.8832C53.7361 37.247 53.7361 36.2156 54.8379 35.5794C55.9398 34.9433 57.7262 34.9433 58.8281 35.5794C59.9299 36.2156 59.9299 37.247 58.8281 37.8832Z" stroke="white" stroke-width="1.20469" stroke-linecap="round" stroke-linejoin="round"/>
</g>
<rect opacity="0.5" width="27.4785" height="4.60178" rx="2.30089" transform="matrix(-0.866025 0.5 0.866025 0.5 116.111 17.1655)" fill="#00A5FF"/>
<rect opacity="0.5" width="35.0535" height="4.62906" rx="2.31453" transform="matrix(-0.866025 0.5 0.866025 0.5 123.329 21.7057)" fill="#00A5FF"/>
<path d="M104.756 51.2154C103.244 50.2961 103.3 48.8343 105.019 48.046C111.671 44.9967 119.685 43.0958 128.128 42.5648C130.311 42.4275 132.13 43.4446 132.175 44.712L132.241 46.6161C132.286 47.8834 130.536 48.9177 128.361 49.092C122.719 49.5443 117.365 50.8142 112.801 52.7825C111.042 53.5412 108.538 53.516 107.027 52.5967L104.756 51.2154Z" fill="url(#paint2_linear)"/>
<path d="M103.219 52.1042C101.625 51.2325 99.0931 51.2661 97.7297 52.2596C92.4921 56.0763 89.2166 60.6679 88.2795 65.5071C88.0355 66.7669 89.7921 67.8202 91.987 67.8494L95.2567 67.8929C97.4517 67.9221 99.248 66.9145 99.5559 65.6595C100.349 62.4247 102.539 59.3556 105.921 56.7365C107.234 55.7203 107.187 54.2746 105.593 53.4028L103.219 52.1042Z" fill="url(#paint3_linear)"/>
<path d="M162.017 51.6449C163.569 50.7486 163.58 49.2864 161.896 48.4726C155.126 45.1995 146.832 43.1481 138.057 42.5759C135.876 42.4336 134.049 43.4465 133.996 44.7138L133.916 46.6291C133.863 47.8963 135.606 48.9346 137.78 49.114C143.663 49.5995 149.222 50.9746 153.889 53.0988C155.614 53.8836 158.118 53.896 159.67 52.9997L162.017 51.6449Z" fill="url(#paint4_linear)"/>
<path d="M103.992 85.1451C102.439 86.0415 99.9066 86.0474 98.497 85.0755C92.8819 81.2037 89.3415 76.4689 88.312 71.4541C88.0536 70.1953 89.798 69.1353 91.9926 69.0977L95.2266 69.0423C97.4212 69.0047 99.2291 70.0053 99.5511 71.2592C100.417 74.6295 102.796 77.8117 106.451 80.4868C107.81 81.4821 107.832 82.9279 106.279 83.8243L103.992 85.1451Z" fill="url(#paint5_linear)"/>
<defs>
<linearGradient id="paint0_linear" x1="85.9408" y1="91.6226" x2="-18.4967" y2="173.89" gradientUnits="userSpaceOnUse">
<stop stop-color="#DCDCDC"/>
<stop offset="1" stop-color="#DCDCDC" stop-opacity="0"/>
</linearGradient>
<linearGradient id="paint1_linear" x1="15.9532" y1="0" x2="15.9532" y2="31.9063" gradientUnits="userSpaceOnUse">
<stop stop-color="#818181" stop-opacity="0"/>
<stop offset="1" stop-color="#2980FF"/>
</linearGradient>
<linearGradient id="paint2_linear" x1="101.181" y1="50.0222" x2="127.445" y2="60.1634" gradientUnits="userSpaceOnUse">
<stop stop-color="#22C532"/>
<stop offset="1" stop-color="#11C3FF"/>
</linearGradient>
<linearGradient id="paint3_linear" x1="101.182" y1="50.022" x2="133.005" y2="105.141" gradientUnits="userSpaceOnUse">
<stop stop-color="#22C532"/>
<stop offset="1" stop-color="#11C3FF"/>
</linearGradient>
<linearGradient id="paint4_linear" x1="101.182" y1="50.022" x2="133.005" y2="105.141" gradientUnits="userSpaceOnUse">
<stop stop-color="#11C3FF"/>
<stop offset="1" stop-color="#00A5FF"/>
</linearGradient>
<linearGradient id="paint5_linear" x1="101.181" y1="50.0222" x2="133.003" y2="105.141" gradientUnits="userSpaceOnUse">
<stop stop-color="#22C532"/>
<stop offset="1" stop-color="#11C3FF"/>
</linearGradient>
</defs>
</svg>
