<svg width="114" height="26" viewBox="0 0 114 26" fill="none" xmlns="http://www.w3.org/2000/svg">
<path d="M34.5151 0H29.6372V26H34.5151V0Z" fill="url(#paint0_linear)"/>
<path d="M56.8387 26H51.9608V13.3693C51.9608 8.64205 48.0481 4.79545 43.2395 4.79545C38.431 4.79545 34.5183 8.64205 34.5183 13.3693V26H29.6404V13.3693C29.6375 5.99716 35.7406 0 43.2395 0C50.7384 0 56.8387 5.99716 56.8387 13.3693V26Z" fill="url(#paint1_linear)"/>
<path d="M13.5992 26C6.10026 26 0 20.0028 0 12.6307V0H4.8779V12.6307C4.8779 17.358 8.79062 21.2045 13.5992 21.2045C18.4077 21.2045 22.3233 17.358 22.3233 12.6307V0H27.2012V12.6307C27.1983 20.0028 21.0981 26 13.5992 26Z" fill="url(#paint2_linear)"/>
<path d="M64.1547 0H59.2769V26H64.1547V0Z" fill="url(#paint3_linear)"/>
<path d="M100.231 26C92.94 26 87.0073 20.1676 87.0073 13C87.0073 5.83239 92.94 0 100.231 0C107.522 0 113.454 5.83239 113.454 13C113.454 20.1676 107.522 26 100.231 26ZM100.231 4.79545C95.6275 4.79545 91.8852 8.47727 91.8852 13C91.8852 17.5256 95.6303 21.2045 100.231 21.2045C104.834 21.2045 108.576 17.5227 108.576 13C108.576 8.47727 104.834 4.79545 100.231 4.79545Z" fill="url(#paint4_linear)"/>
<path d="M79.8175 26C72.5266 26 66.594 20.1676 66.594 13C66.594 5.83239 72.5238 0 79.8175 0C82.5252 0 85.1317 0.801136 87.3511 2.31534L84.5682 6.25284C83.1696 5.2983 81.5253 4.79261 79.8146 4.79261C75.2112 4.79261 71.469 8.47443 71.469 12.9972C71.469 17.5227 75.2141 21.2017 79.8146 21.2017C81.5253 21.2017 83.1667 20.696 84.5682 19.7415L87.3511 23.679C85.1317 25.1989 82.5252 26 79.8175 26Z" fill="url(#paint5_linear)"/>
<defs>
<linearGradient id="paint0_linear" x1="32.0771" y1="25.7275" x2="32.0771" y2="-3.44886" gradientUnits="userSpaceOnUse">
<stop stop-color="#00A5FF"/>
<stop offset="1" stop-color="#CF0080"/>
</linearGradient>
<linearGradient id="paint1_linear" x1="1.90247" y1="23.6026" x2="103.856" y2="-0.0089894" gradientUnits="userSpaceOnUse">
<stop stop-color="#00A5FF"/>
<stop offset="1" stop-color="#CF0080"/>
</linearGradient>
<linearGradient id="paint2_linear" x1="-0.152983" y1="14.7284" x2="101.8" y2="-8.88325" gradientUnits="userSpaceOnUse">
<stop stop-color="#00A5FF"/>
<stop offset="1" stop-color="#CF0080"/>
</linearGradient>
<linearGradient id="paint3_linear" x1="2.51521" y1="26.251" x2="104.468" y2="2.63953" gradientUnits="userSpaceOnUse">
<stop stop-color="#00A5FF"/>
<stop offset="1" stop-color="#CF0080"/>
</linearGradient>
<linearGradient id="paint4_linear" x1="4.41356" y1="34.4471" x2="106.367" y2="10.8355" gradientUnits="userSpaceOnUse">
<stop stop-color="#00A5FF"/>
<stop offset="1" stop-color="#CF0080"/>
</linearGradient>
<linearGradient id="paint5_linear" x1="3.40754" y1="30.1036" x2="105.361" y2="6.49201" gradientUnits="userSpaceOnUse">
<stop stop-color="#00A5FF"/>
<stop offset="1" stop-color="#CF0080"/>
</linearGradient>
</defs>
</svg>
