<svg width="140" height="20" viewBox="0 0 140 20" fill="none" xmlns="http://www.w3.org/2000/svg">
<g clip-path="url(#clip0)">
<path d="M67.1529 5.92126H66.625V19.8845H67.1529V5.92126Z" fill="white"/>
<path d="M18.2053 5.94824H15.6328V19.8983H18.2053V5.94824Z" fill="url(#paint0_linear)"/>
<path d="M29.9797 19.8985H27.4072V13.1222C27.4072 10.585 25.343 8.52167 22.8066 8.52167C20.2703 8.52167 18.2061 10.5859 18.2061 13.1222V19.8985H15.6328V13.1222C15.6328 9.16683 18.8504 5.94922 22.8058 5.94922C26.7612 5.94922 29.9788 9.16683 29.9788 13.1222V19.8985H29.9797Z" fill="white"/>
<path d="M7.17301 19.8983C3.21761 19.8983 0 16.6807 0 12.7253V5.94824H2.57245V12.7245C2.57245 15.2617 4.63664 17.3251 7.17301 17.3251C9.70939 17.3251 11.7736 15.2609 11.7736 12.7245V5.94824H14.346V12.7245C14.3468 16.6799 11.1292 19.8983 7.17301 19.8983Z" fill="white"/>
<path d="M33.8386 5.94824H31.2661V19.8983H33.8386V5.94824Z" fill="white"/>
<path d="M52.8685 19.8983C49.0221 19.8983 45.8931 16.7692 45.8931 12.9237C45.8931 9.07732 49.0221 5.94824 52.8685 5.94824C56.7141 5.94824 59.8431 9.07732 59.8431 12.9237C59.8431 16.7692 56.7141 19.8983 52.8685 19.8983ZM52.8685 8.52069C50.4412 8.52069 48.4663 10.4955 48.4663 12.9229C48.4663 15.3502 50.4412 17.3251 52.8685 17.3251C55.2959 17.3251 57.2707 15.3502 57.2707 12.9229C57.2707 10.4955 55.2959 8.52069 52.8685 8.52069Z" fill="white"/>
<path d="M42.1001 19.8983C38.2546 19.8983 35.1255 16.7692 35.1255 12.9237C35.1255 9.07732 38.2546 5.94824 42.1001 5.94824C43.529 5.94824 44.9029 6.3778 46.0744 7.19102L44.607 9.30439C43.8692 8.79203 43.0027 8.52151 42.1001 8.52151C39.6728 8.52151 37.6979 10.4963 37.6979 12.9237C37.6979 15.351 39.6728 17.3259 42.1001 17.3259C43.0019 17.3259 43.8684 17.0553 44.607 16.543L46.0744 18.6564C44.9037 19.4688 43.529 19.8983 42.1001 19.8983Z" fill="white"/>
<path d="M83.8833 6.44175C82.9849 6.02695 81.9938 5.81873 80.91 5.81873C79.6394 5.81873 78.5122 6.12778 77.5301 6.74589C76.5472 7.36482 75.7766 8.20754 75.2175 9.27489C74.6584 10.3422 74.3789 11.5539 74.3789 12.9089C74.3789 14.2476 74.6798 15.4502 75.2815 16.5176C75.8824 17.5849 76.7046 18.4326 77.7465 19.0589C78.7885 19.686 79.9698 19.9992 81.292 19.9992C83.1382 19.9992 84.6802 19.4319 85.9172 18.2965C86.0697 18.1612 86.1418 17.9956 86.1328 17.8013C86.1238 17.6071 86.0352 17.4324 85.8664 17.2808C85.7303 17.1455 85.5696 17.0865 85.3835 17.1029C85.1966 17.1201 85.0277 17.1964 84.8753 17.3316C84.4178 17.7554 83.8801 18.0686 83.262 18.2719C82.643 18.4752 81.9872 18.5769 81.292 18.5769C80.2247 18.5769 79.2885 18.3268 78.4843 17.8268C77.6793 17.3275 77.0489 16.6496 76.5915 15.7937C76.134 14.9387 75.9053 13.9763 75.9053 12.9089C75.9053 11.808 76.1127 10.8341 76.5275 9.98645C76.9423 9.13963 77.5268 8.47069 78.281 7.97883C79.0344 7.48778 79.9116 7.24185 80.9109 7.24185C82.5881 7.24185 83.9686 7.88619 85.0532 9.17324C85.1884 9.34293 85.3491 9.44048 85.536 9.4659C85.7221 9.49131 85.8918 9.44458 86.0443 9.32571C86.2304 9.20767 86.3402 9.05519 86.3746 8.86828C86.4083 8.68219 86.3574 8.5043 86.2222 8.33461C85.5606 7.4886 84.781 6.85738 83.8833 6.44175Z" fill="white"/>
<path d="M97.5046 6.51802C96.5299 6.01877 95.4339 5.76792 94.2141 5.76792C93.1295 5.76792 92.1384 6.00976 91.2408 6.4926C90.5095 6.88609 89.8922 7.39927 89.3856 8.02886V6.70902V0.762389C89.3856 0.525475 89.3176 0.339386 89.1823 0.203304C89.0462 0.0680412 88.8601 0 88.6232 0C88.4027 0 88.2207 0.0680412 88.0764 0.203304C87.9322 0.339386 87.8608 0.525475 87.8608 0.762389V6.70902V12.986V19.0851C87.8608 19.3057 87.933 19.4876 88.0764 19.6319C88.2199 19.7762 88.4027 19.8475 88.6232 19.8475C88.8601 19.8475 89.0462 19.7754 89.1823 19.6319C89.3176 19.4885 89.3856 19.3057 89.3856 19.0851V12.986V11.3088C89.3856 10.5464 89.5971 9.86023 90.0209 9.25032C90.4439 8.64041 91.0202 8.16166 91.749 7.81408C92.477 7.46731 93.2992 7.29352 94.2141 7.29352C95.1453 7.29352 95.9799 7.47551 96.7168 7.84031C97.4538 8.20511 98.0383 8.75108 98.4703 9.47985C98.9023 10.2086 99.1188 11.1317 99.1188 12.2499V19.086C99.1188 19.3065 99.1909 19.4885 99.3344 19.6327C99.4778 19.777 99.6606 19.8483 99.8812 19.8483C100.101 19.8483 100.284 19.7762 100.428 19.6327C100.571 19.4893 100.644 19.3065 100.644 19.086V12.2499C100.644 10.844 100.364 9.66184 99.8049 8.70435C99.245 7.74685 98.4785 7.01808 97.5046 6.51802Z" fill="white"/>
<path d="M111.938 6.69662C110.973 6.11212 109.863 5.81946 108.609 5.81946C107.339 5.81946 106.211 6.12441 105.229 6.73432C104.246 7.34424 103.476 8.17876 102.917 9.23791C102.358 10.2971 102.078 11.521 102.078 12.9097C102.078 14.282 102.374 15.5018 102.968 16.5691C103.56 17.6365 104.378 18.471 105.42 19.0727C106.462 19.6744 107.653 19.9745 108.99 19.9745C109.786 19.9745 110.621 19.8138 111.494 19.4916C112.366 19.1703 113.074 18.7637 113.616 18.2718C113.784 18.1193 113.866 17.9505 113.857 17.7636C113.848 17.5775 113.752 17.4078 113.565 17.2553C113.429 17.1372 113.264 17.0815 113.07 17.0905C112.875 17.0995 112.71 17.1709 112.574 17.3061C112.184 17.6791 111.656 17.9791 110.986 18.2079C110.316 18.4366 109.652 18.5514 108.991 18.5514C107.94 18.5514 107.009 18.3103 106.196 17.8275C105.383 17.3446 104.747 16.6798 104.29 15.833C103.897 15.105 103.673 14.2836 103.618 13.3679H114.276C114.496 13.3679 114.674 13.304 114.81 13.1769C114.945 13.0499 115.013 12.8761 115.013 12.6564C115.013 11.3185 114.742 10.1364 114.2 9.11085C113.658 8.08531 112.904 7.28029 111.938 6.69662ZM104.251 9.96177C104.683 9.11495 105.276 8.44929 106.03 7.96726C106.784 7.48442 107.644 7.2434 108.609 7.2434C109.626 7.2434 110.511 7.48442 111.265 7.96726C112.019 8.45011 112.6 9.11495 113.007 9.96177C113.307 10.5873 113.486 11.2816 113.547 12.0456H103.65C103.734 11.2783 103.934 10.5832 104.251 9.96177Z" fill="white"/>
<path d="M125.109 6.44175C124.211 6.02695 123.22 5.81873 122.136 5.81873C120.865 5.81873 119.738 6.12778 118.756 6.74589C117.773 7.36482 117.003 8.20754 116.444 9.27489C115.885 10.3422 115.605 11.5539 115.605 12.9089C115.605 14.2476 115.906 15.4502 116.508 16.5176C117.108 17.5849 117.931 18.4326 118.973 19.0589C120.015 19.686 121.196 19.9992 122.518 19.9992C124.364 19.9992 125.906 19.4319 127.143 18.2965C127.296 18.1612 127.368 17.9956 127.359 17.8013C127.35 17.6071 127.261 17.4324 127.092 17.2808C126.956 17.1455 126.796 17.0865 126.61 17.1029C126.423 17.1201 126.254 17.1964 126.101 17.3316C125.644 17.7554 125.106 18.0686 124.488 18.2719C123.869 18.4752 123.213 18.5769 122.518 18.5769C121.451 18.5769 120.515 18.3268 119.71 17.8268C118.905 17.3275 118.275 16.6496 117.818 15.7937C117.36 14.9387 117.131 13.9763 117.131 12.9089C117.131 11.808 117.339 10.8341 117.754 9.98645C118.168 9.13963 118.753 8.47069 119.507 7.97883C120.26 7.48778 121.138 7.24185 122.137 7.24185C123.814 7.24185 125.195 7.88619 126.279 9.17324C126.414 9.34293 126.575 9.44048 126.762 9.4659C126.948 9.49131 127.118 9.44458 127.27 9.32571C127.456 9.20767 127.566 9.05519 127.601 8.86828C127.634 8.68219 127.583 8.5043 127.448 8.33461C126.787 7.4886 126.007 6.85738 125.109 6.44175Z" fill="white"/>
<path d="M139.582 18.7294L134.032 11.9375L139.43 7.03939C139.599 6.90413 139.684 6.75165 139.684 6.58196C139.684 6.41308 139.608 6.24339 139.455 6.0737C139.303 5.90482 139.146 5.81957 138.985 5.81957C138.823 5.81957 138.659 5.88761 138.49 6.02287L130.612 13.1901V0.762389C130.612 0.525474 130.544 0.339386 130.408 0.203304C130.272 0.0680412 130.086 0 129.849 0C129.629 0 129.447 0.0680412 129.303 0.203304C129.158 0.339386 129.087 0.525474 129.087 0.762389V19.0851C129.087 19.3057 129.159 19.4876 129.303 19.6319C129.446 19.7762 129.629 19.8475 129.849 19.8475C130.086 19.8475 130.272 19.7754 130.408 19.6319C130.544 19.4885 130.612 19.3057 130.612 19.0851V15.0404L132.987 12.8852L138.489 19.6188C138.624 19.7885 138.782 19.8852 138.959 19.9106C139.137 19.9361 139.311 19.8729 139.481 19.7205C139.667 19.568 139.764 19.4073 139.773 19.2376C139.782 19.0687 139.719 18.899 139.582 18.7294Z" fill="white"/>
</g>
<defs>
<linearGradient id="paint0_linear" x1="16.9193" y1="19.7517" x2="16.9193" y2="4.09769" gradientUnits="userSpaceOnUse">
<stop stop-color="#00A5FF"/>
<stop offset="1" stop-color="#CF0080"/>
</linearGradient>
<clipPath id="clip0">
<rect width="139.774" height="20" fill="white"/>
</clipPath>
</defs>
</svg>
