<svg width="16" height="16" viewBox="0 0 16 16" fill="none" xmlns="http://www.w3.org/2000/svg">
<path opacity="0.65" d="M14.7541 6.78689C15.1038 6.78689 15.3989 6.9071 15.6393 7.14754C15.8798 7.36612 16 7.65027 16 8C16 8.34973 15.8798 8.64481 15.6393 8.88525C15.3989 9.10383 15.1038 9.21311 14.7541 9.21311H9.21311V14.7541C9.21311 15.1038 9.0929 15.3989 8.85246 15.6393C8.63388 15.8798 8.34973 16 8 16C7.65027 16 7.35519 15.8798 7.11475 15.6393C6.89617 15.3989 6.78689 15.1038 6.78689 14.7541V9.21311H1.2459C0.896175 9.21311 0.601093 9.0929 0.360656 8.85246C0.120219 8.61202 0 8.32787 0 8C0 7.65027 0.120219 7.36612 0.360656 7.14754C0.601093 6.9071 0.896175 6.78689 1.2459 6.78689H6.78689V1.2459C6.78689 0.896175 6.89617 0.601094 7.11475 0.360657C7.35519 0.120219 7.65027 0 8 0C8.34973 0 8.63388 0.120219 8.85246 0.360657C9.0929 0.601094 9.21311 0.896175 9.21311 1.2459V6.78689H14.7541Z" fill="#00A5FF"/>
</svg>
