<svg width="67" height="59" viewBox="0 0 67 59" fill="none" xmlns="http://www.w3.org/2000/svg">
<path d="M27.8034 17.1966C30.7322 20.1256 30.7322 24.8744 27.8034 27.8032C24.8744 30.7323 20.1256 30.7323 17.1968 27.8032C14.2677 24.8744 14.2677 20.1256 17.1968 17.1966C20.1256 14.2678 24.8744 14.2678 27.8034 17.1966Z" stroke="#1172EB" stroke-width="3" stroke-linecap="round" stroke-linejoin="round"/>
<path opacity="0.5" fill-rule="evenodd" clip-rule="evenodd" d="M2 50.5293V8.60324C2 4.95707 4.8791 2 8.42914 2H58.7001C62.1809 2 65 4.89559 65 8.4706V50.5293C65 54.1044 62.1809 57 58.7001 57H8.3C4.81924 57 2 54.1044 2 50.5293Z" stroke="#1172EB" stroke-width="3" stroke-linecap="round" stroke-linejoin="round"/>
<path d="M43 22H56" stroke="#1172EB" stroke-width="3" stroke-linecap="round" stroke-linejoin="round"/>
<path d="M51 34H43" stroke="#1172EB" stroke-width="3" stroke-linecap="round" stroke-linejoin="round"/>
<path d="M34 44C33.4403 42.6829 32.5766 41.501 31.4665 40.538C29.5888 38.9059 27.1257 38 24.5665 38H20.4335C17.8745 38 15.4112 38.9059 13.5335 40.538C12.4235 41.501 11.5598 42.6829 11 44" stroke="#1172EB" stroke-width="3" stroke-linecap="round" stroke-linejoin="round"/>
</svg>
