<svg width="40" height="40" viewBox="0 0 40 40" fill="none" xmlns="http://www.w3.org/2000/svg">
<path d="M33.3332 35H6.6665" stroke="#1172EB" stroke-width="2" stroke-linecap="round" stroke-linejoin="round"/>
<path d="M19.1664 20.7183C19.983 20.3683 25.9997 20.1663 26.6664 19.9997C22.8664 26.4663 18.2997 31.7663 28.333 25.833C28.333 31.6663 29.5664 27.5331 34.1664 29.1664M10.8333 8.33301C11.6667 11.6663 15.8333 14.1663 20.8333 11.6663C23.85 11.583 20.233 18.9017 19.1664 20.7183L10.8333 8.33301ZM19.1664 20.7183C4.24967 26.5017 11.1997 35.7017 19.1664 20.7183V20.7183Z" stroke="#1172EB" stroke-width="2" stroke-linecap="round" stroke-linejoin="round"/>
<path opacity="0.5" d="M6.6665 20.2003L10.1998 16.667M6.6665 16.667L10.1998 20.2003L6.6665 16.667Z" stroke="#1172EB" stroke-width="2" stroke-linecap="round" stroke-linejoin="round"/>
</svg>
