<svg id="Grupo_2247" data-name="Grupo 2247" xmlns="http://www.w3.org/2000/svg" xmlns:xlink="http://www.w3.org/1999/xlink" width="80.361" height="80" viewBox="0 0 80.361 80">
  <defs>
    <clipPath id="clip-path">
      <rect id="Retângulo_119" data-name="Retângulo 119" width="80" height="80" fill="#00ffc2"/>
    </clipPath>
  </defs>
  <path id="Caminho_9495" data-name="Caminho 9495" d="M0,0V41.853H26.787V38.5H3.348V3.349H77.012V38.5H60.27v3.348h20.09V0Z" transform="translate(0 0)" fill="#00ffc2"/>
  <g id="Grupo_2246" data-name="Grupo 2246">
    <g id="Grupo_2245" data-name="Grupo 2245" clip-path="url(#clip-path)">
      <path id="Caminho_9496" data-name="Caminho 9496" d="M65.945,32.461H57.574V29.113h5.235a6.72,6.72,0,0,1,4.81-4.81V12.158a6.72,6.72,0,0,1-4.81-4.81H12.2A6.073,6.073,0,0,1,7.348,12.2V24.3a6.72,6.72,0,0,1,4.81,4.81H24.09v3.348H9.023V30.787a3.352,3.352,0,0,0-3.348-3.348H4V9.023H5.674A3.071,3.071,0,0,0,9.023,5.674V4H65.945V5.674a3.352,3.352,0,0,0,3.348,3.348h1.674V27.438H69.293a3.352,3.352,0,0,0-3.348,3.348Z" transform="translate(2.697 2.697)" fill="#00ffc2"/>
      <rect id="Retângulo_117" data-name="Retângulo 117" width="3.243" height="3.243" transform="translate(20.541 20.541)" fill="#00ffc2"/>
      <rect id="Retângulo_118" data-name="Retângulo 118" width="3.243" height="3.243" transform="translate(55.135 20.541)" fill="#00ffc2"/>
      <path id="Caminho_9497" data-name="Caminho 9497" d="M35.676,21.008,32.56,19.782a7.427,7.427,0,0,0,.511-2.736,7.134,7.134,0,0,0-1.773-4.8,5.468,5.468,0,0,0-4.083-1.9h0c-3.229,0-5.86,3-5.863,6.693a7.459,7.459,0,0,0,.511,2.739L18.743,21A10.8,10.8,0,0,1,18,17.038C18,11.5,22.137,7,27.211,7h0a8.781,8.781,0,0,1,6.573,3.01,10.474,10.474,0,0,1,2.632,7.04,10.758,10.758,0,0,1-.743,3.959" transform="translate(12.135 4.718)" fill="#00ffc2"/>
      <path id="Caminho_9498" data-name="Caminho 9498" d="M26.017,68.225H22.668V64.149c0-1.008-1.49-2.367-4.123-4.679-2.262-1.989-3.526-5.555-4.641-8.7a25.6,25.6,0,0,0-1.927-4.594C9.466,42.227,7.3,38.818,9.513,36.359a6,6,0,0,1,5.3-1.425c1.574.281,4.472,1.4,6.2,5.746A19.516,19.516,0,0,0,21.99,42.8a8.179,8.179,0,0,0,.678-3.467V23.023a5.023,5.023,0,0,1,10.045,0H29.365a1.674,1.674,0,1,0-3.348,0V39.337c0,5.19-2.694,7.328-3,7.556a1.678,1.678,0,0,1-1.634.2c-.772-.318-2-1.475-3.477-5.173-.829-2.083-2.066-3.35-3.576-3.668A3.04,3.04,0,0,0,12,38.607c-.507.563,1.989,4.48,2.808,5.769a27.328,27.328,0,0,1,2.255,5.274c.979,2.761,2.089,5.89,3.7,7.3,3.281,2.881,5.262,4.621,5.262,7.194Z" transform="translate(5.793 12.135)" fill="#00ffc2"/>
      <path id="Caminho_9499" data-name="Caminho 9499" d="M31.045,40.787H27.7V19.023a1.674,1.674,0,1,0-3.348,0V40.787H21V19.023a5.023,5.023,0,0,1,10.045,0Z" transform="translate(14.158 9.438)" fill="#00ffc2"/>
      <path id="Caminho_9500" data-name="Caminho 9500" d="M35.045,28.719H31.7v-6.7a1.674,1.674,0,1,0-3.348,0H25a5.023,5.023,0,0,1,10.045,0Z" transform="translate(16.854 11.461)" fill="#00ffc2"/>
      <path id="Caminho_9501" data-name="Caminho 9501" d="M35.7,66.2H32.348v-4.48A6.616,6.616,0,0,1,33.885,57.9a8.145,8.145,0,0,0,1.811-5.14V26.023a1.674,1.674,0,1,0-3.348,0V36.068H29V26.023a5.023,5.023,0,1,1,10.045,0V52.764a11.374,11.374,0,0,1-2.4,7.03,3.974,3.974,0,0,0-.951,1.929Z" transform="translate(19.551 14.158)" fill="#00ffc2"/>
    </g>
  </g>
</svg>
