<svg id="Grupo_2281" data-name="Grupo 2281" xmlns="http://www.w3.org/2000/svg" xmlns:xlink="http://www.w3.org/1999/xlink" width="486.576" height="41.953" viewBox="0 0 486.576 41.953">
  <defs>
    <clipPath id="clip-path">
      <rect id="Retângulo_148" data-name="Retângulo 148" width="486.576" height="41.953" fill="none"/>
    </clipPath>
  </defs>
  <g id="Grupo_2280" data-name="Grupo 2280" transform="translate(0 0)" clip-path="url(#clip-path)">
    <path id="Caminho_9586" data-name="Caminho 9586" d="M91.541,13.968a2.523,2.523,0,0,0-.952-.9,2.465,2.465,0,0,0-1.278-.3,2.543,2.543,0,0,0-1.256.377,2.616,2.616,0,0,0-.905.96,2.416,2.416,0,0,0-.311,1.282,2.377,2.377,0,0,0,.392,1.251,2.617,2.617,0,0,0,.96.9,2.411,2.411,0,0,0,1.278.311,2.446,2.446,0,0,0,1.256-.386,2.612,2.612,0,0,0,.9-.963,2.474,2.474,0,0,0,.306-1.271,2.579,2.579,0,0,0-.388-1.262" transform="translate(104.453 15.356)" fill="#fff"/>
    <path id="Caminho_9587" data-name="Caminho 9587" d="M29.679,22.824a13.4,13.4,0,0,1-4.071.595,3.6,3.6,0,0,1-2.478-.764,2.649,2.649,0,0,1-.855-2.079v-.046q0-2.657,3.566-2.661a18.493,18.493,0,0,1,3.842.432v4.525ZM30.833,5.7A9.311,9.311,0,0,0,26.3,4.681a16.555,16.555,0,0,0-3.236.3,12.24,12.24,0,0,0-2.146.617c-.015,0-.026.015-.042.015-.106.04-.214.086-.315.132-.04.015-.167.082-.209.106a2.445,2.445,0,0,0-.844.9,2.27,2.27,0,0,0,.077,2.355,2.508,2.508,0,0,0,.9.839,2.262,2.262,0,0,0,1.192.291,3.242,3.242,0,0,0,.835-.174A10.748,10.748,0,0,1,25.985,9.5a3.806,3.806,0,0,1,2.707.932,3.624,3.624,0,0,1,.991,2.771v1.227a21.016,21.016,0,0,0-2.157-.454,16.851,16.851,0,0,0-2.412-.156,8.658,8.658,0,0,0-5.668,1.749,6.434,6.434,0,0,0-2.126,5.28v.139a6.318,6.318,0,0,0,.96,3.509,6.166,6.166,0,0,0,2.7,2.284,9.521,9.521,0,0,0,4,.8,30.16,30.16,0,0,0,4.238-.286,14.993,14.993,0,0,0,3.326-.8,6.059,6.059,0,0,0,1.348-.692,1.585,1.585,0,0,0,.579-.758,3.792,3.792,0,0,0,.148-1.225V12.933a9.329,9.329,0,0,0-.96-4.355A6.8,6.8,0,0,0,30.833,5.7" transform="translate(20.834 5.631)" fill="#fff"/>
    <path id="Caminho_9588" data-name="Caminho 9588" d="M16.312,4.975a2.08,2.08,0,0,0-1.15-.291,2.162,2.162,0,0,0-1.134.368,2.536,2.536,0,0,0-1.095,1.967v18.22a2.544,2.544,0,0,0,1.095,1.969,2.159,2.159,0,0,0,1.134.366,2.108,2.108,0,0,0,1.15-.291,2.36,2.36,0,0,0,.859-.87,2.463,2.463,0,0,0,.341-1.179V7.025a2.566,2.566,0,0,0-.341-1.181,2.3,2.3,0,0,0-.859-.87" transform="translate(15.556 5.632)" fill="#fff"/>
    <path id="Caminho_9589" data-name="Caminho 9589" d="M56.376,7.1A2.364,2.364,0,0,0,56,5.869a2.6,2.6,0,0,0-.925-.879,2.318,2.318,0,0,0-2.432.077,2.456,2.456,0,0,0-.855.941,2.393,2.393,0,0,0-.291,1.17l-.009,14.911a14.385,14.385,0,0,1-4.137.595,3.935,3.935,0,0,1-2.828-1.011,3.889,3.889,0,0,1-1.064-2.945s0-11.611-.011-11.635a2.355,2.355,0,0,0-.374-1.227,2.625,2.625,0,0,0-.927-.879,2.269,2.269,0,0,0-1.225-.306,2.332,2.332,0,0,0-1.207.381A2.573,2.573,0,0,0,38.855,6a2.4,2.4,0,0,0-.291,1.172V19.007A9.455,9.455,0,0,0,39.6,23.5a7.372,7.372,0,0,0,2.917,3.011,8.733,8.733,0,0,0,4.379,1.068,25.2,25.2,0,0,0,4.639-.4,18.564,18.564,0,0,0,3.826-1.115,1.566,1.566,0,0,0,.749-.692,2.3,2.3,0,0,0,.269-1.123c0-.007,0-17.129,0-17.156" transform="translate(46.387 5.628)" fill="#fff"/>
    <path id="Caminho_9590" data-name="Caminho 9590" d="M96.958,5.73A8.229,8.229,0,0,0,92.8,4.681a12.622,12.622,0,0,0-3.536.515,17.107,17.107,0,0,0-3.267,1.322A7.188,7.188,0,0,0,83.64,5.15a8.7,8.7,0,0,0-2.881-.469,18.657,18.657,0,0,0-3.921.392,32.925,32.925,0,0,0-3.582.987,1.874,1.874,0,0,0-1.43,1.934V25.088a2.4,2.4,0,0,0,.341,1.24,2.677,2.677,0,0,0,.905.912,2.345,2.345,0,0,0,2.441-.007,2.571,2.571,0,0,0,.892-.914,2.38,2.38,0,0,0,.324-1.242c0-.066-.009-14.9-.009-14.9.606-.185,1.174-.326,1.714-.438a9.4,9.4,0,0,1,1.846-.163,3.5,3.5,0,0,1,2.564,1A3.642,3.642,0,0,1,83.862,13.3l.011,11.787a2.41,2.41,0,0,0,.341,1.231,2.67,2.67,0,0,0,.905.91,2.351,2.351,0,0,0,2.447,0,2.517,2.517,0,0,0,.883-.916,2.374,2.374,0,0,0,.326-1.22l.007-11.906a10.257,10.257,0,0,0-.251-2.273,6.448,6.448,0,0,1,3.791-1.333,3.462,3.462,0,0,1,2.564,1.033,3.757,3.757,0,0,1,1.022,2.758l.015,11.721a2.41,2.41,0,0,0,.341,1.231,2.67,2.67,0,0,0,.905.91,2.343,2.343,0,0,0,2.443,0,2.589,2.589,0,0,0,.89-.916,2.4,2.4,0,0,0,.326-1.24V12.928a8.789,8.789,0,0,0-1.024-4.274A7.326,7.326,0,0,0,96.958,5.73" transform="translate(86.396 5.631)" fill="#fff"/>
    <path id="Caminho_9591" data-name="Caminho 9591" d="M70.208,4.966a2.574,2.574,0,0,0-3.458,1.1L60.176,19.206C58.009,14.857,53.607,6.07,53.607,6.07a2.578,2.578,0,0,0-3.458-1.1,2.658,2.658,0,0,0-1.137,3.547c.022.04,8.842,17.684,8.842,17.684a2.576,2.576,0,0,0,2.124,1.372c.066.007.132.007.2.007a1.194,1.194,0,0,0,.2-.007A2.579,2.579,0,0,0,62.5,26.2S71.327,8.553,71.343,8.513a2.656,2.656,0,0,0-1.134-3.547" transform="translate(58.614 5.629)" fill="#fff"/>
    <path id="Caminho_9592" data-name="Caminho 9592" d="M41.572,5.749a8.768,8.768,0,0,0-4.379-1.068,25.244,25.244,0,0,0-4.641.4A18.784,18.784,0,0,0,28.725,6.2a1.573,1.573,0,0,0-.747.692,2.335,2.335,0,0,0-.264,1.126V25.163a2.426,2.426,0,0,0,.377,1.227,2.6,2.6,0,0,0,.925.879,2.234,2.234,0,0,0,1.227.306,2.325,2.325,0,0,0,1.2-.381,2.544,2.544,0,0,0,.859-.943,2.436,2.436,0,0,0,.291-1.17l0-14.911a14.393,14.393,0,0,1,4.141-.595,3.923,3.923,0,0,1,2.828,1.011,3.884,3.884,0,0,1,1.064,2.947s0,11.6.011,11.633a2.357,2.357,0,0,0,.377,1.227,2.552,2.552,0,0,0,.925.881,2.251,2.251,0,0,0,1.227.3,2.325,2.325,0,0,0,1.2-.381,2.524,2.524,0,0,0,.855-.941,2.4,2.4,0,0,0,.291-1.172V13.254a9.5,9.5,0,0,0-1.033-4.5,7.359,7.359,0,0,0-2.921-3.007" transform="translate(33.336 5.631)" fill="#fff"/>
    <path id="Caminho_9593" data-name="Caminho 9593" d="M21.473,4.966a2.574,2.574,0,0,0-3.458,1.1s-4.4,8.787-6.569,13.136C9.267,14.857,4.877,6.07,4.877,6.07a2.58,2.58,0,0,0-3.458-1.1A2.656,2.656,0,0,0,.284,8.513C.3,8.553,9.126,26.2,9.126,26.2a2.57,2.57,0,0,0,2.121,1.372c.066.007.335.007.4,0A2.576,2.576,0,0,0,13.77,26.2S22.6,8.553,22.612,8.513a2.661,2.661,0,0,0-1.139-3.547" transform="translate(0 5.629)" fill="#fff"/>
    <path id="Caminho_9594" data-name="Caminho 9594" d="M74.247,13.921H65.929V13a3.969,3.969,0,0,1,.544-2.071,3.645,3.645,0,0,1,1.489-1.4,4.446,4.446,0,0,1,2.1-.493,4.577,4.577,0,0,1,2.113.493,3.758,3.758,0,0,1,1.516,1.4,3.826,3.826,0,0,1,.555,2.049Zm.432-7.968a8.912,8.912,0,0,0-4.608-1.2,9.261,9.261,0,0,0-4.6,1.13,8.163,8.163,0,0,0-4.265,7.25V19.12a7.716,7.716,0,0,0,1.13,4.02,8.427,8.427,0,0,0,3.154,3.036,9.117,9.117,0,0,0,4.58,1.141,11.864,11.864,0,0,0,3.478-.493,11.6,11.6,0,0,0,2.086-.839,2.239,2.239,0,0,0,1.084-1.018,2.172,2.172,0,0,0,.275-1.156,2.256,2.256,0,0,0-.346-1.139,2.3,2.3,0,0,0-2.035-1.093,4.345,4.345,0,0,0-1.247.374,7.729,7.729,0,0,1-3.256.8,4.137,4.137,0,0,1-2.183-.579,4.027,4.027,0,0,1-1.48-1.531,4.132,4.132,0,0,1-.518-2V17.9H76.8a2.06,2.06,0,0,0,1.619-.641,2.285,2.285,0,0,0,.575-1.6V13.392a8.422,8.422,0,0,0-1.145-4.26,8.732,8.732,0,0,0-3.174-3.179" transform="translate(73.621 5.722)" fill="#fff"/>
    <path id="Caminho_9595" data-name="Caminho 9595" d="M113.281,6.393a11.888,11.888,0,0,0-11.49,0,10.886,10.886,0,0,0-4.033,4.033,11.345,11.345,0,0,0-1.48,5.8,11.526,11.526,0,0,0,1.438,5.756,10.781,10.781,0,0,0,3.912,4.033,10.671,10.671,0,0,0,5.593,1.48,10.3,10.3,0,0,0,5.291-1.359,10,10,0,0,0,3.141-2.853V25.75a1.472,1.472,0,0,0,.445,1.115,1.729,1.729,0,0,0,2.271,0,1.48,1.48,0,0,0,.445-1.115V16.222a11.638,11.638,0,0,0-1.52-5.8,10.947,10.947,0,0,0-4.014-4.033m-1.54,17.167a8.207,8.207,0,0,1-11.329-3.02,8.582,8.582,0,0,1-1.095-4.318,8.558,8.558,0,0,1,1.095-4.337,8.237,8.237,0,0,1,2.958-3.018,8.415,8.415,0,0,1,8.371,0,8.132,8.132,0,0,1,2.919,3.018,8.681,8.681,0,0,1,1.073,4.337,8.706,8.706,0,0,1-1.073,4.318,7.931,7.931,0,0,1-2.919,3.02" transform="translate(115.806 5.91)" fill="#fff"/>
    <path id="Caminho_9596" data-name="Caminho 9596" d="M125.36,6.351a12.439,12.439,0,0,0-11.613,0,10.475,10.475,0,0,0-4.014,3.992,11.658,11.658,0,0,0-1.458,5.879,11.951,11.951,0,0,0,1.4,5.835,10.181,10.181,0,0,0,3.87,3.994,11.06,11.06,0,0,0,5.675,1.438,9.657,9.657,0,0,0,5.047-1.317,9.258,9.258,0,0,0,3.465-3.648v1.844a9.653,9.653,0,0,1-1.073,4.661,7.733,7.733,0,0,1-6.992,4.177,9.716,9.716,0,0,1-4.278-.892,8.658,8.658,0,0,1-3.02-2.35,1.563,1.563,0,0,0-1.013-.608,1.5,1.5,0,0,0-1.174.242,1.261,1.261,0,0,0-.588.932,1.317,1.317,0,0,0,.385,1.055,11.179,11.179,0,0,0,4.011,3.262,12.625,12.625,0,0,0,5.635,1.2,10.811,10.811,0,0,0,9.728-5.655,11.887,11.887,0,0,0,1.46-5.9V16.222a12.065,12.065,0,0,0-1.48-5.879,10.368,10.368,0,0,0-3.972-3.992M126.678,20.6a7.66,7.66,0,0,1-2.9,2.978,8.24,8.24,0,0,1-4.236,1.075,8.348,8.348,0,0,1-4.256-1.075,7.619,7.619,0,0,1-2.919-2.978,8.894,8.894,0,0,1-1.053-4.377,9.016,9.016,0,0,1,1.053-4.4,7.633,7.633,0,0,1,2.919-3,8.391,8.391,0,0,1,4.256-1.073,8.282,8.282,0,0,1,4.236,1.073,7.674,7.674,0,0,1,2.9,3,9.016,9.016,0,0,1,1.053,4.4,8.894,8.894,0,0,1-1.053,4.377" transform="translate(130.238 5.91)" fill="#fff"/>
    <path id="Caminho_9597" data-name="Caminho 9597" d="M137.318,6.373a12.195,12.195,0,0,0-11.574,0,10.6,10.6,0,0,0-4.014,4.011,11.569,11.569,0,0,0-1.458,5.838,11.489,11.489,0,0,0,1.458,5.8,10.6,10.6,0,0,0,4.014,4.011,12.195,12.195,0,0,0,11.574,0,10.8,10.8,0,0,0,4.011-4.011,11.347,11.347,0,0,0,1.48-5.8,11.844,11.844,0,0,0-1.5-5.838,10.654,10.654,0,0,0-3.992-4.011m1.357,14.186a7.781,7.781,0,0,1-2.919,3,8.662,8.662,0,0,1-8.43,0,7.909,7.909,0,0,1-2.939-3,8.654,8.654,0,0,1-1.075-4.337,8.77,8.77,0,0,1,1.075-4.357,7.885,7.885,0,0,1,2.939-3.02,8.662,8.662,0,0,1,8.43,0,7.758,7.758,0,0,1,2.919,3.02,8.924,8.924,0,0,1,1.053,4.357,8.805,8.805,0,0,1-1.053,4.337" transform="translate(144.669 5.91)" fill="#fff"/>
    <path id="Caminho_9598" data-name="Caminho 9598" d="M145.693,5.421a6.371,6.371,0,0,0-2.877-.526,8.278,8.278,0,0,0-4.278,1.134,8.719,8.719,0,0,0-2.654,2.425V6.677a1.543,1.543,0,0,0-.405-1.134,1.793,1.793,0,0,0-2.271,0,1.543,1.543,0,0,0-.405,1.134V25.769a1.544,1.544,0,1,0,3.082,0V13.649a5.313,5.313,0,0,1,1.033-3.282,6.1,6.1,0,0,1,2.8-2.046,9.005,9.005,0,0,1,4.033-.467c.458.026.87.055,1.236.082a1.688,1.688,0,0,0,.932-.163,1.2,1.2,0,0,0,.548-.811,1.276,1.276,0,0,0-.771-1.54" transform="translate(159.74 5.888)" fill="#fff"/>
    <path id="Caminho_9599" data-name="Caminho 9599" d="M156.5,6.393a11.892,11.892,0,0,0-11.492,0,10.9,10.9,0,0,0-4.031,4.033,11.345,11.345,0,0,0-1.48,5.8,11.526,11.526,0,0,0,1.438,5.756,10.653,10.653,0,0,0,9.505,5.514,10.3,10.3,0,0,0,5.291-1.359,10,10,0,0,0,3.141-2.853V25.75a1.472,1.472,0,0,0,.445,1.115,1.729,1.729,0,0,0,2.271,0,1.48,1.48,0,0,0,.445-1.115V16.222a11.638,11.638,0,0,0-1.52-5.8A10.947,10.947,0,0,0,156.5,6.393m-1.54,17.167a8.206,8.206,0,0,1-11.329-3.02,8.582,8.582,0,0,1-1.095-4.318,8.558,8.558,0,0,1,1.095-4.337,8.237,8.237,0,0,1,2.958-3.018,8.415,8.415,0,0,1,8.371,0,8.132,8.132,0,0,1,2.919,3.018,8.681,8.681,0,0,1,1.073,4.337,8.706,8.706,0,0,1-1.073,4.318,7.931,7.931,0,0,1-2.919,3.02" transform="translate(167.798 5.91)" fill="#fff"/>
    <path id="Caminho_9600" data-name="Caminho 9600" d="M175.966,10.184a9.451,9.451,0,0,0-3.547-3.873,10.106,10.106,0,0,0-5.371-1.4,10.16,10.16,0,0,0-9.263,5.452,12.217,12.217,0,0,0-1.357,5.857,11.7,11.7,0,0,0,1.438,5.838,10.349,10.349,0,0,0,3.974,3.994,11.783,11.783,0,0,0,9.787.687,11,11,0,0,0,3.406-1.883,1.173,1.173,0,0,0,.467-.974,1.507,1.507,0,0,0-.549-1.053,1.423,1.423,0,0,0-.971-.3,1.639,1.639,0,0,0-1.013.385,7.121,7.121,0,0,1-2.372,1.275,8.986,8.986,0,0,1-2.939.507,8.307,8.307,0,0,1-4.3-1.095,7.9,7.9,0,0,1-2.939-3,8.4,8.4,0,0,1-1.024-3.366h16.365a1.477,1.477,0,0,0,1.055-.383,1.367,1.367,0,0,0,.405-1.035,12.269,12.269,0,0,0-1.258-5.633M163,8.805a7.463,7.463,0,0,1,4.053-1.095,7.087,7.087,0,0,1,3.912,1.055,6.937,6.937,0,0,1,2.533,2.917,8.8,8.8,0,0,1,.8,2.961H159.456a9.155,9.155,0,0,1,.844-2.817,7.293,7.293,0,0,1,2.7-3.02" transform="translate(188.16 5.91)" fill="#fff"/>
    <path id="Caminho_9601" data-name="Caminho 9601" d="M161.894,7.661a1.419,1.419,0,0,0,1.053-.405l4.54-4.58a1.122,1.122,0,0,0,.346-.487,1.72,1.72,0,0,0,.1-.568,1.606,1.606,0,0,0-.447-1.154,1.588,1.588,0,0,0-2.229-.02l-4.58,4.58a1.52,1.52,0,0,0-.366,1.053,1.595,1.595,0,0,0,1.582,1.582" transform="translate(192.831 0)" fill="#fff"/>
    <rect id="Retângulo_146" data-name="Retângulo 146" width="4.536" height="24.59" transform="translate(408.643 9.463)" fill="#fd0966"/>
    <path id="Caminho_9602" data-name="Caminho 9602" d="M210.8,28.886h-4.536V16.94a8.11,8.11,0,0,0-16.22,0V28.886h-4.533V16.94a12.644,12.644,0,0,1,25.289,0Z" transform="translate(223.138 5.167)" fill="#fff"/>
    <path id="Caminho_9603" data-name="Caminho 9603" d="M185.644,28.886A12.659,12.659,0,0,1,173,16.242V4.3h4.533V16.242a8.111,8.111,0,0,0,16.222,0V4.3h4.533V16.242a12.658,12.658,0,0,1-12.642,12.644" transform="translate(208.089 5.167)" fill="#fff"/>
    <rect id="Retângulo_147" data-name="Retângulo 147" width="4.536" height="24.59" transform="translate(436.201 9.463)" fill="#fff"/>
    <path id="Caminho_9604" data-name="Caminho 9604" d="M222.017,28.886a12.3,12.3,0,1,1,12.294-12.294,12.31,12.31,0,0,1-12.294,12.294m0-20.055a7.761,7.761,0,1,0,7.761,7.761,7.77,7.77,0,0,0-7.761-7.761" transform="translate(252.262 5.167)" fill="#fff"/>
    <path id="Caminho_9605" data-name="Caminho 9605" d="M213.4,28.886a12.3,12.3,0,1,1,7.005-22.4l-2.586,3.725a7.76,7.76,0,1,0,0,12.761L220.4,26.7a12.235,12.235,0,0,1-7.005,2.19" transform="translate(241.898 5.167)" fill="#fff"/>
  </g>
</svg>
