<svg xmlns="http://www.w3.org/2000/svg" xmlns:xlink="http://www.w3.org/1999/xlink" width="81.984" height="57.493" viewBox="0 0 81.984 57.493">
  <defs>
    <clipPath id="clip-path">
      <rect id="Retângulo_100" data-name="Retângulo 100" width="81.984" height="57.493" fill="#e42d00" stroke="#e42d00" stroke-width="3"/>
    </clipPath>
  </defs>
  <g id="Grupo_2228" data-name="Grupo 2228" transform="translate(0 0)">
    <g id="Grupo_2227" data-name="Grupo 2227" transform="translate(0 0)" clip-path="url(#clip-path)">
      <path id="Caminho_9462" data-name="Caminho 9462" d="M56.132,34.357a3.244,3.244,0,0,1-2.193-.82c-3.489-3.081-9.7-9.446-14.233-14.093-1.564-1.6-2.914-2.987-3.8-3.872-.117-.117-.654-.487-2.644-.326a46.648,46.648,0,0,0-5.487.962c-1.605.344-3.265.7-4.725.885a9.859,9.859,0,0,1-5.758-1.166,10.565,10.565,0,0,1-3.9-3.41c-1.265-1.963-.793-3.329-.4-3.968.358-.582,1.1-1.3,4.088-2.608,2.2-.963,4.764-1.872,6.529-2.465,2.342-.787,4.683-1.492,6.59-1.984,3.144-.812,3.918-.753,4.4-.635a37.078,37.078,0,0,1,3.689,1.393c1.528.621,3.259,1.325,4.781,1.864a14.4,14.4,0,0,0,2.806.8c.909-.625,3.828-3.123,6.243-5.284l2,2.235c-.016.014-1.583,1.417-3.21,2.813-.963.827-1.761,1.492-2.371,1.977-1.234.981-1.615,1.168-2.049,1.235-1.42.22-4.026-.7-9.33-2.86-1.316-.535-2.676-1.087-3.208-1.24a53.356,53.356,0,0,0-9.411,2.541c-2.307.776-4.383,1.554-6,2.252a13.7,13.7,0,0,0-2.959,1.542,3.459,3.459,0,0,0,1.059,1.645,7.787,7.787,0,0,0,6.041,2.349c1.335-.17,2.86-.5,4.476-.842,4.534-.97,8.816-1.887,10.88.177.9.9,2.255,2.289,3.826,3.9,4.5,4.614,10.667,10.932,14.072,13.939.044.038.1.091.336.059.559-.078,2.771-.821,7.76-7.119,2.8-3.531,5.046-7.021,5.068-7.056l2.524,1.622c-.095.147-2.353,3.651-5.24,7.3a48.325,48.325,0,0,1-4.7,5.239c-1.944,1.814-3.578,2.792-5,2.989A3.936,3.936,0,0,1,56.132,34.357Z" transform="translate(10.184 0.539)" fill="#e42d00"/>
      <path id="Linha_24" data-name="Linha 24" d="M4.516,6.722-1.069,1.053,1.069-1.053,6.654,4.617Z" transform="translate(36.9 45.886)" fill="#e42d00"/>
      <path id="Linha_25" data-name="Linha 25" d="M8.684,11.581-1.1,1.019,1.1-1.019,10.884,9.542Z" transform="translate(41.965 37.931)" fill="#e42d00"/>
      <path id="Linha_26" data-name="Linha 26" d="M10.537,13.077-1.079,1.042,1.079-1.042,12.7,10.994Z" transform="translate(48.537 31.558)" fill="#e42d00"/>
      <path id="Caminho_9463" data-name="Caminho 9463" d="M23.277,43.257a4.911,4.911,0,0,1-3.5-1.45L2.649,24.679a4.954,4.954,0,0,1,0-7l3.065-3.063A4.273,4.273,0,0,1,8.761,13.37a5.82,5.82,0,0,1,4.025,1.8,5.859,5.859,0,0,1,1.791,3.714,6.267,6.267,0,0,1,5.471,5.22q.018.141.027.281a6.238,6.238,0,0,1,5.5,5.5,5.914,5.914,0,0,1,3.712,1.789c2.172,2.168,2.411,5.208.554,7.07l-3.067,3.065A4.915,4.915,0,0,1,23.277,43.257ZM8.761,16.37a1.244,1.244,0,0,0-.925.369L4.77,19.8a1.949,1.949,0,0,0,0,2.755L21.9,39.686a1.947,1.947,0,0,0,2.754,0l3.065-3.063c.739-.741.267-2.01-.552-2.828a2.864,2.864,0,0,0-1.9-.922,1.25,1.25,0,0,0-.928.37,1.5,1.5,0,0,1-2.119-2.124,1.241,1.241,0,0,0,.37-.923,3.212,3.212,0,0,0-2.824-2.823,1.245,1.245,0,0,0-.926.369,1.5,1.5,0,1,1-2.121-2.121,1.312,1.312,0,0,0,.355-1.148,3.022,3.022,0,0,0-.9-1.681,2.867,2.867,0,0,0-1.9-.921,1.243,1.243,0,0,0-.925.37,1.5,1.5,0,0,1-2.123-2.12c.741-.742.27-2.013-.549-2.832A2.864,2.864,0,0,0,8.761,16.37Z" transform="translate(1.954 10.762)" fill="#e42d00"/>
      <path id="Caminho_9464" data-name="Caminho 9464" d="M24.578,43.433a7.106,7.106,0,0,1-5.066-2.378l-2.635-2.634-.007-.007L15.8,37.326l2.135-2.108L19,36.3l2.633,2.631a4.018,4.018,0,0,0,3.292,1.477c1.4-.182,2.913-1.469,4.059-3.443a1.5,1.5,0,0,1,1.985-.58,5.045,5.045,0,0,0,3.921.3,5.8,5.8,0,0,0,3.319-2.711,1.5,1.5,0,0,1,2-.661,4.036,4.036,0,0,0,4.343-.4,4.2,4.2,0,0,0,1.911-2.95,1.5,1.5,0,0,1,1.4-1.7,5.291,5.291,0,0,0,4.5-3.05,4.978,4.978,0,0,0-.649-5.2l2.4-1.8a8.277,8.277,0,0,1,1.67,4.2,7.857,7.857,0,0,1-.7,4.056,8.281,8.281,0,0,1-5.733,4.6,6.274,6.274,0,0,1-.657,1.631A8.463,8.463,0,0,1,46.3,35.346,7.045,7.045,0,0,1,40.15,36.5a8.972,8.972,0,0,1-4.343,3.047,8.127,8.127,0,0,1-4.94.035,8.5,8.5,0,0,1-5.554,3.807A5.682,5.682,0,0,1,24.578,43.433Z" transform="translate(12.205 13.835)" fill="#e42d00"/>
      <path id="Caminho_9465" data-name="Caminho 9465" d="M5.488,20.455a14.1,14.1,0,0,1-2.409-4.1L-.36,12.786,1.8,10.7,5.481,14.52a1.5,1.5,0,0,1,.361.622A10.389,10.389,0,0,0,7.8,18.549Z" transform="translate(0.521 8.5)" fill="#e42d00"/>
      <path id="Linha_27" data-name="Linha 27" d="M5.141,7.266l-6.2-6.206L1.061-1.06l6.2,6.206Z" transform="translate(18.486 3.402)" fill="#e42d00"/>
      <path id="Linha_28" data-name="Linha 28" d="M1.077,6.632-1.077,4.545,4.337-1.044,6.492,1.044Z" transform="translate(8.815 31.941)" fill="#e42d00"/>
      <path id="Linha_29" data-name="Linha 29" d="M1.077,6.632-1.077,4.545,4.337-1.044,6.492,1.044Z" transform="translate(8.815 31.941)" fill="#e42d00"/>
      <path id="Linha_30" data-name="Linha 30" d="M1.077,6.632-1.077,4.545,4.337-1.044,6.492,1.044Z" transform="translate(14.316 37.442)" fill="#e42d00"/>
      <path id="Linha_31" data-name="Linha 31" d="M1.077,6.632-1.077,4.545,4.337-1.044,6.492,1.044Z" transform="translate(19.818 42.943)" fill="#e42d00"/>
    </g>
  </g>
</svg>
