<svg id="Grupo_2253" data-name="Grupo 2253" xmlns="http://www.w3.org/2000/svg" xmlns:xlink="http://www.w3.org/1999/xlink" width="83.646" height="73.832" viewBox="0 0 83.646 73.832">
  <defs>
    <clipPath id="clip-path">
      <rect id="Retângulo_127" data-name="Retângulo 127" width="83.646" height="73.832" fill="#e42d00"/>
    </clipPath>
  </defs>
  <g id="Grupo_2252" data-name="Grupo 2252" clip-path="url(#clip-path)">
    <path id="Caminho_9505" data-name="Caminho 9505" d="M42.637,21.348A10.674,10.674,0,1,1,53.311,10.675,10.686,10.686,0,0,1,42.637,21.348m0-18.117a7.443,7.443,0,1,0,7.443,7.443,7.451,7.451,0,0,0-7.443-7.443" transform="translate(-25.507)" fill="#e42d00"/>
    <path id="Caminho_9506" data-name="Caminho 9506" d="M33.067,216.779a1.616,1.616,0,0,1-1.616-1.616V180.741a1.616,1.616,0,1,1,3.232,0v34.422a1.616,1.616,0,0,1-1.616,1.616" transform="translate(-25.099 -142.947)" fill="#e42d00"/>
    <path id="Caminho_9507" data-name="Caminho 9507" d="M123.882,216.775a1.616,1.616,0,0,1-1.616-1.616V180.741a1.616,1.616,0,1,1,3.232,0v34.419a1.616,1.616,0,0,1-1.616,1.616" transform="translate(-97.572 -142.947)" fill="#e42d00"/>
    <path id="Caminho_9508" data-name="Caminho 9508" d="M26.312,148.018v-3.232a4.738,4.738,0,0,0,4.716-4.858V120.153a4.86,4.86,0,0,0-4.858-4.85H8.091a4.86,4.86,0,0,0-4.858,4.85v19.775a4.746,4.746,0,0,0,4.733,4.858v3.232A8.037,8.037,0,0,1,0,139.928V120.153a8.1,8.1,0,0,1,8.09-8.081H26.169a8.1,8.1,0,0,1,8.09,8.081v19.775a8.029,8.029,0,0,1-7.947,8.09" transform="translate(-0.001 -89.437)" fill="#e42d00"/>
    <path id="Caminho_9509" data-name="Caminho 9509" d="M78.429,292.534a1.616,1.616,0,0,1-1.616-1.616v-15.25a1.616,1.616,0,1,1,3.232,0v15.25a1.616,1.616,0,0,1-1.616,1.616" transform="translate(-61.299 -218.702)" fill="#e42d00"/>
    <path id="Caminho_9510" data-name="Caminho 9510" d="M164.9,21.348a10.674,10.674,0,1,1,10.674-10.674A10.686,10.686,0,0,1,164.9,21.348m0-18.117a7.443,7.443,0,1,0,7.442,7.443A7.451,7.451,0,0,0,164.9,3.232" transform="translate(-123.079)" fill="#e42d00"/>
    <path id="Caminho_9511" data-name="Caminho 9511" d="M155.333,312.778a1.616,1.616,0,0,1-1.616-1.616V301.036a1.616,1.616,0,1,1,3.232,0v10.126a1.616,1.616,0,0,1-1.616,1.616" transform="translate(-122.671 -238.946)" fill="#e42d00"/>
    <path id="Caminho_9512" data-name="Caminho 9512" d="M246.149,216.775a1.616,1.616,0,0,1-1.616-1.616V180.741a1.616,1.616,0,1,1,3.232,0v34.419a1.616,1.616,0,0,1-1.616,1.616" transform="translate(-195.145 -142.947)" fill="#e42d00"/>
    <path id="Caminho_9513" data-name="Caminho 9513" d="M190.513,148.018a1.616,1.616,0,0,1,0-3.232,4.738,4.738,0,0,0,4.716-4.858V120.153a4.86,4.86,0,0,0-4.858-4.85H176.432a1.616,1.616,0,1,1,0-3.232h13.939a8.1,8.1,0,0,1,8.09,8.081v19.775a8.029,8.029,0,0,1-7.947,8.09" transform="translate(-139.508 -89.437)" fill="#e42d00"/>
    <path id="Caminho_9514" data-name="Caminho 9514" d="M200.7,292.534a1.616,1.616,0,0,1-1.616-1.616v-15.25a1.616,1.616,0,1,1,3.232,0v15.25a1.616,1.616,0,0,1-1.616,1.616" transform="translate(-158.872 -218.702)" fill="#e42d00"/>
    <path id="Caminho_9515" data-name="Caminho 9515" d="M287.168,21.348a10.674,10.674,0,1,1,10.674-10.674,10.686,10.686,0,0,1-10.674,10.674m0-18.117a7.443,7.443,0,1,0,7.442,7.443,7.451,7.451,0,0,0-7.442-7.443" transform="translate(-220.65)" fill="#e42d00"/>
    <path id="Caminho_9516" data-name="Caminho 9516" d="M277.6,312.778a1.616,1.616,0,0,1-1.616-1.616V301.036a1.616,1.616,0,1,1,3.231,0v10.126a1.616,1.616,0,0,1-1.616,1.616" transform="translate(-220.243 -238.946)" fill="#e42d00"/>
    <path id="Caminho_9517" data-name="Caminho 9517" d="M368.415,216.775a1.616,1.616,0,0,1-1.616-1.616V180.741a1.616,1.616,0,1,1,3.232,0v34.419a1.616,1.616,0,0,1-1.616,1.616" transform="translate(-292.716 -142.947)" fill="#e42d00"/>
    <path id="Caminho_9518" data-name="Caminho 9518" d="M312.779,148.018a1.616,1.616,0,0,1,0-3.232,4.738,4.738,0,0,0,4.716-4.858V120.153a4.859,4.859,0,0,0-4.858-4.85H298.7a1.616,1.616,0,1,1,0-3.232h13.939a8.1,8.1,0,0,1,8.09,8.081v19.775a8.029,8.029,0,0,1-7.947,8.09" transform="translate(-237.08 -89.437)" fill="#e42d00"/>
    <path id="Caminho_9519" data-name="Caminho 9519" d="M322.962,292.534a1.616,1.616,0,0,1-1.616-1.616v-15.25a1.616,1.616,0,1,1,3.232,0v15.25a1.616,1.616,0,0,1-1.616,1.616" transform="translate(-256.444 -218.702)" fill="#e42d00"/>
  </g>
</svg>
