<svg xmlns="http://www.w3.org/2000/svg" xmlns:xlink="http://www.w3.org/1999/xlink" width="82" height="60" viewBox="0 0 82 60">
  <defs>
    <clipPath id="clip-path">
      <rect id="Retângulo_99" data-name="Retângulo 99" width="82" height="60" transform="translate(0.143 0.5)" fill="#e42d00" stroke="#e42d00" stroke-width="3"/>
    </clipPath>
  </defs>
  <g id="Grupo_2226" data-name="Grupo 2226" transform="translate(-0.143 -0.5)">
    <g id="Grupo_2225" data-name="Grupo 2225" clip-path="url(#clip-path)">
      <path id="Caminho_9458" data-name="Caminho 9458" d="M71.286,50.5H2.714A3.218,3.218,0,0,1-.5,47.286V2.714A3.218,3.218,0,0,1,2.714-.5H78.143a3.218,3.218,0,0,1,3.214,3.214V43.857h-3V2.714a.215.215,0,0,0-.214-.214H2.714a.215.215,0,0,0-.214.214V47.286a.215.215,0,0,0,.214.214H71.286Z" transform="translate(0.714 0.714)" fill="#e42d00"/>
      <path id="Linha_20" data-name="Linha 20" d="M1.5,9h-3V0h3Z" transform="translate(36.143 49.5)" fill="#e42d00"/>
      <path id="Linha_21" data-name="Linha 21" d="M1.5,9h-3V0h3Z" transform="translate(46.143 49.5)" fill="#e42d00"/>
      <path id="Linha_22" data-name="Linha 22" d="M34,1.5H0v-3H34Z" transform="translate(24.143 58.5)" fill="#e42d00"/>
      <path id="Elipse_2" data-name="Elipse 2" d="M13-1.5A14.674,14.674,0,0,1,23.232,2.58a13.663,13.663,0,0,1,0,19.84A14.674,14.674,0,0,1,13,26.5,14.674,14.674,0,0,1,2.768,22.42a13.663,13.663,0,0,1,0-19.84A14.674,14.674,0,0,1,13-1.5Zm0,25a11.271,11.271,0,0,0,11.5-11A11.271,11.271,0,0,0,13,1.5a11.271,11.271,0,0,0-11.5,11A11.271,11.271,0,0,0,13,23.5Z" transform="translate(48.143 17.5)" fill="#e42d00"/>
      <path id="Linha_23" data-name="Linha 23" d="M10.939,13.061l-12-12L1.061-1.061l12,12Z" transform="translate(68.143 39.5)" fill="#e42d00"/>
      <path id="Caminho_9459" data-name="Caminho 9459" d="M25.5,40.286h-3V4.5H34.071v8.357h-3V7.5H25.5Z" transform="translate(17.143 4.286)" fill="#e42d00"/>
      <path id="Caminho_9460" data-name="Caminho 9460" d="M25.071,36h-3V13.5H16.5V36h-3V10.5H25.071Z" transform="translate(10.714 8.571)" fill="#e42d00"/>
      <path id="Caminho_9461" data-name="Caminho 9461" d="M16.071,32.429h-3V18.5H7.5V32.429h-3V15.5H16.071Z" transform="translate(4.286 12.143)" fill="#e42d00"/>
    </g>
  </g>
</svg>
