<svg xmlns="http://www.w3.org/2000/svg" xmlns:xlink="http://www.w3.org/1999/xlink" width="70" height="80" viewBox="0 0 70 80">
  <defs>
    <clipPath id="clip-path">
      <rect id="Retângulo_116" data-name="Retângulo 116" width="70" height="80" transform="translate(0.333 0.381)" fill="#e42d00"/>
    </clipPath>
  </defs>
  <g id="Grupo_2244" data-name="Grupo 2244" transform="translate(-0.333 -0.381)">
    <g id="Grupo_2243" data-name="Grupo 2243" clip-path="url(#clip-path)">
      <path id="Caminho_9483" data-name="Caminho 9483" d="M45.428,77.4H1.683A1.683,1.683,0,0,1,0,75.714V1.683A1.683,1.683,0,0,1,1.683,0H48.793a1.683,1.683,0,0,1,1.19.493l6.73,6.73a1.683,1.683,0,0,1,.493,1.19V31.968a1.683,1.683,0,1,1-3.365,0V9.11L48.1,3.365H3.365V74.032H45.428a1.683,1.683,0,0,1,0,3.365" fill="#e42d00"/>
      <path id="Caminho_9484" data-name="Caminho 9484" d="M214.73,32.413h-5.048A1.683,1.683,0,0,1,208,30.73V25.683a1.683,1.683,0,0,1,3.365,0v3.365h3.365a1.683,1.683,0,1,1,0,3.365" transform="translate(-164.254 -18.952)" fill="#e42d00"/>
      <path id="Caminho_9485" data-name="Caminho 9485" d="M146.508,107.365H129.683a1.683,1.683,0,1,1,0-3.365h16.825a1.683,1.683,0,0,1,0,3.365" transform="translate(-101.079 -82.127)" fill="#e42d00"/>
      <path id="Caminho_9486" data-name="Caminho 9486" d="M138.1,75.365h-8.413a1.683,1.683,0,1,1,0-3.365H138.1a1.683,1.683,0,1,1,0,3.365" transform="translate(-101.079 -56.857)" fill="#e42d00"/>
      <path id="Caminho_9487" data-name="Caminho 9487" d="M138.1,139.365h-8.413a1.683,1.683,0,1,1,0-3.365H138.1a1.683,1.683,0,1,1,0,3.365" transform="translate(-101.079 -107.397)" fill="#e42d00"/>
      <path id="Caminho_9488" data-name="Caminho 9488" d="M48.414,84.191H45.049A5.053,5.053,0,0,1,40,79.144V77.461h3.365v1.683a1.685,1.685,0,0,0,1.683,1.683h3.365A1.685,1.685,0,0,0,50.1,79.144V78.2a1.68,1.68,0,0,0-1.15-1.6l-5.493-1.831A5.041,5.041,0,0,1,40,69.988v-.94A5.053,5.053,0,0,1,45.049,64h3.365a5.053,5.053,0,0,1,5.048,5.048v1.683H50.1V69.049a1.684,1.684,0,0,0-1.683-1.683H45.049a1.684,1.684,0,0,0-1.683,1.683v.94a1.68,1.68,0,0,0,1.15,1.6l5.494,1.831A5.041,5.041,0,0,1,53.461,78.2v.94a5.053,5.053,0,0,1-5.048,5.048" transform="translate(-31.588 -50.541)" fill="#e42d00"/>
      <rect id="Retângulo_114" data-name="Retângulo 114" width="3" height="5" transform="translate(13.333 10.381)" fill="#e42d00"/>
      <rect id="Retângulo_115" data-name="Retângulo 115" width="3" height="5" transform="translate(13.333 32.381)" fill="#e42d00"/>
      <path id="Caminho_9489" data-name="Caminho 9489" d="M168.413,174.286a1.683,1.683,0,0,1-1.683-1.683v-10.1h-5.048a1.682,1.682,0,0,1-1.328-2.716l11.778-15.143a1.682,1.682,0,0,1,2.656,0l11.778,15.143a1.682,1.682,0,0,1-1.328,2.716H180.19v1.683a1.683,1.683,0,0,1-3.365,0v-3.365a1.683,1.683,0,0,1,1.683-1.683h3.29l-8.338-10.72-8.338,10.72h3.29a1.683,1.683,0,0,1,1.683,1.683V172.6a1.683,1.683,0,0,1-1.683,1.683" transform="translate(-126.349 -113.714)" fill="#e42d00"/>
      <path id="Caminho_9490" data-name="Caminho 9490" d="M221.46,282.921a1.682,1.682,0,0,1-1.328-.65l-11.778-15.143a1.682,1.682,0,0,1,1.328-2.715h5.048v-5.048a1.683,1.683,0,0,1,3.365,0v6.73a1.683,1.683,0,0,1-1.683,1.683h-3.29l8.338,10.72,8.338-10.72h-3.29a1.683,1.683,0,0,1-1.683-1.683v-8.413a1.683,1.683,0,1,1,3.365,0v6.73h5.048a1.682,1.682,0,0,1,1.328,2.715l-11.778,15.143a1.682,1.682,0,0,1-1.328.65" transform="translate(-164.254 -202.159)" fill="#e42d00"/>
      <path id="Caminho_9491" data-name="Caminho 9491" d="M49.683,258.508A1.683,1.683,0,0,1,48,256.825V241.683a1.683,1.683,0,0,1,3.365,0v15.143a1.683,1.683,0,0,1-1.683,1.683" transform="translate(-37.905 -189.524)" fill="#e42d00"/>
      <path id="Caminho_9492" data-name="Caminho 9492" d="M81.683,290.1A1.683,1.683,0,0,1,80,288.413v-6.73a1.683,1.683,0,1,1,3.365,0v6.73a1.683,1.683,0,0,1-1.683,1.683" transform="translate(-63.175 -221.111)" fill="#e42d00"/>
      <path id="Caminho_9493" data-name="Caminho 9493" d="M113.683,258.508A1.683,1.683,0,0,1,112,256.825V241.683a1.683,1.683,0,0,1,3.365,0v15.143a1.683,1.683,0,0,1-1.683,1.683" transform="translate(-88.444 -189.524)" fill="#e42d00"/>
      <path id="Caminho_9494" data-name="Caminho 9494" d="M145.683,271.143A1.683,1.683,0,0,1,144,269.46V257.683a1.683,1.683,0,1,1,3.365,0V269.46a1.683,1.683,0,0,1-1.683,1.683" transform="translate(-113.714 -202.159)" fill="#e42d00"/>
    </g>
  </g>
</svg>
