<svg width="237" height="41" viewBox="0 0 237 41" fill="none" xmlns="http://www.w3.org/2000/svg">
<path d="M105.306 9.17087H104.477V31.4249H105.306V9.17087Z" fill="#DADADA"/>
<path d="M117.029 40.5958C116.698 40.5958 116.408 40.4696 116.201 40.2592C115.994 40.0489 115.869 39.7544 115.869 39.4179V20.1086C115.911 18.0052 116.408 16.1121 117.402 14.5135C118.355 12.8729 119.681 11.5688 121.338 10.6012C122.995 9.63362 124.859 9.17087 126.889 9.17087C129.002 9.17087 130.866 9.67569 132.523 10.6433C134.18 11.6108 135.505 12.957 136.458 14.6397C137.411 16.3225 137.908 18.2576 137.908 20.361C137.908 22.4644 137.411 24.3575 136.458 26.0402C135.505 27.7229 134.18 29.0691 132.523 30.0367C130.866 31.0042 128.96 31.5091 126.889 31.5091C124.983 31.5091 123.285 31.0884 121.793 30.2891C120.302 29.4477 119.101 28.354 118.272 26.9657V39.4179C118.272 39.7544 118.148 40.0489 117.941 40.2592C117.692 40.5117 117.402 40.5958 117.029 40.5958ZM126.806 29.2374C128.463 29.2374 129.954 28.8588 131.239 28.0595C132.523 27.2602 133.558 26.2085 134.346 24.8623C135.091 23.5161 135.505 22.0017 135.505 20.3189C135.505 18.5941 135.133 17.0797 134.346 15.7335C133.6 14.3873 132.564 13.3356 131.239 12.5363C129.954 11.737 128.463 11.3584 126.806 11.3584C125.19 11.3584 123.699 11.737 122.415 12.5363C121.089 13.3356 120.053 14.3873 119.308 15.7335C118.562 17.0797 118.189 18.5941 118.189 20.3189C118.189 22.0017 118.562 23.5161 119.308 24.8623C120.053 26.2085 121.089 27.2602 122.415 28.0595C123.74 28.8588 125.19 29.2374 126.806 29.2374Z" fill="#B2B2B2"/>
<path d="M150.585 31.467C148.513 31.467 146.649 31.0042 145.075 30.0367C143.459 29.1112 142.175 27.765 141.264 26.0823C140.352 24.3995 139.897 22.4644 139.897 20.3189C139.897 18.1314 140.311 16.1962 141.181 14.5556C142.051 12.8729 143.252 11.5688 144.744 10.6012C146.276 9.63362 148.016 9.17087 149.963 9.17087C151.91 9.17087 153.609 9.63362 155.1 10.5591C156.592 11.4846 157.751 12.7467 158.621 14.3453C159.45 15.9438 159.864 17.8369 159.864 19.9403C159.864 20.2769 159.74 20.5713 159.533 20.7396C159.326 20.95 159.036 21.0341 158.704 21.0341H141.388V18.9727H159.326L157.586 20.2769C157.627 18.5521 157.337 16.9955 156.716 15.6914C156.094 14.3453 155.183 13.2935 154.023 12.5363C152.863 11.7791 151.496 11.4005 149.922 11.4005C148.431 11.4005 147.105 11.7791 145.945 12.5363C144.785 13.2935 143.874 14.3453 143.169 15.6914C142.507 17.0376 142.175 18.5521 142.175 20.3189C142.175 22.0437 142.548 23.6002 143.252 24.9044C143.957 26.2505 144.951 27.3022 146.194 28.0595C147.436 28.8167 148.886 29.1953 150.543 29.1953C151.579 29.1953 152.615 29.027 153.65 28.6484C154.686 28.2698 155.514 27.8071 156.094 27.2181C156.302 27.0078 156.55 26.8816 156.882 26.8816C157.172 26.8816 157.42 26.9657 157.669 27.134C157.959 27.3864 158.124 27.6388 158.124 27.9333C158.124 28.2277 158 28.4802 157.751 28.7326C156.923 29.4898 155.804 30.1629 154.479 30.6677C153.07 31.2146 151.786 31.467 150.585 31.467Z" fill="#B2B2B2"/>
<path d="M172.914 31.5091C170.801 31.5091 168.937 31.0043 167.28 30.0367C165.623 29.0691 164.297 27.7229 163.344 26.0402C162.392 24.3575 161.895 22.4644 161.895 20.361C161.895 18.2155 162.392 16.3225 163.344 14.6397C164.297 12.957 165.623 11.6108 167.28 10.6433C168.937 9.67569 170.843 9.17087 172.914 9.17087C175.027 9.17087 176.891 9.67569 178.548 10.6433C180.205 11.6108 181.489 12.957 182.483 14.6397C183.436 16.3225 183.933 18.2576 183.933 20.361C183.933 22.4644 183.436 24.3575 182.483 26.0402C181.531 27.7229 180.205 29.0691 178.548 30.0367C176.891 31.0043 175.027 31.5091 172.914 31.5091ZM172.914 29.2374C174.571 29.2374 176.062 28.8588 177.347 28.0595C178.631 27.2602 179.666 26.2085 180.412 24.8623C181.158 23.5161 181.531 22.0017 181.531 20.2769C181.531 18.5941 181.158 17.0797 180.412 15.7335C179.666 14.3873 178.631 13.3356 177.347 12.5363C176.062 11.737 174.571 11.3584 172.914 11.3584C171.298 11.3584 169.807 11.737 168.523 12.5363C167.197 13.3356 166.161 14.3873 165.416 15.7335C164.67 17.0797 164.256 18.5941 164.256 20.3189C164.256 22.0017 164.629 23.5161 165.416 24.8623C166.161 26.2085 167.197 27.2602 168.523 28.0595C169.848 28.8588 171.298 29.2374 172.914 29.2374Z" fill="#B2B2B2"/>
<path d="M187.123 40.5958C186.791 40.5958 186.501 40.4696 186.294 40.2592C186.087 40.0489 185.963 39.7544 185.963 39.4179V20.1086C186.004 18.0052 186.501 16.1121 187.496 14.5135C188.448 12.8729 189.774 11.5688 191.431 10.6012C193.088 9.63362 194.952 9.17087 196.982 9.17087C199.095 9.17087 200.959 9.67569 202.616 10.6433C204.273 11.6108 205.599 12.957 206.552 14.6397C207.505 16.3225 208.002 18.2576 208.002 20.361C208.002 22.4644 207.505 24.3575 206.552 26.0402C205.599 27.7229 204.273 29.0691 202.616 30.0367C200.959 31.0042 199.054 31.5091 196.982 31.5091C195.077 31.5091 193.378 31.0884 191.887 30.2891C190.396 29.4477 189.194 28.354 188.366 26.9657V39.4179C188.366 39.7544 188.241 40.0489 188.034 40.2592C187.786 40.5117 187.496 40.5958 187.123 40.5958ZM196.899 29.2374C198.556 29.2374 200.048 28.8588 201.332 28.0595C202.616 27.2602 203.652 26.2085 204.439 24.8623C205.185 23.5161 205.599 22.0017 205.599 20.3189C205.599 18.5941 205.226 17.0797 204.439 15.7335C203.693 14.3873 202.658 13.3356 201.332 12.5363C200.048 11.737 198.556 11.3584 196.899 11.3584C195.284 11.3584 193.792 11.737 192.508 12.5363C191.183 13.3356 190.147 14.3873 189.401 15.7335C188.656 17.0797 188.283 18.5941 188.283 20.3189C188.283 22.0017 188.656 23.5161 189.401 24.8623C190.147 26.2085 191.183 27.2602 192.508 28.0595C193.834 28.8588 195.284 29.2374 196.899 29.2374Z" fill="#B2B2B2"/>
<path d="M215.086 31.2567C214.092 31.2567 213.222 30.9622 212.435 30.4153C211.648 29.8684 211.068 29.0691 210.612 28.1015C210.198 27.134 209.949 25.9561 209.949 24.652V1.21998C209.949 0.841363 210.074 0.546886 210.281 0.336545C210.488 0.126205 210.778 0 211.109 0C211.482 0 211.772 0.126205 211.979 0.336545C212.186 0.546886 212.311 0.841363 212.311 1.21998V24.652C212.311 25.8719 212.559 26.8816 213.098 27.6809C213.595 28.4802 214.258 28.8588 215.086 28.8588H216.08C216.37 28.8588 216.619 28.985 216.785 29.1953C216.95 29.4057 217.075 29.7001 217.075 30.0787C217.075 30.4153 216.95 30.7098 216.743 30.9201C216.536 31.1305 216.246 31.2567 215.873 31.2567H215.086Z" fill="#B2B2B2"/>
<path d="M227.72 31.467C225.649 31.467 223.785 31.0042 222.211 30.0367C220.595 29.1112 219.311 27.765 218.4 26.0823C217.488 24.3995 217.032 22.4644 217.032 20.3189C217.032 18.1314 217.447 16.1962 218.317 14.5556C219.187 12.8729 220.388 11.5688 221.879 10.6012C223.412 9.63362 225.152 9.17087 227.099 9.17087C229.046 9.17087 230.745 9.63362 232.236 10.5591C233.727 11.4846 234.887 12.7467 235.757 14.3453C236.586 15.9438 237 17.8369 237 19.9403C237 20.2769 236.876 20.5713 236.669 20.7396C236.461 20.95 236.171 21.0341 235.84 21.0341H218.524V18.9727H236.544L234.804 20.2769C234.846 18.5521 234.556 16.9955 233.934 15.6914C233.313 14.3453 232.402 13.2935 231.242 12.5363C230.082 11.7791 228.715 11.4005 227.14 11.4005C225.649 11.4005 224.324 11.7791 223.164 12.5363C222.004 13.2935 221.092 14.3453 220.388 15.6914C219.725 17.0376 219.394 18.5521 219.394 20.3189C219.394 22.0437 219.767 23.6002 220.471 24.9044C221.175 26.2505 222.169 27.3022 223.412 28.0595C224.655 28.8167 226.105 29.1953 227.762 29.1953C228.798 29.1953 229.833 29.027 230.869 28.6484C231.905 28.2698 232.733 27.8071 233.313 27.2181C233.52 27.0078 233.769 26.8816 234.1 26.8816C234.39 26.8816 234.639 26.9657 234.887 27.134C235.177 27.3864 235.343 27.6388 235.343 27.9333C235.343 28.2277 235.219 28.4802 234.97 28.7326C234.142 29.4898 233.023 30.1629 231.697 30.6677C230.247 31.2146 228.963 31.467 227.72 31.467Z" fill="#B2B2B2"/>
<path d="M28.5426 9.17085H24.5243V31.4249H28.5426V9.17085Z" fill="url(#paint0_linear_27_55)"/>
<path d="M47.0606 31.3828H43.0422V20.5713C43.0422 16.5328 39.811 13.2514 35.834 13.2514C31.8571 13.2514 28.5844 16.5328 28.5844 20.5713V31.3828H24.566V20.5713C24.566 14.2611 29.6201 9.12877 35.834 9.12877C42.048 9.12877 47.102 14.2611 47.102 20.5713V31.3828H47.0606Z" fill="url(#paint1_linear_27_55)"/>
<path d="M11.268 31.3822C5.05402 31.3822 0 26.2498 0 19.9396V9.17017H4.01836V19.9817C4.01836 24.0202 7.24962 27.3015 11.2266 27.3015C15.2035 27.3015 18.4347 24.0202 18.4347 19.9817V9.17017H22.4531V19.9817C22.536 26.2498 17.4819 31.3822 11.268 31.3822Z" fill="url(#paint2_linear_27_55)"/>
<path d="M53.1087 9.17085H49.0903V31.4249H53.1087V9.17085Z" fill="url(#paint3_linear_27_55)"/>
<path d="M82.9769 31.3828C76.9286 31.3828 72.0403 26.3767 72.0403 20.2768C72.0403 14.1349 76.97 9.17085 82.9769 9.17085C89.0251 9.17085 93.9134 14.177 93.9134 20.2768C93.9549 26.4188 89.0251 31.3828 82.9769 31.3828ZM82.9769 13.2515C79.1656 13.2515 76.0586 16.4066 76.0586 20.2768C76.0586 24.1471 79.1656 27.3022 82.9769 27.3022C86.7881 27.3022 89.8951 24.1471 89.8951 20.2768C89.8951 16.4066 86.7881 13.2515 82.9769 13.2515Z" fill="url(#paint4_linear_27_55)"/>
<path d="M66.0754 31.3828C60.0271 31.3828 55.1388 26.3767 55.1388 20.2768C55.1388 14.1349 60.0685 9.17085 66.0754 9.17085C68.3124 9.17085 70.4666 9.84394 72.3308 11.1481L70.0109 14.5135C68.8509 13.7142 67.4839 13.2515 66.0754 13.2515C62.2641 13.2515 59.1572 16.4066 59.1572 20.2768C59.1572 24.1471 62.2641 27.3022 66.0754 27.3022C67.4839 27.3022 68.8509 26.8815 70.0109 26.0402L72.3308 29.4056C70.508 30.7098 68.3538 31.3828 66.0754 31.3828Z" fill="url(#paint5_linear_27_55)"/>
<defs>
<linearGradient id="paint0_linear_27_55" x1="26.5605" y1="31.155" x2="26.5605" y2="6.20033" gradientUnits="userSpaceOnUse">
<stop stop-color="#00A5FF"/>
<stop offset="1" stop-color="#CF0080"/>
</linearGradient>
<linearGradient id="paint1_linear_27_55" x1="1.57529" y1="29.3376" x2="86.2654" y2="10.3496" gradientUnits="userSpaceOnUse">
<stop stop-color="#00A5FF"/>
<stop offset="1" stop-color="#CF0080"/>
</linearGradient>
<linearGradient id="paint2_linear_27_55" x1="-0.126682" y1="21.7467" x2="84.5634" y2="2.75875" gradientUnits="userSpaceOnUse">
<stop stop-color="#00A5FF"/>
<stop offset="1" stop-color="#CF0080"/>
</linearGradient>
<linearGradient id="paint3_linear_27_55" x1="2.08291" y1="31.6028" x2="86.7732" y2="12.6147" gradientUnits="userSpaceOnUse">
<stop stop-color="#00A5FF"/>
<stop offset="1" stop-color="#CF0080"/>
</linearGradient>
<linearGradient id="paint4_linear_27_55" x1="3.65444" y1="38.613" x2="88.3445" y2="19.625" gradientUnits="userSpaceOnUse">
<stop stop-color="#00A5FF"/>
<stop offset="1" stop-color="#CF0080"/>
</linearGradient>
<linearGradient id="paint5_linear_27_55" x1="2.822" y1="34.898" x2="87.5121" y2="15.91" gradientUnits="userSpaceOnUse">
<stop stop-color="#00A5FF"/>
<stop offset="1" stop-color="#CF0080"/>
</linearGradient>
</defs>
</svg>
