<svg xmlns="http://www.w3.org/2000/svg" xmlns:xlink="http://www.w3.org/1999/xlink" width="537.55" height="46.333" viewBox="0 0 537.55 46.333">
  <defs>
    <linearGradient id="linear-gradient" x1="0.5" y1="0.989" x2="0.5" y2="-0.133" gradientUnits="objectBoundingBox">
      <stop offset="0" stop-color="#5ca2fb"/>
      <stop offset="1" stop-color="#b0007d"/>
    </linearGradient>
    <linearGradient id="linear-gradient-2" x1="-1.019" y1="0.908" x2="2.735" y2="0.029" xlink:href="#linear-gradient"/>
    <linearGradient id="linear-gradient-3" x1="-0.006" y1="0.567" x2="3.749" y2="-0.312" xlink:href="#linear-gradient"/>
    <linearGradient id="linear-gradient-4" x1="-11.634" y1="1.01" x2="9.298" y2="0.13" xlink:href="#linear-gradient"/>
    <linearGradient id="linear-gradient-5" x1="-3.122" y1="1.325" x2="0.739" y2="0.446" xlink:href="#linear-gradient"/>
    <linearGradient id="linear-gradient-6" x1="-3.043" y1="1.158" x2="1.876" y2="0.279" xlink:href="#linear-gradient"/>
  </defs>
  <g id="Logo" transform="translate(-0.001 -0.049)">
    <path id="Caminho_9541" data-name="Caminho 9541" d="M778.138,147.781a2.8,2.8,0,0,0-1.053-.995,2.693,2.693,0,0,0-1.41-.332,2.788,2.788,0,0,0-1.388.415,2.917,2.917,0,0,0-1,1.063,2.678,2.678,0,0,0-.341,1.416,2.637,2.637,0,0,0,.43,1.385,2.947,2.947,0,0,0,1.063.995,2.748,2.748,0,0,0,2.8-.086,2.908,2.908,0,0,0,.989-1.063,2.714,2.714,0,0,0,.338-1.4,2.821,2.821,0,0,0-.427-1.394Z" transform="translate(-561.605 -115.35)" fill="#585858"/>
    <path id="Caminho_9542" data-name="Caminho 9542" d="M235.7,102.423a14.759,14.759,0,0,1-4.5.657,3.961,3.961,0,0,1-2.736-.844,2.917,2.917,0,0,1-.946-2.3v-.052c0-1.956,1.317-2.939,3.94-2.939a20.2,20.2,0,0,1,4.244.479v5Zm1.277-18.913a10.284,10.284,0,0,0-5.009-1.13,18.251,18.251,0,0,0-3.574.338,13.488,13.488,0,0,0-2.374.679c-.015,0-.028.018-.043.018-.12.043-.236.1-.35.144-.043.018-.184.092-.23.12a2.644,2.644,0,0,0-.921.989,2.457,2.457,0,0,0-.307,1.314,2.487,2.487,0,0,0,.405,1.287,2.721,2.721,0,0,0,.995.921,2.5,2.5,0,0,0,1.314.322,3.492,3.492,0,0,0,.921-.193,11.9,11.9,0,0,1,3.842-.614,4.2,4.2,0,0,1,2.988,1.029,4,4,0,0,1,1.1,3.071v1.354a22.074,22.074,0,0,0-2.383-.5,18.329,18.329,0,0,0-2.662-.175,9.535,9.535,0,0,0-6.261,1.935,7.14,7.14,0,0,0-2.352,5.835v.129a7,7,0,0,0,1.063,3.879,6.82,6.82,0,0,0,2.979,2.524,10.567,10.567,0,0,0,4.419.875,33.424,33.424,0,0,0,4.683-.307,16.8,16.8,0,0,0,3.685-.887,7,7,0,0,0,1.489-.765,1.753,1.753,0,0,0,.639-.838,4.207,4.207,0,0,0,.166-1.354V91.5a10.334,10.334,0,0,0-1.063-4.812,7.533,7.533,0,0,0-3.154-3.175Z" transform="translate(-179.899 -70.952)" fill="#585858"/>
    <path id="Caminho_9543" data-name="Caminho 9543" d="M190.971,82.74a2.291,2.291,0,0,0-1.271-.307,2.362,2.362,0,0,0-1.253.405,2.721,2.721,0,0,0-.9,1.023,2.65,2.65,0,0,0-.307,1.152v20.126a2.662,2.662,0,0,0,.307,1.152,2.73,2.73,0,0,0,.9,1.026,2.386,2.386,0,0,0,1.253.4,2.328,2.328,0,0,0,1.271-.307,2.613,2.613,0,0,0,.949-.961,2.739,2.739,0,0,0,.378-1.305V85.006a2.847,2.847,0,0,0-.378-1.305A2.546,2.546,0,0,0,190.971,82.74Z" transform="translate(-155.762 -70.987)" fill="#585858"/>
    <path id="Caminho_9544" data-name="Caminho 9544" d="M410.109,85.028a2.632,2.632,0,0,0-.415-1.357,2.877,2.877,0,0,0-1.026-.97,2.571,2.571,0,0,0-2.687.083,2.764,2.764,0,0,0-.946,1.041,2.653,2.653,0,0,0-.307,1.293v16.472a15.858,15.858,0,0,1-4.582.66,4.351,4.351,0,0,1-3.126-1.121,4.3,4.3,0,0,1-1.173-3.252V85.022a2.592,2.592,0,0,0-.415-1.354,2.874,2.874,0,0,0-1.023-.973,2.524,2.524,0,0,0-1.357-.338,2.558,2.558,0,0,0-1.33.421,2.819,2.819,0,0,0-.952,1.041,2.653,2.653,0,0,0-.307,1.293V98.183a10.441,10.441,0,0,0,1.142,4.969,8.156,8.156,0,0,0,3.218,3.329,9.691,9.691,0,0,0,4.84,1.179,27.816,27.816,0,0,0,5.128-.442,20.692,20.692,0,0,0,4.225-1.228,1.741,1.741,0,0,0,.826-.765,2.527,2.527,0,0,0,.307-1.228S410.115,85.055,410.109,85.028Z" transform="translate(-296.578 -70.935)" fill="#585858"/>
    <path id="Caminho_9545" data-name="Caminho 9545" d="M681.74,83.534a9.071,9.071,0,0,0-4.606-1.158,13.948,13.948,0,0,0-3.906.568,18.942,18.942,0,0,0-3.6,1.465,7.985,7.985,0,0,0-2.6-1.514,9.679,9.679,0,0,0-3.181-.516,20.754,20.754,0,0,0-4.333.43,35.959,35.959,0,0,0-3.955,1.09,2.075,2.075,0,0,0-1.578,2.15v18.883a2.681,2.681,0,0,0,.375,1.373,3.019,3.019,0,0,0,1,1.007,2.6,2.6,0,0,0,2.7,0,2.853,2.853,0,0,0,.983-1.013,2.611,2.611,0,0,0,.359-1.37V88.466c.669-.2,1.3-.359,1.895-.485a10.594,10.594,0,0,1,2.042-.178,3.872,3.872,0,0,1,2.831,1.106,4.038,4.038,0,0,1,1.124,3.009v13.02a2.686,2.686,0,0,0,.375,1.36,2.963,2.963,0,0,0,1,1.007,2.592,2.592,0,0,0,2.705,0,2.764,2.764,0,0,0,.977-1.01,2.635,2.635,0,0,0,.359-1.351l.012-13.165a11.324,11.324,0,0,0-.276-2.512,7.124,7.124,0,0,1,4.179-1.48,3.823,3.823,0,0,1,2.831,1.139,4.139,4.139,0,0,1,1.13,3.046l.018,12.95a2.687,2.687,0,0,0,.375,1.36,2.963,2.963,0,0,0,1,1.007,2.583,2.583,0,0,0,2.7,0,2.844,2.844,0,0,0,.983-1.01,2.629,2.629,0,0,0,.359-1.373V91.488a9.71,9.71,0,0,0-1.13-4.723,8.089,8.089,0,0,0-3.148-3.231Z" transform="translate(-479.173 -70.949)" fill="#585858"/>
    <path id="Caminho_9546" data-name="Caminho 9546" d="M494.647,82.685a2.844,2.844,0,0,0-3.82,1.228L483.565,98.42c-2.4-4.806-7.256-14.513-7.256-14.513a2.85,2.85,0,0,0-3.823-1.228,2.939,2.939,0,0,0-1.253,3.918L481,106.134a2.853,2.853,0,0,0,2.346,1.52h.224a1.724,1.724,0,0,0,.218,0,2.853,2.853,0,0,0,2.343-1.52S495.885,86.643,495.9,86.6a2.933,2.933,0,0,0-1.253-3.912Z" transform="translate(-352.327 -70.944)" fill="#585858"/>
    <path id="Caminho_9547" data-name="Caminho 9547" d="M319.68,83.554a9.683,9.683,0,0,0-4.84-1.179,27.486,27.486,0,0,0-5.125.445,20.476,20.476,0,0,0-4.229,1.228,1.741,1.741,0,0,0-.826.765,2.6,2.6,0,0,0-.292,1.244V105a2.656,2.656,0,0,0,.415,1.354,2.884,2.884,0,0,0,1.026.973,2.475,2.475,0,0,0,1.354.335,2.531,2.531,0,0,0,1.33-.421,2.8,2.8,0,0,0,.952-1.041,2.715,2.715,0,0,0,.307-1.293V88.44a15.867,15.867,0,0,1,4.576-.657,3.977,3.977,0,0,1,4.3,4.373V105.01a2.6,2.6,0,0,0,.415,1.354,2.844,2.844,0,0,0,1.023.97,2.457,2.457,0,0,0,1.354.338,2.543,2.543,0,0,0,1.333-.421,2.764,2.764,0,0,0,.946-1.041,2.653,2.653,0,0,0,.307-1.293V91.846a10.478,10.478,0,0,0-1.1-4.981A8.138,8.138,0,0,0,319.68,83.554Z" transform="translate(-236.923 -70.948)" fill="#585858"/>
    <path id="Caminho_9548" data-name="Caminho 9548" d="M108.467,82.7a2.85,2.85,0,0,0-3.823,1.228l-7.256,14.51c-2.4-4.8-7.256-14.51-7.256-14.51A2.85,2.85,0,0,0,86.31,82.7a2.933,2.933,0,0,0-1.253,3.918c0,.046,9.768,19.537,9.768,19.537a2.844,2.844,0,0,0,2.343,1.52h.445a2.856,2.856,0,0,0,2.343-1.52s9.738-19.491,9.765-19.537a2.945,2.945,0,0,0-1.256-3.918Z" transform="translate(-84.74 -70.958)" fill="#585858"/>
    <path id="Caminho_9549" data-name="Caminho 9549" d="M584.2,93.13h-9.191v-1.02a4.37,4.37,0,0,1,.614-2.285,4.038,4.038,0,0,1,1.646-1.535,4.929,4.929,0,0,1,2.322-.544,5.064,5.064,0,0,1,2.334.544,4.13,4.13,0,0,1,1.674,1.535,4.22,4.22,0,0,1,.614,2.263Zm.476-8.8A9.855,9.855,0,0,0,579.589,83a10.232,10.232,0,0,0-5.079,1.25,9.01,9.01,0,0,0-4.711,8.009v6.608a8.516,8.516,0,0,0,1.247,4.44,9.32,9.32,0,0,0,3.485,3.338,10.066,10.066,0,0,0,5.058,1.259,13.1,13.1,0,0,0,3.845-.547,12.55,12.55,0,0,0,2.306-.921,2.457,2.457,0,0,0,1.195-1.124,2.362,2.362,0,0,0,.307-1.274,2.491,2.491,0,0,0-.381-1.259,2.552,2.552,0,0,0-2.248-1.21,4.913,4.913,0,0,0-1.379.418,8.549,8.549,0,0,1-3.6.887,4.572,4.572,0,0,1-2.411-.642,4.434,4.434,0,0,1-1.637-1.692,4.569,4.569,0,0,1-.574-2.214V97.5h12.016a2.275,2.275,0,0,0,1.79-.709,2.509,2.509,0,0,0,.633-1.769V92.516a9.326,9.326,0,0,0-1.262-4.7,9.673,9.673,0,0,0-3.513-3.5Z" transform="translate(-420.843 -71.379)" fill="#585858"/>
    <path id="Caminho_9550" data-name="Caminho 9550" d="M866.523,85.853a13.153,13.153,0,0,0-12.7,0,12.068,12.068,0,0,0-4.456,4.456,12.541,12.541,0,0,0-1.634,6.4,12.729,12.729,0,0,0,1.591,6.36,11.758,11.758,0,0,0,10.5,6.09,11.4,11.4,0,0,0,5.835-1.5,11.122,11.122,0,0,0,3.47-3.151v2.724a1.619,1.619,0,0,0,.491,1.228,1.9,1.9,0,0,0,2.509,0,1.618,1.618,0,0,0,.491-1.228V96.712a12.9,12.9,0,0,0-1.68-6.4A12.118,12.118,0,0,0,866.523,85.853Zm-1.7,18.966a9.065,9.065,0,0,1-12.517-3.338,10.045,10.045,0,0,1,0-9.56,9.077,9.077,0,0,1,3.267-3.335,9.28,9.28,0,0,1,9.249,0,8.988,8.988,0,0,1,3.224,3.335,10.229,10.229,0,0,1,0,9.56,8.8,8.8,0,0,1-3.224,3.338Z" transform="translate(-613.428 -72.227)" fill="#595959"/>
    <path id="Caminho_9551" data-name="Caminho 9551" d="M961.691,85.808a13.754,13.754,0,0,0-12.83,0,11.55,11.55,0,0,0-4.434,4.413,12.845,12.845,0,0,0-1.612,6.492,13.2,13.2,0,0,0,1.535,6.449,11.264,11.264,0,0,0,4.278,4.413,12.231,12.231,0,0,0,6.268,1.588,10.647,10.647,0,0,0,5.577-1.456,10.251,10.251,0,0,0,3.829-4.029v2.039a10.666,10.666,0,0,1-1.164,5.153,8.54,8.54,0,0,1-7.723,4.606,10.748,10.748,0,0,1-4.726-.986,9.547,9.547,0,0,1-3.335-2.6,1.741,1.741,0,0,0-1.121-.673,1.658,1.658,0,0,0-1.3.27,1.4,1.4,0,0,0-.648,1.029,1.431,1.431,0,0,0,.427,1.164,12.345,12.345,0,0,0,4.431,3.605,13.939,13.939,0,0,0,6.225,1.32,11.933,11.933,0,0,0,10.748-6.246,13.138,13.138,0,0,0,1.612-6.516V96.712a13.347,13.347,0,0,0-1.634-6.492,11.455,11.455,0,0,0-4.4-4.413Zm1.456,15.741a8.488,8.488,0,0,1-3.2,3.292,9.111,9.111,0,0,1-4.68,1.188,9.231,9.231,0,0,1-4.7-1.188,8.436,8.436,0,0,1-3.224-3.292,9.826,9.826,0,0,1-1.164-4.837,9.944,9.944,0,0,1,1.164-4.858,8.411,8.411,0,0,1,3.224-3.313,9.231,9.231,0,0,1,4.7-1.188,9.111,9.111,0,0,1,4.68,1.188,8.46,8.46,0,0,1,3.194,3.313,9.977,9.977,0,0,1,1.164,4.858,9.852,9.852,0,0,1-1.164,4.837Z" transform="translate(-679.309 -72.228)" fill="#595959"/>
    <path id="Caminho_9552" data-name="Caminho 9552" d="M1056.726,85.832a13.478,13.478,0,0,0-12.784,0,11.706,11.706,0,0,0-4.434,4.431,13.617,13.617,0,0,0,0,12.855,11.706,11.706,0,0,0,4.434,4.431,13.478,13.478,0,0,0,12.784,0,11.924,11.924,0,0,0,4.434-4.431,12.544,12.544,0,0,0,1.64-6.406,13.152,13.152,0,0,0-1.655-6.449,11.78,11.78,0,0,0-4.419-4.431Zm1.5,15.661a8.616,8.616,0,0,1-3.224,3.313,9.572,9.572,0,0,1-9.317,0,8.779,8.779,0,0,1-3.246-3.313,9.576,9.576,0,0,1-1.185-4.794,9.7,9.7,0,0,1,1.185-4.812,8.739,8.739,0,0,1,3.246-3.338,9.572,9.572,0,0,1,9.317,0,8.578,8.578,0,0,1,3.224,3.338,9.881,9.881,0,0,1,1.164,4.812,9.759,9.759,0,0,1-1.164,4.806Z" transform="translate(-745.192 -72.228)" fill="#595959"/>
    <path id="Caminho_9553" data-name="Caminho 9553" d="M1151.442,84.682a6.944,6.944,0,0,0-3.178-.583,9.142,9.142,0,0,0-4.726,1.253,9.662,9.662,0,0,0-2.933,2.681V86.061a1.7,1.7,0,1,0-3.4,0v21.091a1.7,1.7,0,1,0,3.4,0V93.763a5.869,5.869,0,0,1,1.142-3.627,6.755,6.755,0,0,1,3.089-2.263,9.964,9.964,0,0,1,4.456-.513c.507.028.964.058,1.366.089a1.842,1.842,0,0,0,1.029-.181,1.311,1.311,0,0,0,.614-.894A1.4,1.4,0,0,0,1151.442,84.682Z" transform="translate(-814.003 -72.143)" fill="#595959"/>
    <path id="Caminho_9554" data-name="Caminho 9554" d="M1209.071,85.85a12.314,12.314,0,0,0-6.335-1.634,12.453,12.453,0,0,0-6.36,1.634,12.067,12.067,0,0,0-4.456,4.456,12.541,12.541,0,0,0-1.634,6.4,12.7,12.7,0,0,0,1.591,6.36,11.758,11.758,0,0,0,10.5,6.09,11.38,11.38,0,0,0,5.835-1.5,11.135,11.135,0,0,0,3.482-3.151v2.724a1.618,1.618,0,0,0,.491,1.228,1.9,1.9,0,0,0,2.509,0,1.618,1.618,0,0,0,.491-1.228V96.708a12.9,12.9,0,0,0-1.68-6.4,12.1,12.1,0,0,0-4.434-4.456Zm-1.7,18.966a9.068,9.068,0,0,1-12.517-3.338,10.069,10.069,0,0,1,0-9.56,9.109,9.109,0,0,1,3.27-3.335,9.274,9.274,0,0,1,9.246,0,8.943,8.943,0,0,1,3.225,3.335,10.208,10.208,0,0,1,0,9.56,8.753,8.753,0,0,1-3.224,3.338Z" transform="translate(-850.786 -72.224)" fill="#595959"/>
    <path id="Caminho_9555" data-name="Caminho 9555" d="M1346.042,90.055a10.44,10.44,0,0,0-3.912-4.278,11.138,11.138,0,0,0-5.933-1.535,11.445,11.445,0,0,0-6.09,1.612,11.322,11.322,0,0,0-4.143,4.41,13.48,13.48,0,0,0-1.5,6.47,12.9,12.9,0,0,0,1.591,6.449,11.414,11.414,0,0,0,4.388,4.413,13.054,13.054,0,0,0,10.816.762,12.2,12.2,0,0,0,3.762-2.082,1.3,1.3,0,0,0,.513-1.075,1.664,1.664,0,0,0-.614-1.167,1.591,1.591,0,0,0-1.078-.335,1.818,1.818,0,0,0-1.1.427,7.936,7.936,0,0,1-2.62,1.41,9.927,9.927,0,0,1-3.246.559,9.182,9.182,0,0,1-4.748-1.21,8.717,8.717,0,0,1-3.246-3.313,9.194,9.194,0,0,1-1.13-3.716h18.06a1.609,1.609,0,0,0,1.164-.427,1.5,1.5,0,0,0,.448-1.139,13.555,13.555,0,0,0-1.385-6.234Zm-14.328-1.535a8.221,8.221,0,0,1,4.477-1.21,7.822,7.822,0,0,1,4.321,1.164,7.677,7.677,0,0,1,2.8,3.224,9.714,9.714,0,0,1,.881,3.27H1327.8a10.066,10.066,0,0,1,.921-3.114,8.029,8.029,0,0,1,2.991-3.323Z" transform="translate(-943.759 -72.24)" fill="#595959"/>
    <path id="Caminho_9556" data-name="Caminho 9556" d="M1356.94,53.778a1.566,1.566,0,0,0,1.164-.448l5.005-5.058a1.228,1.228,0,0,0,.381-.537,1.887,1.887,0,0,0,.114-.614,1.775,1.775,0,0,0-.495-1.277,1.754,1.754,0,0,0-2.457-.021l-5.061,5.058a1.775,1.775,0,0,0,1.345,2.911Z" transform="translate(-965.045 -45.28)" fill="#595959"/>
    <rect id="Ret창ngulo_137" data-name="Ret창ngulo 137" width="5.012" height="27.168" transform="translate(451.466 10.491)" fill="url(#linear-gradient)"/>
    <path id="Caminho_9557" data-name="Caminho 9557" d="M1582.832,106.477h-5.012v-13.2a8.96,8.96,0,1,0-17.92,0l0,13.2h-5.012v-13.2a13.972,13.972,0,0,1,27.945,0Z" transform="translate(-1103.427 -68.819)" fill="url(#linear-gradient-2)"/>
    <path id="Caminho_9558" data-name="Caminho 9558" d="M1469.719,106.477A13.988,13.988,0,0,1,1455.75,92.5V79.3h5.012V92.5a8.96,8.96,0,1,0,17.92,0V79.3h5.012V92.5A13.988,13.988,0,0,1,1469.719,106.477Z" transform="translate(-1034.731 -68.819)" fill="url(#linear-gradient-3)"/>
    <rect id="Ret창ngulo_138" data-name="Ret창ngulo 138" width="5.012" height="27.168" transform="translate(481.911 10.491)" fill="url(#linear-gradient-4)"/>
    <path id="Caminho_9559" data-name="Caminho 9559" d="M1760.339,106.491a13.585,13.585,0,1,1,13.582-13.584A13.586,13.586,0,0,1,1760.339,106.491Zm0-22.159a8.574,8.574,0,1,0,8.6,8.574A8.574,8.574,0,0,0,1760.339,84.332Z" transform="translate(-1236.369 -68.833)" fill="url(#linear-gradient-5)"/>
    <path id="Caminho_9560" data-name="Caminho 9560" d="M1692.072,106.491a13.585,13.585,0,1,1,7.739-24.748l-2.856,4.115a8.574,8.574,0,1,0,0,14.1l2.856,4.118A13.512,13.512,0,0,1,1692.072,106.491Z" transform="translate(-1189.065 -68.833)" fill="url(#linear-gradient-6)"/>
  </g>
</svg>
