<svg xmlns="http://www.w3.org/2000/svg" width="38.022" height="37.966" viewBox="0 0 38.022 37.966">
  <g id="_5" data-name="5" transform="translate(1 1)">
    <path id="Caminho_9395" data-name="Caminho 9395" d="M8.32,7.716H32.334" transform="translate(-2.316 -1.712)" fill="none" stroke="#fff" stroke-linecap="round" stroke-linejoin="round" stroke-width="2"/>
    <path id="Caminho_9396" data-name="Caminho 9396" d="M10.88,3.876H26.89" transform="translate(-0.874 -3.876)" fill="none" stroke="#fff" stroke-linecap="round" stroke-linejoin="round" stroke-width="2"/>
    <path id="Caminho_9397" data-name="Caminho 9397" d="M36.5,11.52H8.482a4,4,0,0,0-4,4v16.01a4,4,0,0,0,4,4H36.5a4,4,0,0,0,4-4V15.522A4,4,0,0,0,36.5,11.52Z" transform="translate(-4.48 0.431)" fill="none" stroke="#fff" stroke-linecap="round" stroke-linejoin="round" stroke-width="2" fill-rule="evenodd"/>
    <rect id="Retângulo_1222" data-name="Retângulo 1222" width="8.005" height="6.004" transform="translate(22.014 17.955)" fill="none" stroke="#fff" stroke-linecap="round" stroke-linejoin="round" stroke-width="2"/>
    <path id="Caminho_9398" data-name="Caminho 9398" d="M8.32,19.2h6" transform="translate(-2.316 4.759)" fill="none" stroke="#fff" stroke-linecap="round" stroke-linejoin="round" stroke-width="2"/>
    <path id="Caminho_9399" data-name="Caminho 9399" d="M8.32,23.04H18.326" transform="translate(-2.316 6.922)" fill="none" stroke="#fff" stroke-linecap="round" stroke-linejoin="round" stroke-width="2"/>
  </g>
</svg>
