<svg xmlns="http://www.w3.org/2000/svg" width="37.628" height="36.091" viewBox="0 0 37.628 36.091">
  <g id="_6" data-name="6" transform="translate(1.414 1.212)">
    <path id="Caminho_9400" data-name="Caminho 9400" d="M39.212,28H5.333" transform="translate(-5.333 5.879)" fill="none" stroke="#fff" stroke-linecap="round" stroke-linejoin="round" stroke-width="2"/>
    <path id="Caminho_9401" data-name="Caminho 9401" d="M8.873,6.667c1.059,4.235,6.352,7.411,12.7,4.235,3.833-.106-.763,9.192-2.118,11.5m0,0C.508,29.749,9.338,41.437,19.459,22.4Zm0,0c1.037-.445,8.682-.7,9.528-.913C24.16,29.7,18.358,36.438,31.105,28.9c0,7.411,1.567,2.16,7.411,4.235" transform="translate(-3.579 -6.667)" fill="none" stroke="#fff" stroke-linecap="round" stroke-linejoin="round" stroke-width="2"/>
    <path id="Caminho_9402" data-name="Caminho 9402" d="M5.333,13.333l4.489,4.489m-4.489,0,4.489-4.489" transform="translate(-5.333 -2.746)" fill="none" stroke="#fff" stroke-linecap="round" stroke-linejoin="round" stroke-width="2"/>
  </g>
</svg>
