<svg xmlns="http://www.w3.org/2000/svg" width="28.676" height="28.667" viewBox="0 0 28.676 28.667">
  <g id="icon_ecommerce" transform="translate(-4.833 -5.667)">
    <path id="Caminho_9442" data-name="Caminho 9442" d="M12.348,23.743,9.79,11.667H30.833a1.666,1.666,0,0,1,1.617,2.072L30.2,22.725a3.333,3.333,0,0,1-2.9,2.508L15.942,26.37A3.334,3.334,0,0,1,12.348,23.743Z" fill="none" stroke="#cf0080" stroke-linecap="round" stroke-linejoin="round" stroke-width="2" fill-rule="evenodd"/>
    <path id="Caminho_9443" data-name="Caminho 9443" d="M9.79,11.667l-1.083-5H5.833" fill="none" stroke="#cf0080" stroke-linecap="round" stroke-linejoin="round" stroke-width="2"/>
    <path id="Caminho_9444" data-name="Caminho 9444" d="M28.515,32.112a.61.61,0,1,0,.613.61.613.613,0,0,0-.613-.61" fill="none" stroke="#cf0080" stroke-linecap="round" stroke-linejoin="round" stroke-width="2" opacity="0.5"/>
    <path id="Caminho_9445" data-name="Caminho 9445" d="M14.495,32.112a.611.611,0,1,0,.612.612.605.605,0,0,0-.612-.612" fill="none" stroke="#cf0080" stroke-linecap="round" stroke-linejoin="round" stroke-width="2" opacity="0.5"/>
  </g>
</svg>
