<svg xmlns="http://www.w3.org/2000/svg" width="37.302" height="33.379" viewBox="0 0 37.302 33.379">
  <g id="_4" data-name="4" transform="translate(1 1)">
    <path id="Caminho_9393" data-name="Caminho 9393" d="M21.651,9.512A31.7,31.7,0,0,0,5.995,5.335,1.951,1.951,0,0,0,4,7.3V30.542A1.953,1.953,0,0,0,5.91,32.5a29.481,29.481,0,0,1,15.741,4.213A29.481,29.481,0,0,1,37.391,32.5a1.953,1.953,0,0,0,1.91-1.957V7.3a1.952,1.952,0,0,0-1.995-1.961A31.7,31.7,0,0,0,21.651,9.512Z" transform="translate(-4 -5.334)" fill="none" stroke="#fff" stroke-linecap="round" stroke-linejoin="round" stroke-width="2" fill-rule="evenodd"/>
    <path id="Caminho_9394" data-name="Caminho 9394" d="M16,8.173v27.2" transform="translate(1.651 -3.997)" fill="none" stroke="#fff" stroke-linecap="round" stroke-linejoin="round" stroke-width="2"/>
  </g>
</svg>
