<svg xmlns="http://www.w3.org/2000/svg" width="18.667" height="28.667" viewBox="0 0 18.667 28.667">
  <g id="icon_app" transform="translate(-10.667 -5.667)">
    <path id="Caminho_9446" data-name="Caminho 9446" d="M16.667,6.667v3a.929.929,0,0,0,.833,1h5a.929.929,0,0,0,.833-1v-3" fill="none" stroke="#cf0080" stroke-linecap="round" stroke-linejoin="round" stroke-width="2" opacity="0.5"/>
    <path id="Caminho_9447" data-name="Caminho 9447" d="M18.133,29.167h3.733" fill="none" stroke="#cf0080" stroke-linecap="round" stroke-linejoin="round" stroke-width="2" opacity="0.5"/>
    <path id="Caminho_9448" data-name="Caminho 9448" d="M15,6.667H25A3.332,3.332,0,0,1,28.333,10V30A3.332,3.332,0,0,1,25,33.333H15A3.332,3.332,0,0,1,11.667,30V10A3.332,3.332,0,0,1,15,6.667Z" fill="none" stroke="#cf0080" stroke-linecap="round" stroke-linejoin="round" stroke-width="2" fill-rule="evenodd"/>
  </g>
</svg>
