<svg xmlns="http://www.w3.org/2000/svg" width="44" height="46.748" viewBox="0 0 44 46.748">
  <g id="icon_globe" transform="translate(-4 -4)">
    <path id="Caminho_9345" data-name="Caminho 9345" d="M16,30l4.667,4.667m0,0L16,39.333m4.667-4.667h-14" transform="translate(0.667 10)" fill="none" stroke="#00a5ff" stroke-linecap="round" stroke-linejoin="round" stroke-width="2"/>
    <path id="Caminho_9346" data-name="Caminho 9346" d="M5,24.855h9.735a6.6,6.6,0,0,0,6.6-6.6h0A6.6,6.6,0,0,0,19.4,13.59L13.673,7.862" transform="translate(0 1.145)" fill="none" stroke="#070707" stroke-linecap="round" stroke-linejoin="round" stroke-width="2"/>
    <path id="Caminho_9347" data-name="Caminho 9347" d="M33.878,37.022,29.732,30.8A4.046,4.046,0,0,0,26.365,29h0a4.045,4.045,0,0,1-3.619-2.238l-.31-.621a4.047,4.047,0,0,1,0-3.619l2.644-5.287A4.045,4.045,0,0,1,28.7,15H38.983" transform="translate(6.803 4)" fill="none" stroke="#070707" stroke-linecap="round" stroke-linejoin="round" stroke-width="2"/>
    <path id="Caminho_9348" data-name="Caminho 9348" d="M30.667,46.466A21.01,21.01,0,1,0,7.2,35.333" fill="none" stroke="#070707" stroke-linecap="round" stroke-linejoin="round" stroke-width="2"/>
  </g>
</svg>
