<svg xmlns="http://www.w3.org/2000/svg" width="48.901" height="46.514" viewBox="0 0 48.901 46.514">
  <g id="Grupo_2243" data-name="Grupo 2243" transform="translate(-1817.025 -3279.1)">
    <g id="icon_regioes" transform="translate(1818 3280.116)">
      <path id="Caminho_9357" data-name="Caminho 9357" d="M12.514,23.162a1.7,1.7,0,0,1-.654-1.848c-3.38,1.259-2.8,1.417-4.613,1.179a1.421,1.421,0,0,1-1.342-1.368c.1-.608-.73.347-1.64-.635C3.74,19.684,1.547,18.166,2.135,17l.69-1.909A1.439,1.439,0,0,1,3.9,14.171c2.881-.56,2.734-.511,2.74-.568.278-2.716.376-3.6.387-3.815C6.771,8.6,6,6.662,7.822,6.318c.855-.059,2.479-.683,3.113.2l1.1,1.245a.051.051,0,0,0,.062.01c1.556-.868,1.532-.826,1.511-.888l-.458-1.392a1.419,1.419,0,0,1,1.128-1.84l3.613-.6a1.43,1.43,0,0,1,1.6.952l1.021,3.029c.023.069-.031.053,2-.418a1.51,1.51,0,0,1,1.835-1.184c.051-.012,2.078.616,2.114.54l.526-.729a1.443,1.443,0,0,1,2.508.318c.67,1.735,1,2.642,1.123,2.871,1.386.681,5.99,2.933,7.033,3.471,3.792-.182,4-.306,4.557.166C44.8,14.253,45.879,15.2,46.181,15.4c1.116-.051,2.335-.06,2.446,1.253.321,3.7.685,2.734-.081,3.981l-5.408,5.3c-1.962,9.035-1.227,5.089-4.754,10.72a1.434,1.434,0,0,1-1.068.6c-2.953.224-4.21.3-4.525.356-1.309,1.13-2,1.7-2.167,1.884-.4,2.175-.243,2.718-.777,3.253l-4.2,4.214a1.449,1.449,0,0,1-2.028.015c-4.183-4.152-4.977-3.583.174-7.361a30.978,30.978,0,0,0-1.24-3.784l-.371-1.1a.05.05,0,0,0-.045-.034c-.98.052-2.118-.139-2.237-1.308-.556-5.606-.5-5.324-.573-5.324-1.863.144-1.793-1.848-2.291-3.09C13.229,23.688,13.931,24.053,12.514,23.162Zm0,0v0" transform="translate(-2.036 -3.035)" fill="none" stroke="#000" stroke-linecap="round" stroke-linejoin="round" stroke-width="2"/>
      <path id="Caminho_9358" data-name="Caminho 9358" d="M19,11h.013" transform="translate(3.174 -0.589)" fill="none" stroke="#00a5ff" stroke-linecap="round" stroke-linejoin="round" stroke-width="2"/>
      <path id="Caminho_9359" data-name="Caminho 9359" d="M26,15h.013" transform="translate(5.324 0.64)" fill="none" stroke="#00a5ff" stroke-linecap="round" stroke-linejoin="round" stroke-width="2"/>
      <path id="Caminho_9360" data-name="Caminho 9360" d="M33,16h.013" transform="translate(7.474 0.947)" fill="none" stroke="#00a5ff" stroke-linecap="round" stroke-linejoin="round" stroke-width="2"/>
      <path id="Caminho_9361" data-name="Caminho 9361" d="M21,22h.013" transform="translate(3.789 2.79)" fill="none" stroke="#00a5ff" stroke-linecap="round" stroke-linejoin="round" stroke-width="2"/>
      <path id="Caminho_9362" data-name="Caminho 9362" d="M27,24h.013" transform="translate(5.631 3.404)" fill="none" stroke="#00a5ff" stroke-linecap="round" stroke-linejoin="round" stroke-width="2"/>
      <path id="Caminho_9363" data-name="Caminho 9363" d="M11,13h.013" transform="translate(0.717 0.026)" fill="none" stroke="#00a5ff" stroke-linecap="round" stroke-linejoin="round" stroke-width="2"/>
      <path id="Caminho_9364" data-name="Caminho 9364" d="M17,16h.013" transform="translate(2.56 0.947)" fill="none" stroke="#00a5ff" stroke-linecap="round" stroke-linejoin="round" stroke-width="2"/>
    </g>
  </g>
</svg>
