<svg xmlns="http://www.w3.org/2000/svg" width="41.035" height="41.035" viewBox="0 0 41.035 41.035">
  <g id="Grupo_2241" data-name="Grupo 2241" transform="translate(-230 -3075.62)">
    <g id="icon_scan" transform="translate(231 3076.62)">
      <path id="Caminho_9349" data-name="Caminho 9349" d="M14.759,5H9.879A4.878,4.878,0,0,0,5,9.879v4.879" transform="translate(-5 -5)" fill="none" stroke="#00a5ff" stroke-linecap="round" stroke-linejoin="round" stroke-width="2"/>
      <path id="Caminho_9350" data-name="Caminho 9350" d="M5,27.5v4.879a4.878,4.878,0,0,0,4.879,4.879h4.879" transform="translate(-5 1.776)" fill="none" stroke="#00a5ff" stroke-linecap="round" stroke-linejoin="round" stroke-width="2"/>
      <path id="Caminho_9351" data-name="Caminho 9351" d="M27.5,37.259h4.879a4.878,4.878,0,0,0,4.879-4.879V27.5" transform="translate(1.776 1.776)" fill="none" stroke="#00a5ff" stroke-linecap="round" stroke-linejoin="round" stroke-width="2"/>
      <path id="Caminho_9352" data-name="Caminho 9352" d="M37.259,14.759V9.879A4.878,4.878,0,0,0,32.379,5H27.5" transform="translate(1.776 -5)" fill="none" stroke="#00a5ff" stroke-linecap="round" stroke-linejoin="round" stroke-width="2"/>
      <path id="Caminho_9353" data-name="Caminho 9353" d="M32.482,29.517l-.616-1.546a5.677,5.677,0,0,0-1.414-2.06h0A5.665,5.665,0,0,0,26.6,24.4h-8.51a5.67,5.67,0,0,0-3.851,1.509h0a5.677,5.677,0,0,0-1.414,2.06l-.616,1.546" transform="translate(-2.829 0.843)" fill="none" stroke="#000" stroke-linecap="round" stroke-linejoin="round" stroke-width="2"/>
      <path id="Caminho_9354" data-name="Caminho 9354" d="M21.506,23.012A6.506,6.506,0,1,0,15,16.506,6.506,6.506,0,0,0,21.506,23.012Z" transform="translate(-1.988 -3.494)" fill="none" stroke="#000" stroke-linecap="round" stroke-linejoin="round" stroke-width="2" fill-rule="evenodd"/>
    </g>
  </g>
</svg>
