<svg xmlns="http://www.w3.org/2000/svg" width="40.53" height="40.53" viewBox="0 0 40.53 40.53">
  <g id="icon_ruler" transform="translate(-3.792 -3.454)">
    <path id="Caminho_9330" data-name="Caminho 9330" d="M35.238,34.868a.262.262,0,1,1-.37,0,.261.261,0,0,1,.37,0" transform="translate(7.669 7.669)" fill="none" stroke="#060606" stroke-linecap="round" stroke-linejoin="round" stroke-width="2"/>
    <path id="Caminho_9331" data-name="Caminho 9331" d="M35.238,19.868a.262.262,0,1,1-.37,0,.261.261,0,0,1,.37,0" transform="translate(7.669 3.835)" fill="none" stroke="#060606" stroke-linecap="round" stroke-linejoin="round" stroke-width="2"/>
    <path id="Caminho_9332" data-name="Caminho 9332" d="M35.238,27.368a.262.262,0,1,1-.37,0,.261.261,0,0,1,.37,0" transform="translate(7.669 5.752)" fill="none" stroke="#060606" stroke-linecap="round" stroke-linejoin="round" stroke-width="2"/>
    <path id="Caminho_9333" data-name="Caminho 9333" d="M35.238,12.368a.262.262,0,1,1-.37,0,.261.261,0,0,1,.37,0" transform="translate(7.669 1.917)" fill="none" stroke="#060606" stroke-linecap="round" stroke-linejoin="round" stroke-width="2"/>
    <path id="Caminho_9334" data-name="Caminho 9334" d="M27.738,34.868a.262.262,0,1,1-.37,0,.261.261,0,0,1,.37,0" transform="translate(5.752 7.669)" fill="none" stroke="#060606" stroke-linecap="round" stroke-linejoin="round" stroke-width="2"/>
    <path id="Caminho_9335" data-name="Caminho 9335" d="M5.238,4.868a.262.262,0,1,1-.37,0,.262.262,0,0,1,.37,0" transform="translate(0 0)" fill="none" stroke="#060606" stroke-linecap="round" stroke-linejoin="round" stroke-width="2"/>
    <path id="Caminho_9336" data-name="Caminho 9336" d="M35.238,4.868a.262.262,0,1,1-.37,0,.261.261,0,0,1,.37,0" transform="translate(7.669 0)" fill="none" stroke="#060606" stroke-linecap="round" stroke-linejoin="round" stroke-width="2"/>
    <path id="Caminho_9337" data-name="Caminho 9337" d="M20.238,4.868a.262.262,0,1,1-.37,0,.262.262,0,0,1,.37,0" transform="translate(3.835 0)" fill="none" stroke="#060606" stroke-linecap="round" stroke-linejoin="round" stroke-width="2"/>
    <path id="Caminho_9338" data-name="Caminho 9338" d="M12.738,4.868a.262.262,0,1,1-.37,0,.262.262,0,0,1,.37,0" transform="translate(1.917 0)" fill="none" stroke="#060606" stroke-linecap="round" stroke-linejoin="round" stroke-width="2"/>
    <path id="Caminho_9339" data-name="Caminho 9339" d="M27.738,4.868a.262.262,0,1,1-.37,0,.261.261,0,0,1,.37,0" transform="translate(5.752 0)" fill="none" stroke="#060606" stroke-linecap="round" stroke-linejoin="round" stroke-width="2"/>
    <path id="Caminho_9340" data-name="Caminho 9340" d="M5.238,12.368a.262.262,0,1,1-.37,0,.262.262,0,0,1,.37,0" transform="translate(0 1.917)" fill="none" stroke="#060606" stroke-linecap="round" stroke-linejoin="round" stroke-width="2"/>
    <path id="Caminho_9341" data-name="Caminho 9341" d="M20.055,38.835H8.779A3.781,3.781,0,0,1,5,35.055V23.779A3.781,3.781,0,0,1,8.779,20H20.055a3.781,3.781,0,0,1,3.779,3.779V35.055a3.781,3.781,0,0,1-3.779,3.779Z" transform="translate(0.053 3.888)" fill="none" stroke="#00a5ff" stroke-linecap="round" stroke-linejoin="round" stroke-width="2" fill-rule="evenodd"/>
    <path id="Caminho_9342" data-name="Caminho 9342" d="M19.117,22.813l9.48-9.48" transform="translate(3.662 2.184)" fill="none" stroke="#00a5ff" stroke-linecap="round" stroke-linejoin="round" stroke-width="2"/>
    <path id="Caminho_9343" data-name="Caminho 9343" d="M26.667,21.7V13.333" transform="translate(5.592 2.184)" fill="none" stroke="#00a5ff" stroke-linecap="round" stroke-linejoin="round" stroke-width="2"/>
    <path id="Caminho_9344" data-name="Caminho 9344" d="M20,13.333h8.371" transform="translate(3.888 2.184)" fill="none" stroke="#00a5ff" stroke-linecap="round" stroke-linejoin="round" stroke-width="2"/>
  </g>
</svg>
