<svg xmlns="http://www.w3.org/2000/svg" width="32" height="45.929" viewBox="0 0 32 45.929">
  <g id="icon-fintech" transform="translate(-7.333 -1.5)">
    <path id="Caminho_9434" data-name="Caminho 9434" d="M17.8,18.333h8.1a4.284,4.284,0,0,1,4.286,4.286v15A4.285,4.285,0,0,1,25.9,41.9H17.8a4.284,4.284,0,0,1-4.286-4.286v-15A4.286,4.286,0,0,1,17.8,18.333Z" transform="translate(1.481 4.524)" fill="none" stroke="#cf0080" stroke-linecap="round" stroke-linejoin="round" stroke-width="2" fill-rule="evenodd"/>
    <path id="Caminho_9435" data-name="Caminho 9435" d="M15,11a9.091,9.091,0,0,1,12.857,0" transform="translate(1.905 1.667)" fill="none" stroke="#cf0080" stroke-linecap="round" stroke-linejoin="round" stroke-width="2"/>
    <path id="Caminho_9436" data-name="Caminho 9436" d="M17.5,14.034a4.547,4.547,0,0,1,6.429,0" transform="translate(2.619 2.915)" fill="none" stroke="#cf0080" stroke-linecap="round" stroke-linejoin="round" stroke-width="2"/>
    <path id="Caminho_9437" data-name="Caminho 9437" d="M15,28.214H12.619a4.285,4.285,0,0,1-4.286-4.286V6.786A4.285,4.285,0,0,1,12.619,2.5H34.048a4.284,4.284,0,0,1,4.286,4.286V23.929a4.284,4.284,0,0,1-4.286,4.286H31.667" fill="none" stroke="#cf0080" stroke-linecap="round" stroke-linejoin="round" stroke-width="2" opacity="0.5"/>
    <path id="Caminho_9438" data-name="Caminho 9438" d="M20.1,31.615a.107.107,0,1,1-.152,0,.107.107,0,0,1,.152,0" transform="translate(3.309 8.31)" fill="none" stroke="#cf0080" stroke-linecap="round" stroke-linejoin="round" stroke-width="2"/>
  </g>
</svg>
