<svg xmlns="http://www.w3.org/2000/svg" width="40.879" height="43.166" viewBox="0 0 40.879 43.166">
  <g id="icon_timer" transform="translate(-3.994 -3.994)">
    <path id="Caminho_9327" data-name="Caminho 9327" d="M36.437,16.429H27.289A2.287,2.287,0,0,1,25,14.142V4.994" transform="translate(7.436)" fill="none" stroke="#00a5ff" stroke-linecap="round" stroke-linejoin="round" stroke-width="2"/>
    <path id="Caminho_9328" data-name="Caminho 9328" d="M10,16.429V9.568A4.574,4.574,0,0,1,14.57,4.994h16.4a4.573,4.573,0,0,1,3.234,1.34L40.674,12.8a4.573,4.573,0,0,1,1.34,3.234v25.55A4.574,4.574,0,0,1,37.44,46.16H14.57A4.574,4.574,0,0,1,10,41.586V39.3" transform="translate(1.859)" fill="none" stroke="#00a5ff" stroke-linecap="round" stroke-linejoin="round" stroke-width="2"/>
    <path id="Caminho_9329" data-name="Caminho 9329" d="M13.132,18.856v4.469l3.513,2.141" transform="translate(3.025 5.152)" fill="none" stroke="#000" stroke-linecap="round" stroke-linejoin="round" stroke-width="2"/>
    <rect id="Retângulo_1189" data-name="Retângulo 1189" width="22.87" height="22.87" rx="3" transform="translate(4.994 16.429)" fill="none" stroke="#000" stroke-linecap="round" stroke-linejoin="round" stroke-width="2"/>
  </g>
</svg>
