<svg xmlns="http://www.w3.org/2000/svg" width="46.353" height="46.353" viewBox="0 0 46.353 46.353">
  <g id="icon_features" transform="translate(-4 -4)">
    <path id="Caminho_9365" data-name="Caminho 9365" d="M16.7,21.632H9.928A4.927,4.927,0,0,1,5,16.7V9.928A4.927,4.927,0,0,1,9.928,5H16.7a4.927,4.927,0,0,1,4.928,4.928V16.7A4.927,4.927,0,0,1,16.7,21.632Z" fill="none" stroke="#000" stroke-linecap="round" stroke-linejoin="round" stroke-width="2" fill-rule="evenodd"/>
    <path id="Caminho_9366" data-name="Caminho 9366" d="M35.454,21.632H28.678A4.927,4.927,0,0,1,23.75,16.7V9.928A4.927,4.927,0,0,1,28.678,5h6.776a4.927,4.927,0,0,1,4.928,4.928V16.7A4.927,4.927,0,0,1,35.454,21.632Z" transform="translate(8.97)" fill="none" stroke="#000" stroke-linecap="round" stroke-linejoin="round" stroke-width="2" fill-rule="evenodd"/>
    <path id="Caminho_9367" data-name="Caminho 9367" d="M16.7,40.382H9.928A4.927,4.927,0,0,1,5,35.454V28.678A4.927,4.927,0,0,1,9.928,23.75H16.7a4.927,4.927,0,0,1,4.928,4.928v6.776A4.927,4.927,0,0,1,16.7,40.382Z" transform="translate(0 8.97)" fill="none" stroke="#000" stroke-linecap="round" stroke-linejoin="round" stroke-width="2" fill-rule="evenodd"/>
    <path id="Caminho_9368" data-name="Caminho 9368" d="M35.454,40.382H28.678a4.927,4.927,0,0,1-4.928-4.928V28.678a4.927,4.927,0,0,1,4.928-4.928h6.776a4.927,4.927,0,0,1,4.928,4.928v6.776A4.927,4.927,0,0,1,35.454,40.382Z" transform="translate(8.97 8.97)" fill="none" stroke="#00a5ff" stroke-linecap="round" stroke-linejoin="round" stroke-width="2" fill-rule="evenodd"/>
  </g>
</svg>
