<svg xmlns="http://www.w3.org/2000/svg" width="33.444" height="33.443" viewBox="0 0 33.444 33.443">
  <g id="_3" data-name="3" transform="translate(1 1)">
    <path id="Caminho_9385" data-name="Caminho 9385" d="M11.861,4H7.93A3.93,3.93,0,0,0,4,7.93v3.93" transform="translate(-4 -4)" fill="none" stroke="#fff" stroke-linecap="round" stroke-linejoin="round" stroke-width="2"/>
    <path id="Caminho_9386" data-name="Caminho 9386" d="M4,22v3.93a3.93,3.93,0,0,0,3.93,3.93h3.93" transform="translate(-4 1.583)" fill="none" stroke="#fff" stroke-linecap="round" stroke-linejoin="round" stroke-width="2"/>
    <path id="Caminho_9387" data-name="Caminho 9387" d="M22,29.861h3.93a3.93,3.93,0,0,0,3.93-3.93V22" transform="translate(1.583 1.583)" fill="none" stroke="#fff" stroke-linecap="round" stroke-linejoin="round" stroke-width="2"/>
    <path id="Caminho_9388" data-name="Caminho 9388" d="M29.861,11.861V7.93A3.93,3.93,0,0,0,25.93,4H22" transform="translate(1.583 -4)" fill="none" stroke="#fff" stroke-linecap="round" stroke-linejoin="round" stroke-width="2"/>
    <path id="Caminho_9389" data-name="Caminho 9389" d="M18.481,8A10.481,10.481,0,1,0,28.962,18.481,10.481,10.481,0,0,0,18.481,8Z" transform="translate(-2.759 -2.759)" fill="none" stroke="#fff" stroke-linecap="round" stroke-linejoin="round" stroke-width="2"/>
    <path id="Caminho_9390" data-name="Caminho 9390" d="M12.889,13.333V14.5" transform="translate(-1.243 -1.105)" fill="none" stroke="#fff" stroke-linecap="round" stroke-linejoin="round" stroke-width="2"/>
    <path id="Caminho_9391" data-name="Caminho 9391" d="M19.111,13.333V14.5" transform="translate(0.687 -1.105)" fill="none" stroke="#fff" stroke-linecap="round" stroke-linejoin="round" stroke-width="2"/>
    <path id="Caminho_9392" data-name="Caminho 9392" d="M21.041,18.389a6.2,6.2,0,0,1-8.152,0" transform="translate(-1.243 0.463)" fill="none" stroke="#fff" stroke-linecap="round" stroke-linejoin="round" stroke-width="2"/>
  </g>
</svg>
