<svg xmlns="http://www.w3.org/2000/svg" width="32.009" height="32.01" viewBox="0 0 32.009 32.01">
  <g id="icon_wallet" transform="translate(-4 -3.99)">
    <path id="Caminho_9449" data-name="Caminho 9449" d="M10,25v3.333" fill="none" stroke="#cf0080" stroke-linecap="round" stroke-linejoin="round" stroke-width="2"/>
    <path id="Caminho_9450" data-name="Caminho 9450" d="M24.167,25v3.333" fill="none" stroke="#cf0080" stroke-linecap="round" stroke-linejoin="round" stroke-width="2"/>
    <path id="Caminho_9451" data-name="Caminho 9451" d="M8.333,35H25.667A3.332,3.332,0,0,0,29,31.667v-10a3.332,3.332,0,0,0-3.333-3.333H8.333A3.332,3.332,0,0,0,5,21.667v10A3.332,3.332,0,0,0,8.333,35Z" fill="none" stroke="#cf0080" stroke-linecap="round" stroke-linejoin="round" stroke-width="2" fill-rule="evenodd"/>
    <path id="Caminho_9452" data-name="Caminho 9452" d="M18.851,24.9a2.5,2.5,0,1,1-3.535,0,2.5,2.5,0,0,1,3.535,0" fill="none" stroke="#cf0080" stroke-linecap="round" stroke-linejoin="round" stroke-width="2"/>
    <path id="Caminho_9453" data-name="Caminho 9453" d="M29,22.16l3.528-.945a3.332,3.332,0,0,0,2.355-4.087l-2.6-9.662a3.334,3.334,0,0,0-4.077-2.353L11.467,9.573a3.332,3.332,0,0,0-2.36,4.085l1.255,4.675" fill="none" stroke="#cf0080" stroke-linecap="round" stroke-linejoin="round" stroke-width="2" opacity="0.5"/>
  </g>
</svg>
