<svg xmlns="http://www.w3.org/2000/svg" width="37.302" height="30.241" viewBox="0 0 37.302 30.241">
  <g id="_1" data-name="1" transform="translate(1 1)">
    <path id="Caminho_9371" data-name="Caminho 9371" d="M18,12.667h7.06" transform="translate(2.299 -4.724)" fill="none" stroke="#fff" stroke-linecap="round" stroke-linejoin="round" stroke-width="2"/>
    <path id="Caminho_9372" data-name="Caminho 9372" d="M18,21.667h7.06" transform="translate(2.299 -1.81)" fill="none" stroke="#fff" stroke-linecap="round" stroke-linejoin="round" stroke-width="2"/>
    <path id="Caminho_9373" data-name="Caminho 9373" d="M23.3,17.333H18" transform="translate(2.299 -3.213)" fill="none" stroke="#fff" stroke-linecap="round" stroke-linejoin="round" stroke-width="2"/>
    <path id="Caminho_9374" data-name="Caminho 9374" d="M23.847,6.667H6.269a3.6,3.6,0,0,0-3.6,3.6V31.378a3.529,3.529,0,0,0,3.53,3.53H34.438a3.529,3.529,0,0,0,3.53-3.53V10.2a3.529,3.529,0,0,0-3.53-3.53Z" transform="translate(-2.666 -6.667)" fill="none" stroke="#fff" stroke-linecap="round" stroke-linejoin="round" stroke-width="2" fill-rule="evenodd"/>
    <path id="Caminho_9375" data-name="Caminho 9375" d="M14.09,12h-4.2A1.875,1.875,0,0,0,8,13.858V24.742a1.836,1.836,0,0,0,1.853,1.82H14.09a1.836,1.836,0,0,0,1.853-1.82V13.82A1.836,1.836,0,0,0,14.09,12Z" transform="translate(-0.939 -4.94)" fill="none" stroke="#fff" stroke-linecap="round" stroke-linejoin="round" stroke-width="2" fill-rule="evenodd"/>
  </g>
</svg>
