<svg xmlns="http://www.w3.org/2000/svg" width="41.414" height="43.581" viewBox="0 0 41.414 43.581">
  <g id="icon_aderencia" transform="translate(-3.994 -2.326)">
    <path id="Caminho_9311" data-name="Caminho 9311" d="M35.927,35.927l-4-4" transform="translate(8.067 8.566)" fill="none" stroke="#00a5ff" stroke-linecap="round" stroke-linejoin="round" stroke-width="2"/>
    <path id="Caminho_9312" data-name="Caminho 9312" d="M29.078,20a9.078,9.078,0,0,1,9.078,9.078,9.217,9.217,0,0,1-9.078,9.078,9.078,9.078,0,0,1,0-18.157" transform="translate(4.494 4.993)" fill="none" stroke="#00a5ff" stroke-linecap="round" stroke-linejoin="round" stroke-width="2"/>
    <path id="Caminho_9313" data-name="Caminho 9313" d="M4.994,26.669V31a4.333,4.333,0,0,0,4.333,4.333h8.667" transform="translate(0 6.99)" fill="none" stroke="#000" stroke-linecap="round" stroke-linejoin="round" stroke-width="2"/>
    <path id="Caminho_9314" data-name="Caminho 9314" d="M39,20.16V9.327a4.333,4.333,0,0,0-4.333-4.333h-13" transform="translate(4.993 0.499)" fill="none" stroke="#060606" stroke-linecap="round" stroke-linejoin="round" stroke-width="2"/>
    <path id="Caminho_9315" data-name="Caminho 9315" d="M30.785,25.764l-3.859,3.857-2.318-2.312" transform="translate(5.874 6.719)" fill="none" stroke="#00a5ff" stroke-linecap="round" stroke-linejoin="round" stroke-width="2"/>
    <path id="Caminho_9316" data-name="Caminho 9316" d="M20.16,20.664H6.077a1.083,1.083,0,0,1-1.083-1.083V18.7a4.55,4.55,0,0,1,4.537-4.537h7.176A4.55,4.55,0,0,1,21.244,18.7v.88A1.083,1.083,0,0,1,20.16,20.664Z" transform="translate(0 3.245)" fill="none" stroke="#00a5ff" stroke-linecap="round" stroke-linejoin="round" stroke-width="2" fill-rule="evenodd"/>
    <path id="Caminho_9317" data-name="Caminho 9317" d="M12.245,11.993a4.333,4.333,0,1,1,3.07-1.275A4.333,4.333,0,0,1,12.245,11.993Z" transform="translate(0.874 0)" fill="none" stroke="#00a5ff" stroke-linecap="round" stroke-linejoin="round" stroke-width="2" fill-rule="evenodd"/>
  </g>
</svg>
