<svg width="40" height="40" viewBox="0 0 40 40" fill="none" xmlns="http://www.w3.org/2000/svg">
<path d="M16.8182 13.5983C18.2826 15.0628 18.2826 17.4372 16.8182 18.9016C15.3537 20.3661 12.9793 20.3661 11.5149 18.9016C10.0504 17.4372 10.0504 15.0628 11.5149 13.5983C12.9793 12.1339 15.3537 12.1339 16.8182 13.5983Z" stroke="#22C532" stroke-width="2" stroke-linecap="round" stroke-linejoin="round"/>
<path opacity="0.5" fill-rule="evenodd" clip-rule="evenodd" d="M3.3335 30.8333V9.23504C3.3335 7.35671 4.85683 5.83337 6.73516 5.83337H33.3335C35.1752 5.83337 36.6668 7.32504 36.6668 9.16671V30.8333C36.6668 32.675 35.1752 34.1667 33.3335 34.1667H6.66683C4.82516 34.1667 3.3335 32.675 3.3335 30.8333Z" stroke="#22C532" stroke-width="2" stroke-linecap="round" stroke-linejoin="round"/>
<path d="M25 15.8333H31.6667" stroke="#22C532" stroke-width="2" stroke-linecap="round" stroke-linejoin="round"/>
<path d="M29 22.5H25" stroke="#22C532" stroke-width="2" stroke-linecap="round" stroke-linejoin="round"/>
<path d="M20.1581 27.5C19.8665 26.7683 19.4165 26.1117 18.8381 25.5767C17.8598 24.67 16.5765 24.1667 15.2431 24.1667H13.0898C11.7565 24.1667 10.4731 24.67 9.4948 25.5767C8.91647 26.1117 8.46647 26.7683 8.1748 27.5" stroke="#22C532" stroke-width="2" stroke-linecap="round" stroke-linejoin="round"/>
</svg>
