<svg width="66" height="67" viewBox="0 0 66 67" fill="none" xmlns="http://www.w3.org/2000/svg">
<path d="M17.958 28.8934C17.958 26.0326 20.2313 23.7131 23.035 23.7131C25.8388 23.7131 28.1122 26.0326 28.1122 28.8934C28.1122 35.367 17.958 35.367 17.958 43.0352H28.1122" stroke="#1172EB" stroke-width="3" stroke-linecap="round" stroke-linejoin="round"/>
<path d="M45.1663 43.0353C45.1663 43.0353 45.1663 39.9639 45.1663 38.6249H48.0422H45.1663H37.0236C35.5631 38.6249 34.6434 37.0223 35.3771 35.7325C37.4127 32.1583 39.7687 28.1133 41.9284 24.5497C42.8549 23.0174 45.1663 23.7062 45.1663 25.5055V38.6249" stroke="#1172EB" stroke-width="3" stroke-linecap="round" stroke-linejoin="round"/>
<path opacity="0.5" d="M60.2283 18.2444C54.9722 8.41457 44.7525 1.74072 33 1.74072C15.8777 1.74072 2 15.9038 2 33.3703C2 50.8369 15.8777 65 33 65C50.1223 65 64 50.8369 64 33.3703M62.016 8.07719V18.2444H52.0512L62.016 8.07719Z" stroke="#1172EB" stroke-width="3" stroke-linecap="round" stroke-linejoin="round"/>
</svg>
