<svg width="77" height="56" viewBox="0 0 77 56" fill="none" xmlns="http://www.w3.org/2000/svg">
<path d="M2 54C2 45.75 8.6 39 16.6667 39H31.3333C39.4 39 46 45.75 46 54" stroke="#1172EB" stroke-width="3" stroke-linecap="round" stroke-linejoin="round"/>
<path d="M33.0869 5.80237C38.3044 11.0581 38.3044 19.3173 33.0869 24.1977C27.8692 29.0779 19.6703 29.4534 14.8254 24.1977C9.9805 18.9418 9.60781 11.0581 14.4527 5.80237C19.2976 0.546582 27.8692 0.92198 33.0869 5.80237Z" stroke="#1172EB" stroke-width="3" stroke-linecap="round" stroke-linejoin="round"/>
<path opacity="0.5" d="M53 35H64C70.2333 35 75 39.7667 75 46" stroke="#1172EB" stroke-width="3" stroke-linecap="round" stroke-linejoin="round"/>
<path opacity="0.5" d="M64.28 8.48575C67.9067 12.1681 67.9067 18.0601 64.28 21.3744C60.6531 24.6886 54.85 25.0569 51.5859 21.3744C48.3217 17.6918 47.9592 11.8 51.5859 8.48575C54.85 5.17142 60.6531 5.17142 64.28 8.48575Z" stroke="#1172EB" stroke-width="3" stroke-linecap="round" stroke-linejoin="round"/>
</svg>
