<svg width="40" height="40" viewBox="0 0 40 40" fill="none" xmlns="http://www.w3.org/2000/svg">
<path d="M12.7217 17.8767C12.7217 16.52 13.8217 15.42 15.1783 15.42C16.535 15.42 17.635 16.52 17.635 17.8767C17.635 20.9467 12.7217 20.9467 12.7217 24.5833H17.635" stroke="#22C532" stroke-width="2" stroke-linecap="round" stroke-linejoin="round"/>
<path d="M25.8869 24.5833C25.8869 24.5833 25.8869 23.1267 25.8869 22.4917H27.2785H25.8869H21.9469C21.2402 22.4917 20.7952 21.7317 21.1502 21.12C22.1352 19.425 23.2752 17.5067 24.3202 15.8167C24.7685 15.09 25.8869 15.4167 25.8869 16.27V22.4917" stroke="#22C532" stroke-width="2" stroke-linecap="round" stroke-linejoin="round"/>
<path opacity="0.5" d="M33.175 12.8267C30.6317 8.165 25.6867 5 20 5C11.715 5 5 11.7167 5 20C5 28.2833 11.715 35 20 35C28.285 35 35 28.2833 35 20M34.04 8.005V12.8267H29.2183L34.04 8.005Z" stroke="#22C532" stroke-width="2" stroke-linecap="round" stroke-linejoin="round"/>
</svg>
