<svg width="40" height="40" viewBox="0 0 40 40" fill="none" xmlns="http://www.w3.org/2000/svg">
<path opacity="0.5" fill-rule="evenodd" clip-rule="evenodd" d="M33.3332 33.3336V9.63032C33.3332 7.99365 32.0065 6.66699 30.3698 6.66699H9.62984C7.99317 6.66699 6.6665 7.99365 6.6665 9.63032V27.4086C6.6665 29.0453 7.99317 30.372 9.62984 30.372H27.7782L33.3332 33.3336Z" stroke="#1172EB" stroke-width="2" stroke-linecap="round" stroke-linejoin="round"/>
<path d="M19.9967 24.6514C19.8367 24.6514 19.7067 24.7814 19.7084 24.9414C19.7084 25.1014 19.8384 25.2314 19.9984 25.2314C20.1584 25.2314 20.2884 25.1014 20.2884 24.9414C20.29 24.7814 20.16 24.6514 19.9967 24.6514Z" stroke="#1172EB" stroke-width="2" stroke-linecap="round" stroke-linejoin="round"/>
<path d="M19.9986 20.1263V19.7263C19.9986 18.4146 20.8086 17.7046 21.6219 17.1596C22.4152 16.6263 23.2102 15.9296 23.2102 14.6446C23.2102 12.8713 21.7736 11.4346 20.0002 11.4346C18.2269 11.4346 16.7886 12.8679 16.7886 14.6413" stroke="#1172EB" stroke-width="2" stroke-linecap="round" stroke-linejoin="round"/>
</svg>
