<svg width="40" height="40" viewBox="0 0 40 40" fill="none" xmlns="http://www.w3.org/2000/svg">
<path opacity="0.5" d="M5.00016 11.667H3.3335" stroke="#1172EB" stroke-width="2" stroke-linecap="round" stroke-linejoin="round"/>
<path opacity="0.5" d="M6.66683 6.66699H3.3335" stroke="#1172EB" stroke-width="2" stroke-linecap="round" stroke-linejoin="round"/>
<path fill-rule="evenodd" clip-rule="evenodd" d="M29.0633 26.667H11.4166C8.73659 26.667 6.81492 24.0836 7.58492 21.517L11.1849 9.51699C11.6933 7.82532 13.2499 6.66699 15.0166 6.66699H32.6649C35.3449 6.66699 37.2666 9.25032 36.4966 11.817L32.8966 23.817C32.3883 25.5086 30.8299 26.667 29.0633 26.667Z" stroke="#1172EB" stroke-width="2" stroke-linecap="round" stroke-linejoin="round"/>
<path d="M7.8999 24.533L19.4999 16.8164" stroke="#1172EB" stroke-width="2" stroke-linecap="round" stroke-linejoin="round"/>
<path d="M23.6831 16.75L32.1331 25.2" stroke="#1172EB" stroke-width="2" stroke-linecap="round" stroke-linejoin="round"/>
<path opacity="0.5" d="M28.3333 33.333H5" stroke="#1172EB" stroke-width="2" stroke-linecap="round" stroke-linejoin="round"/>
<path d="M11.9966 8.05957L20.0016 17.3996C20.5416 18.0296 21.4616 18.1663 22.1616 17.7213L36.1816 8.8079" stroke="#1172EB" stroke-width="2" stroke-linecap="round" stroke-linejoin="round"/>
</svg>
