<svg width="40" height="40" viewBox="0 0 40 40" fill="none" xmlns="http://www.w3.org/2000/svg">
<path d="M3.3335 31.6667C3.3335 28 6.3335 25 10.0002 25H16.6668C20.3335 25 23.3335 28 23.3335 31.6667" stroke="#22C532" stroke-width="2" stroke-linecap="round" stroke-linejoin="round"/>
<path d="M17.5 9.99997C19.8333 12.3333 19.8333 16 17.5 18.1667C15.1666 20.3333 11.5 20.5 9.33329 18.1667C7.16663 15.8333 6.99996 12.3333 9.16663 9.99997C11.3333 7.66664 15.1666 7.8333 17.5 9.99997Z" stroke="#22C532" stroke-width="2" stroke-linecap="round" stroke-linejoin="round"/>
<path opacity="0.5" d="M26.6665 23.3333H31.6665C34.4998 23.3333 36.6665 25.5 36.6665 28.3333" stroke="#22C532" stroke-width="2" stroke-linecap="round" stroke-linejoin="round"/>
<path opacity="0.5" d="M32.1667 11.1667C33.8333 12.8333 33.8333 15.5 32.1667 17C30.5 18.5 27.8333 18.6667 26.3333 17C24.8333 15.3333 24.6667 12.6667 26.3333 11.1667C27.8333 9.66662 30.5 9.66662 32.1667 11.1667Z" stroke="#22C532" stroke-width="2" stroke-linecap="round" stroke-linejoin="round"/>
</svg>
