<svg width="40" height="40" viewBox="0 0 40 40" fill="none" xmlns="http://www.w3.org/2000/svg">
<path d="M31.6668 20V13.0467C31.6668 12.1633 31.3152 11.315 30.6902 10.69L25.9768 5.97667C25.3518 5.35167 24.5035 5 23.6202 5H11.6668C9.82516 5 8.3335 6.49167 8.3335 8.33333V31.6667C8.3335 33.5083 9.82516 35 11.6668 35H20.0002" stroke="#22C532" stroke-width="2" stroke-linecap="round" stroke-linejoin="round"/>
<path opacity="0.5" d="M13.3335 15H26.6668" stroke="#22C532" stroke-width="2" stroke-linecap="round" stroke-linejoin="round"/>
<path opacity="0.5" d="M13.3335 20H26.6668" stroke="#22C532" stroke-width="2" stroke-linecap="round" stroke-linejoin="round"/>
<path opacity="0.5" d="M13.3335 25H16.6668" stroke="#22C532" stroke-width="2" stroke-linecap="round" stroke-linejoin="round"/>
<path fill-rule="evenodd" clip-rule="evenodd" d="M29.1667 35C29.1667 35 33.3333 33 33.3333 30V26.5L30.295 25.4067C29.565 25.1433 28.7667 25.1433 28.0367 25.4067L25 26.5V30C25 33 29.1667 35 29.1667 35Z" stroke="#22C532" stroke-width="2" stroke-linecap="round" stroke-linejoin="round"/>
</svg>
