<svg width="40" height="40" viewBox="0 0 40 40" fill="none" xmlns="http://www.w3.org/2000/svg">
<path d="M28.3333 36.6667C23.7317 36.6667 20 32.935 20 28.3333C20 23.7317 23.7317 20 28.3333 20C32.9367 20 36.6667 23.7317 36.6667 28.3333C36.6667 32.935 32.9367 36.6667 28.3333 36.6667Z" stroke="#1172EB" stroke-width="2" stroke-linecap="round" stroke-linejoin="round"/>
<path d="M32.0365 26.4814L27.4065 31.1114L24.6299 28.3331" stroke="#1172EB" stroke-width="2" stroke-linecap="round" stroke-linejoin="round"/>
<path d="M31.6667 20.695V13.0467C31.6667 12.1633 31.315 11.315 30.69 10.69L25.9767 5.97667C25.3517 5.35167 24.5033 5 23.62 5H8.33333C6.49167 5 5 6.49167 5 8.33333V31.6667C5 33.5083 6.49167 35 8.33333 35H23.3383" stroke="#1172EB" stroke-width="2" stroke-linecap="round" stroke-linejoin="round"/>
<path opacity="0.5" d="M31.6668 13.3333H25.0002C24.0802 13.3333 23.3335 12.5867 23.3335 11.6667V5" stroke="#1172EB" stroke-width="2" stroke-linecap="round" stroke-linejoin="round"/>
</svg>
