<svg width="40" height="40" viewBox="0 0 40 40" fill="none" xmlns="http://www.w3.org/2000/svg">
<path d="M32.0062 11.6632H14.6631C13.0062 11.6632 11.6631 13.0064 11.6631 14.6632V32.0063C11.6631 33.6632 13.0062 35.0063 14.6631 35.0063H32.0062C33.663 35.0063 35.0062 33.6632 35.0062 32.0063V14.6632C35.0062 13.0064 33.663 11.6632 32.0062 11.6632Z" stroke="#22C532" stroke-width="2" stroke-linecap="round" stroke-linejoin="round"/>
<path d="M23.3347 20V26.6694" stroke="#22C532" stroke-width="2" stroke-linecap="round" stroke-linejoin="round"/>
<path d="M20 23.3347H26.6694" stroke="#22C532" stroke-width="2" stroke-linecap="round" stroke-linejoin="round"/>
<path opacity="0.5" d="M11.6631 28.3368H9.99574C7.23316 28.3368 4.99365 26.0973 4.99365 23.3347V9.99586C4.99365 7.23328 7.23316 4.99377 9.99574 4.99377H23.3346C26.0972 4.99377 28.3367 7.23328 28.3367 9.99586V11.6632" stroke="#22C532" stroke-width="2" stroke-linecap="round" stroke-linejoin="round"/>
</svg>
