<svg width="40" height="40" viewBox="0 0 40 40" fill="none" xmlns="http://www.w3.org/2000/svg">
<path d="M18.3335 30H23.3335" stroke="#22C532" stroke-width="2" stroke-linecap="round" stroke-linejoin="round"/>
<path opacity="0.5" d="M10.7818 31.455C10.7352 31.455 10.6985 31.4917 10.6985 31.5383C10.6985 31.585 10.7352 31.6217 10.7818 31.6217" stroke="#22C532" stroke-width="2" stroke-linecap="round" stroke-linejoin="round"/>
<path d="M31.6665 20V8.33333C31.6665 6.49333 30.1748 5 28.3332 5H9.99984C8.15817 5 6.6665 6.49333 6.6665 8.33333V16.6667" stroke="#22C532" stroke-width="2" stroke-linecap="round" stroke-linejoin="round"/>
<path fill-rule="evenodd" clip-rule="evenodd" d="M34.1666 33.3333H30.6816C29.3016 33.3333 28.1816 32.2133 28.1816 30.8333V22.5C28.1816 21.12 29.3016 20 30.6816 20H34.1666C35.5466 20 36.6666 21.12 36.6666 22.5V30.8333C36.6666 32.2133 35.5466 33.3333 34.1666 33.3333Z" stroke="#22C532" stroke-width="2" stroke-linecap="round" stroke-linejoin="round"/>
<path d="M28.1835 25H18.3335" stroke="#22C532" stroke-width="2" stroke-linecap="round" stroke-linejoin="round"/>
<path fill-rule="evenodd" clip-rule="evenodd" d="M15.0002 35H6.66683C4.82516 35 3.3335 33.5083 3.3335 31.6667V20C3.3335 18.1583 4.82516 16.6667 6.66683 16.6667H15.0002C16.8418 16.6667 18.3335 18.1583 18.3335 20V31.6667C18.3335 33.5083 16.8418 35 15.0002 35Z" stroke="#22C532" stroke-width="2" stroke-linecap="round" stroke-linejoin="round"/>
</svg>
