<svg xmlns="http://www.w3.org/2000/svg" xmlns:xlink="http://www.w3.org/1999/xlink" width="59" height="65" viewBox="0 0 59 65">
  <defs>
    <clipPath id="clip-path">
      <rect id="Retângulo_92" data-name="Retângulo 92" width="59" height="65" transform="translate(0.415 0.333)" fill="#d54e2d" stroke="#d54e2d" stroke-width="3"/>
    </clipPath>
  </defs>
  <g id="Grupo_2209" data-name="Grupo 2209" transform="translate(-0.415 -0.333)">
    <g id="Grupo_2208" data-name="Grupo 2208" clip-path="url(#clip-path)">
      <path id="Caminho_9429" data-name="Caminho 9429" d="M18.837,33.174a7.337,7.337,0,0,1,0-14.674,7.438,7.438,0,0,1,1.33.121l-.538,2.951a4.431,4.431,0,0,0-.792-.072,4.337,4.337,0,1,0,4.337,4.337,4.431,4.431,0,0,0-.072-.792l2.951-.538a7.438,7.438,0,0,1,.121,1.33A7.345,7.345,0,0,1,18.837,33.174Z" transform="translate(5.97 9.185)" fill="#d54e2d"/>
      <path id="Caminho_9430" data-name="Caminho 9430" d="M21.593,44.685A16.093,16.093,0,1,1,29.64,14.654l-1.5,2.6a13.087,13.087,0,1,0,4.8,4.8l2.6-1.5a16.094,16.094,0,0,1-13.938,24.14Z" transform="translate(3.215 6.43)" fill="#d54e2d"/>
      <path id="Caminho_9431" data-name="Caminho 9431" d="M24.348,56.2a24.848,24.848,0,1,1,0-49.7,24.672,24.672,0,0,1,14.489,4.66L37.086,13.6A21.845,21.845,0,1,0,42.1,18.61l2.436-1.751A24.84,24.84,0,0,1,24.348,56.2Z" transform="translate(0.459 3.674)" fill="#d54e2d"/>
      <path id="Caminho_9432" data-name="Caminho 9432" d="M36.215,48.715H30.378a1.5,1.5,0,0,1-1.061-.439L24.939,43.9l2.121-2.121L31,45.715H33.94l-3.482-8.124,2.757-1.182,4.378,10.215a1.5,1.5,0,0,1-1.379,2.091Z" transform="translate(11.941 16.992)" fill="#d54e2d"/>
      <path id="Caminho_9433" data-name="Caminho 9433" d="M6.837,48.715H1A1.5,1.5,0,0,1-.379,46.624L4,36.409l2.757,1.182L3.275,45.715H6.216l3.938-3.938L12.275,43.9,7.9,48.275A1.5,1.5,0,0,1,6.837,48.715Z" transform="translate(0.459 16.992)" fill="#d54e2d"/>
      <path id="Linha_1" data-name="Linha 1" d="M0,20.5a1.5,1.5,0,0,1-1.061-.439,1.5,1.5,0,0,1,0-2.121l19-19a1.5,1.5,0,0,1,2.121,0,1.5,1.5,0,0,1,0,2.121l-19,19A1.5,1.5,0,0,1,0,20.5Z" transform="translate(24.415 16.333)" fill="#d54e2d"/>
      <path id="Caminho_9434" data-name="Caminho 9434" d="M37.3-.5A1.5,1.5,0,0,1,38.751.636L39.992,5.6l4.964,1.241a1.5,1.5,0,0,1,.7,2.516l-7.3,7.3a1.5,1.5,0,0,1-1.061.439H30a1.5,1.5,0,0,1-1.5-1.5V8.3a1.5,1.5,0,0,1,.439-1.061l7.3-7.3A1.5,1.5,0,0,1,37.3-.5Zm4.362,9.609-3.267-.817A1.5,1.5,0,0,1,37.3,7.2l-.817-3.267L31.5,8.918v5.175h5.175Z" transform="translate(13.778 0.459)" fill="#d54e2d"/>
      <path id="Linha_2" data-name="Linha 2" d="M0,5.5a1.5,1.5,0,0,1-1.061-.439,1.5,1.5,0,0,1,0-2.121l4-4a1.5,1.5,0,0,1,2.121,0,1.5,1.5,0,0,1,0,2.121l-4,4A1.5,1.5,0,0,1,0,5.5Z" transform="translate(52.415 3.333)" fill="#d54e2d"/>
    </g>
  </g>
</svg>
