<svg id="Grupo_2224" data-name="Grupo 2224" xmlns="http://www.w3.org/2000/svg" xmlns:xlink="http://www.w3.org/1999/xlink" width="59" height="73.493" viewBox="0 0 59 73.493">
  <defs>
    <clipPath id="clip-path">
      <rect id="Retângulo_98" data-name="Retângulo 98" width="59" height="73.493" fill="#d54e2d" stroke="#d54e2d" stroke-width="1"/>
    </clipPath>
  </defs>
  <g id="Grupo_2223" data-name="Grupo 2223" clip-path="url(#clip-path)">
    <path id="Caminho_9443" data-name="Caminho 9443" d="M265.157,155.569a7.336,7.336,0,1,1,7.335-7.336,7.344,7.344,0,0,1-7.335,7.336m0-12.065a4.729,4.729,0,1,0,4.728,4.729,4.735,4.735,0,0,0-4.728-4.729" transform="translate(-215.818 -117.943)" fill="#d54e2d" stroke="#d54e2d" stroke-width="1"/>
    <path id="Caminho_9444" data-name="Caminho 9444" d="M305.338,259.714a1.3,1.3,0,0,1-1.3-1.3V242.242A3.543,3.543,0,0,0,300.5,238.7h-3.354a1.3,1.3,0,1,1,0-2.607H300.5a6.152,6.152,0,0,1,6.146,6.145V258.41a1.3,1.3,0,0,1-1.3,1.3" transform="translate(-247.642 -197.633)" fill="#d54e2d" stroke="#d54e2d" stroke-width="1"/>
    <path id="Caminho_9445" data-name="Caminho 9445" d="M268.137,372.976a1.3,1.3,0,0,1-1.18-1.856l2.334-4.982a4.258,4.258,0,0,1,3.84-2.441h3.085a3.543,3.543,0,0,0,3.539-3.539v-1.084a1.3,1.3,0,0,1,2.607,0v1.084a6.152,6.152,0,0,1-6.146,6.146h-3.085a1.639,1.639,0,0,0-1.479.941l-2.334,4.982a1.3,1.3,0,0,1-1.181.75" transform="translate(-223.363 -299.483)" fill="#d54e2d" stroke="#d54e2d" stroke-width="1"/>
    <path id="Caminho_9446" data-name="Caminho 9446" d="M235.189,398.314a1.3,1.3,0,0,1-1.18-1.856l2.188-4.675a1.3,1.3,0,0,1,2.361,1.106l-2.188,4.674a1.3,1.3,0,0,1-1.181.751" transform="translate(-195.782 -327.327)" fill="#d54e2d" stroke="#d54e2d" stroke-width="1"/>
    <path id="Caminho_9447" data-name="Caminho 9447" d="M218.752,255.555a1.3,1.3,0,0,1-1.3-1.3v-6.315l-3.116,1.134a1.3,1.3,0,0,1-.37.076l-8.268.482a3.363,3.363,0,0,1-2.464-.9,3.311,3.311,0,0,1,1.585-5.647l6.4-1.358,2.751-3.37a6.122,6.122,0,0,1,4.762-2.26,1.315,1.315,0,0,1,1.317,1.3,1.293,1.293,0,0,1-1.291,1.3h-.026a3.523,3.523,0,0,0-2.742,1.3l-3.041,3.726a1.3,1.3,0,0,1-.739.45l-6.848,1.453a.708.708,0,0,0-.558.689.7.7,0,0,0,.221.512.681.681,0,0,0,.524.19l8.078-.47,4.686-1.706a1.3,1.3,0,0,1,1.749,1.225v8.176a1.3,1.3,0,0,1-1.3,1.3" transform="translate(-169.252 -197.633)" fill="#d54e2d" stroke="#d54e2d" stroke-width="1"/>
    <path id="Caminho_9448" data-name="Caminho 9448" d="M21.61,155.569a7.336,7.336,0,1,1,7.335-7.336,7.344,7.344,0,0,1-7.335,7.336m0-12.065a4.729,4.729,0,1,0,4.728,4.729A4.735,4.735,0,0,0,21.61,143.5" transform="translate(-11.949 -117.943)" fill="#d54e2d" stroke="#d54e2d" stroke-width="1"/>
    <path id="Caminho_9449" data-name="Caminho 9449" d="M1.3,259.714a1.3,1.3,0,0,1-1.3-1.3V242.242A6.152,6.152,0,0,1,6.145,236.1H9.5a1.3,1.3,0,1,1,0,2.607H6.145a3.542,3.542,0,0,0-3.538,3.538V258.41a1.3,1.3,0,0,1-1.3,1.3" transform="translate(0 -197.633)" fill="#d54e2d" stroke="#d54e2d" stroke-width="1"/>
    <path id="Caminho_9450" data-name="Caminho 9450" d="M14.225,372.976a1.3,1.3,0,0,1-1.18-.75l-2.335-4.982a1.64,1.64,0,0,0-1.479-.941H6.145A6.152,6.152,0,0,1,0,360.157v-1.084a1.3,1.3,0,0,1,2.607,0v1.084A3.543,3.543,0,0,0,6.145,363.7H9.231a4.255,4.255,0,0,1,3.839,2.442l2.334,4.982a1.3,1.3,0,0,1-1.179,1.856" transform="translate(0 -299.483)" fill="#d54e2d" stroke="#d54e2d" stroke-width="1"/>
    <path id="Caminho_9451" data-name="Caminho 9451" d="M102.323,398.317a1.3,1.3,0,0,1-1.181-.751l-2.188-4.674a1.3,1.3,0,1,1,2.361-1.106l2.188,4.675a1.3,1.3,0,0,1-1.18,1.856" transform="translate(-82.729 -327.33)" fill="#d54e2d" stroke="#d54e2d" stroke-width="1"/>
    <path id="Caminho_9452" data-name="Caminho 9452" d="M51.612,255.555a1.3,1.3,0,0,1-1.3-1.3v-8.176a1.3,1.3,0,0,1,1.749-1.225l4.686,1.706,8.077.47a.66.66,0,0,0,.524-.19.7.7,0,0,0,.221-.512.708.708,0,0,0-.558-.689l-6.848-1.453a1.3,1.3,0,0,1-.739-.45l-3.041-3.726a3.523,3.523,0,0,0-2.742-1.3,1.315,1.315,0,0,1-1.317-1.3,1.293,1.293,0,0,1,1.291-1.3h.026a6.122,6.122,0,0,1,4.762,2.26l2.751,3.37,6.4,1.358a3.311,3.311,0,0,1-.88,6.544l-8.267-.482a1.3,1.3,0,0,1-.37-.076l-3.116-1.134v6.315a1.3,1.3,0,0,1-1.3,1.3" transform="translate(-42.113 -197.633)" fill="#d54e2d" stroke="#d54e2d" stroke-width="1"/>
    <path id="Caminho_9453" data-name="Caminho 9453" d="M131.166,240.385a1.31,1.31,0,0,1-.42-.07,31.988,31.988,0,0,0-20.044,0,1.3,1.3,0,1,1-.84-2.468,34.6,34.6,0,0,1,21.725,0,1.3,1.3,0,0,1-.42,2.538" transform="translate(-91.224 -197.634)" fill="#d54e2d" stroke="#d54e2d" stroke-width="1"/>
    <path id="Caminho_9454" data-name="Caminho 9454" d="M71.609,349.617c-8.29,0-16.115-2.94-20.933-7.864a1.3,1.3,0,0,1,1.863-1.823c4.338,4.434,11.467,7.081,19.069,7.081s14.733-2.647,19.07-7.081a1.3,1.3,0,0,1,1.863,1.823c-4.817,4.925-12.643,7.865-20.933,7.865" transform="translate(-42.109 -284.221)" fill="#d54e2d" stroke="#d54e2d" stroke-width="1"/>
    <path id="Caminho_9455" data-name="Caminho 9455" d="M95.906,29.453a1.3,1.3,0,0,1-1.3-1.3V23.624H92.348A4.027,4.027,0,0,1,88.325,19.6V4.023A4.027,4.027,0,0,1,92.348,0h20.246a4.027,4.027,0,0,1,4.022,4.023V19.6a4.026,4.026,0,0,1-4.022,4.022H102.275l-5.447,5.447a1.3,1.3,0,0,1-.921.382M92.348,2.607a1.417,1.417,0,0,0-1.416,1.416V19.6a1.417,1.417,0,0,0,1.416,1.415h3.559a1.3,1.3,0,0,1,1.3,1.3V25l3.6-3.6a1.3,1.3,0,0,1,.921-.382h10.858a1.417,1.417,0,0,0,1.415-1.415V4.023a1.417,1.417,0,0,0-1.415-1.416Z" transform="translate(-73.935 0)" fill="#d54e2d" stroke="#d54e2d" stroke-width="1"/>
    <path id="Caminho_9456" data-name="Caminho 9456" d="M131.78,51.681h-9.8a1.3,1.3,0,1,1,0-2.607h9.8a1.3,1.3,0,0,1,0,2.607" transform="translate(-101.013 -41.079)" fill="#d54e2d" stroke="#d54e2d" stroke-width="1"/>
    <path id="Caminho_9457" data-name="Caminho 9457" d="M137.12,82.54H121.975a1.3,1.3,0,1,1,0-2.607H137.12a1.3,1.3,0,0,1,0,2.607" transform="translate(-101.013 -66.911)" fill="#d54e2d" stroke="#d54e2d" stroke-width="1"/>
  </g>
</svg>
