<svg id="Grupo_2239" data-name="Grupo 2239" xmlns="http://www.w3.org/2000/svg" xmlns:xlink="http://www.w3.org/1999/xlink" width="89" height="73.074" viewBox="0 0 89 73.074">
  <defs>
    <clipPath id="clip-path">
      <rect id="Retângulo_112" data-name="Retângulo 112" width="89" height="73.074" fill="#d54e2d"/>
    </clipPath>
  </defs>
  <g id="Grupo_2238" data-name="Grupo 2238" clip-path="url(#clip-path)">
    <path id="Caminho_9471" data-name="Caminho 9471" d="M119.22,300v-3.708a42.248,42.248,0,0,0,9.023-.9l.8,3.622a45.943,45.943,0,0,1-9.819.99" transform="translate(-91.588 -226.924)" fill="#d54e2d"/>
    <path id="Caminho_9472" data-name="Caminho 9472" d="M27.632,73.074c-7.74,0-14.422-1.893-19.325-5.476A19.963,19.963,0,0,1,0,50.825c.011-8.5,7.279-19.78,21.608-33.558-2.18-2.842-6.85-9.223-7.62-12.718a1.854,1.854,0,0,1,.641-1.839C19.165-.975,24.061-.1,28.8.738a26.832,26.832,0,0,0,8.942.57,1.855,1.855,0,0,1,2.074,1.322c.362,1.267.34,3.521-3.069,9.748-1.045,1.908-2.119,3.66-2.835,4.793a106.639,106.639,0,0,1,17,21.647L47.7,40.674A102.713,102.713,0,0,0,30.247,18.8a1.854,1.854,0,0,1-.269-2.376c.018-.027,1.8-2.705,3.464-5.736a31.6,31.6,0,0,0,2.524-5.492,37.116,37.116,0,0,1-7.82-.8c-3.981-.708-7.213-1.284-10.156.48,1.294,3.039,5.136,8.389,7.562,11.421a1.854,1.854,0,0,1-.174,2.506C11.211,32.186,3.718,43.262,3.708,50.826c.007,13.668,12.363,18.539,23.923,18.539Z" transform="translate(0 0)" fill="#d54e2d"/>
    <path id="Caminho_9473" data-name="Caminho 9473" d="M96.687,70.993H81.854a1.854,1.854,0,1,1,0-3.708H96.687a1.854,1.854,0,1,1,0,3.708" transform="translate(-61.458 -51.69)" fill="#d54e2d"/>
    <path id="Caminho_9474" data-name="Caminho 9474" d="M97.271,169.535H93.562A5.569,5.569,0,0,1,88,163.972a1.854,1.854,0,0,1,3.708,0,1.856,1.856,0,0,0,1.854,1.854h3.708a1.856,1.856,0,0,0,1.854-1.854v-1.036a1.842,1.842,0,0,0-1.247-1.759l-6.063-2.018A5.56,5.56,0,0,1,88,153.883v-1.036a5.569,5.569,0,0,1,5.562-5.562h3.708a5.569,5.569,0,0,1,5.562,5.562,1.854,1.854,0,1,1-3.708,0,1.856,1.856,0,0,0-1.854-1.854H93.562a1.856,1.856,0,0,0-1.854,1.854v1.036a1.857,1.857,0,0,0,1.278,1.759l6.063,2.018a5.545,5.545,0,0,1,3.784,5.277v1.036a5.569,5.569,0,0,1-5.562,5.562" transform="translate(-67.604 -113.149)" fill="#d54e2d"/>
    <rect id="Retângulo_110" data-name="Retângulo 110" width="3.708" height="5.562" transform="translate(25.958 30.428)" fill="#d54e2d"/>
    <rect id="Retângulo_111" data-name="Retângulo 111" width="3.708" height="5.562" transform="translate(25.958 54.532)" fill="#d54e2d"/>
    <path id="Caminho_9475" data-name="Caminho 9475" d="M194.542,216.952H176V187.285h18.542Zm-14.833-3.708h11.125v-22.25H179.708Z" transform="translate(-135.208 -143.878)" fill="#d54e2d"/>
    <path id="Caminho_9476" data-name="Caminho 9476" d="M258.542,137.056H240V83.285h18.542Zm-14.833-3.708h11.125V86.993H243.708Z" transform="translate(-184.375 -63.982)" fill="#d54e2d"/>
    <path id="Caminho_9477" data-name="Caminho 9477" d="M322.542,186.222H304V147.285h18.542Zm-14.833-3.708h11.125V150.993H307.708Z" transform="translate(-233.542 -113.149)" fill="#d54e2d"/>
  </g>
</svg>
