<?xml version="1.0" encoding="UTF-8"?><svg id="a" xmlns="http://www.w3.org/2000/svg" viewBox="0 0 2467 506"><defs><style>.b{fill:#fff;}.c{fill:#d54e2d;}</style></defs><g><path class="c" d="M459.3,132.86v-23.19c0-4.54-3.68-8.22-8.22-8.22h-32.89c-4.54,0-8.22,3.68-8.22,8.22v126.77c20.74-37.08,19.22-79.16,49.33-103.59Z"/><path class="b" d="M368.87,101.29h-32.89c-4.54,0-8.22,3.68-8.22,8.22v123.32c0,45.6-37.32,82.65-83.02,82.21-45.26-.44-81.4-37.99-81.4-83.25V109.51c0-4.54-3.68-8.22-8.22-8.22h-32.89c-4.54,0-8.22,3.68-8.22,8.22v122.04c0,72.71,58.45,132.61,131.17,132.81,72.7,.2,131.91-58.88,131.91-131.54V109.51c0-4.54-3.68-8.22-8.22-8.22Z"/><path class="b" d="M541.51,101.29s0,0,0,0h-.38c-72.71,.2-131.17,60.1-131.17,132.81v122.05c0,4.54,3.68,8.22,8.22,8.22h32.89c4.54,0,8.22-3.68,8.22-8.22v-123.32c0-45.6,37.32-82.65,83.02-82.21,45.26,.44,81.4,38,81.4,83.26v122.27c0,4.54,3.68,8.22,8.22,8.22h32.89c4.54,0,8.22-3.68,8.22-8.22v-123.32c0-72.53-59.01-131.53-131.53-131.54Z"/><path class="b" d="M1203.31,101.29c-72.53,0-131.54,59.01-131.54,131.54s59.01,131.54,131.54,131.54,131.54-59.01,131.54-131.54-59.01-131.54-131.54-131.54Zm0,213.75c-45.33,0-82.21-36.88-82.21-82.21s36.88-82.21,82.21-82.21,82.21,36.88,82.21,82.21-36.88,82.21-82.21,82.21Z"/><path class="b" d="M714.16,101.29h32.89c4.54,0,8.22,3.68,8.22,8.22v246.64c0,4.54-3.68,8.22-8.22,8.22h-32.88c-4.54,0-8.22-3.68-8.22-8.22V109.51c0-4.54,3.68-8.22,8.22-8.22Z"/><path class="b" d="M1033.24,269.87h-39.15c-3.09,0-5.96,1.61-7.52,4.27-14.3,24.44-40.85,40.89-71.17,40.82-43.85-.1-80.22-35.11-81.92-78.92-1.82-46.79,35.72-85.44,82.12-85.44,30.07,0,56.4,16.24,70.73,40.4,1.71,2.88,4.82,4.64,8.17,4.64h38.56c4.36,0,7.38-4.36,5.86-8.45-19.1-51.5-69.57-87.89-128.09-85.81-68.98,2.45-124.71,58.59-126.67,127.59-2.11,74.24,57.66,135.3,131.43,135.3,56.56,0,104.88-35.9,123.4-86.11,1.48-4.02-1.47-8.29-5.75-8.29Z"/></g><g><path class="b" d="M1567.03,351.93v-48c-14.44,33.21-44.39,60.64-102.86,60.64s-96.01-30.32-96.01-78.32,31.04-68.22,91.32-68.22h107.56v-7.94c0-49.45-25.99-84.1-81.93-84.1-45.12,0-68.94,19.85-73.99,49.45-.36,2.17-1.8,3.25-4.69,3.25h-20.57c-3.61,0-4.33-2.53-3.97-6.14,5.41-33.93,35.73-71.46,104.67-71.46s107.56,36.45,107.56,109.72v141.12c0,4.69-2.53,7.22-6.5,7.22h-13.72c-3.97,0-6.86-2.53-6.86-7.22Zm-100.7-10.47c75.43,0,100.7-57.03,100.7-98.53v-2.17h-99.62c-48,0-70.74,11.91-70.74,45.12s23.46,55.58,69.66,55.58Z"/><path class="b" d="M1640.29,250.87V113.72c0-4.69,2.53-7.22,7.22-7.22h12.63c4.69,0,7.22,2.53,7.22,7.22V250.87c0,51.97,28.15,88.43,85.18,88.43s84.82-36.45,84.82-88.43V113.72c0-4.69,2.53-7.22,7.22-7.22h12.63c4.69,0,7.22,2.53,7.22,7.22V250.87c0,80.49-52.33,113.69-111.89,113.69s-112.25-33.21-112.25-113.69Z"/><path class="b" d="M1981.37,351.93V131.41h-78.32c-4.69,0-7.22-2.53-7.22-7.22v-10.47c0-4.69,2.53-7.22,7.22-7.22h183.71c4.69,0,7.22,2.53,7.22,7.22v10.47c0,4.69-2.53,7.22-7.22,7.22h-78.32v220.53c0,4.69-2.53,7.22-7.22,7.22h-12.63c-4.69,0-7.22-2.53-7.22-7.22Z"/><path class="b" d="M2088.57,232.47c0-76.88,57.39-131.38,131.74-131.38s131.74,54.5,131.74,131.38-57.39,132.1-131.74,132.1-131.74-55.22-131.74-132.1Zm131.74,106.84c57.03,0,103.59-41.51,103.59-106.84s-46.56-106.11-103.59-106.11-103.23,40.42-103.23,106.11,46.2,106.84,103.23,106.84Z"/></g></svg>